font.ufo
<glyph name="exclam" format="1">
  <advance width="199"/>
  <unicode hex="0021"/>
  <note>
    exclam
  </note>
  <outline>
    <contour>
      <point x="124" y="125" type="line"/>
      <point x="129" y="299" type="line"/>
      <point x="129" y="445" type="line"/>
      <point x="71" y="445" type="line"/>
      <point x="71" y="299" type="line"/>
      <point x="76" y="125" type="line"/>
    </contour>
    <contour>
      <point x="130" y="0" type="line"/>
      <point x="130" y="68" type="line"/>
      <point x="70" y="68" type="line"/>
      <point x="70" y="0" type="line"/>
    </contour>
  </outline>
</glyph>
<glyph name="quotedbl" format="1">
  <advance width="325"/>
  <unicode hex="0022"/>
  <note>
    quotedbl
  </note>
  <outline>
    <contour>
      <point x="232" y="348" type="line"/>
      <point x="239" y="443" type="line" smooth="yes"/>
      <point x="240" y="457"/>
      <point x="239" y="472"/>
      <point x="236" y="488" type="curve"/>
      <point x="190" y="488" type="line"/>
      <point x="188" y="472"/>
      <point x="187" y="457"/>
      <point x="188" y="443" type="curve" smooth="yes"/>
      <point x="195" y="348" type="line"/>
    </contour>
    <contour>
      <point x="131" y="348" type="line"/>
      <point x="137" y="443" type="line" smooth="yes"/>
      <point x="138" y="457"/>
      <point x="138" y="472"/>
      <point x="136" y="488" type="curve"/>
      <point x="88" y="488" type="line"/>
      <point x="86" y="472"/>
      <point x="86" y="457"/>
      <point x="87" y="443" type="curve" smooth="yes"/>
      <point x="93" y="348" type="line"/>
    </contour>
  </outline>
</glyph>
<glyph name="numbersign" format="1">
  <advance width="542"/>
  <unicode hex="0023"/>
  <note>
    numbersign
  </note>
  <outline>
    <contour>
      <point x="202" y="125" type="line"/>
      <point x="305" y="125" type="line"/>
      <point x="289" y="-1" type="line"/>
      <point x="345" y="-3" type="line"/>
      <point x="363" y="125" type="line"/>
      <point x="449" y="125" type="line"/>
      <point x="449" y="176" type="line"/>
      <point x="370" y="176" type="line"/>
      <point x="383" y="276" type="line"/>
      <point x="467" y="276" type="line"/>
      <point x="467" y="327" type="line"/>
      <point x="390" y="327" type="line"/>
      <point x="406" y="452" type="line"/>
      <point x="351" y="454" type="line"/>
      <point x="333" y="327" type="line"/>
      <point x="229" y="327" type="line"/>
      <point x="246" y="452" type="line"/>
      <point x="191" y="454" type="line"/>
      <point x="172" y="327" type="line"/>
      <point x="86" y="327" type="line"/>
      <point x="86" y="276" type="line"/>
      <point x="166" y="276" type="line"/>
      <point x="152" y="176" type="line"/>
      <point x="68" y="176" type="line"/>
      <point x="68" y="125" type="line"/>
      <point x="145" y="125" type="line"/>
      <point x="128" y="-1" type="line"/>
      <point x="185" y="-3" type="line"/>
    </contour>
    <contour>
      <point x="223" y="276" type="line"/>
      <point x="326" y="276" type="line"/>
      <point x="313" y="176" type="line"/>
      <point x="209" y="176" type="line"/>
    </contour>
  </outline>
</glyph>
<glyph name="dollar" format="1">
  <advance width="507"/>
  <unicode hex="0024"/>
  <outline>
    <contour>
      <point x="460" y="183" type="curve" smooth="yes"/>
      <point x="460" y="296"/>
      <point x="374" y="341"/>
      <point x="291" y="376" type="curve" smooth="yes"/>
      <point x="219" y="408"/>
      <point x="154" y="435"/>
      <point x="154" y="498" type="curve" smooth="yes"/>
      <point x="154" y="553"/>
      <point x="198" y="590"/>
      <point x="274" y="590" type="curve" smooth="yes"/>
      <point x="327" y="590"/>
      <point x="386" y="573"/>
      <point x="424" y="549" type="curve"/>
      <point x="424" y="648" type="line"/>
      <point x="379" y="670"/>
      <point x="321" y="679"/>
      <point x="271" y="679" type="curve" smooth="yes"/>
      <point x="144" y="679"/>
      <point x="48" y="611"/>
      <point x="48" y="494" type="curve" smooth="yes"/>
      <point x="48" y="387"/>
      <point x="127" y="342"/>
      <point x="204" y="307" type="curve" smooth="yes"/>
      <point x="284" y="272"/>
      <point x="356" y="247"/>
      <point x="356" y="180" type="curve" smooth="yes"/>
      <point x="356" y="116"/>
      <point x="308" y="81"/>
      <point x="234" y="81" type="curve" smooth="yes"/>
      <point x="169" y="81"/>
      <point x="102" y="102"/>
      <point x="52" y="139" type="curve"/>
      <point x="52" y="36" type="line"/>
      <point x="101" y="7"/>
      <point x="170" y="-7"/>
      <point x="236" y="-7" type="curve" smooth="yes"/>
      <point x="365" y="-7"/>
      <point x="460" y="61"/>
    </contour>
    <contour>
      <point x="273" y="-111" type="line"/>
      <point x="273" y="52" type="line"/>
      <point x="191" y="52" type="line"/>
      <point x="191" y="-111" type="line"/>
    </contour>
    <contour>
      <point x="323" y="632" type="line"/>
      <point x="323" y="785" type="line"/>
      <point x="241" y="785" type="line"/>
      <point x="241" y="632" type="line"/>
    </contour>
  </outline>
</glyph>
<glyph name="percent" format="1">
  <advance width="878"/>
  <unicode hex="0025"/>
  <outline>
    <contour>
      <point x="300" y="-1" type="line"/>
      <point x="664" y="675" type="line"/>
      <point x="574" y="675" type="line"/>
      <point x="211" y="-1" type="line"/>
    </contour>
    <contour>
      <point x="380" y="519" type="curve" smooth="yes"/>
      <point x="380" y="610"/>
      <point x="305" y="685"/>
      <point x="214" y="685" type="curve" smooth="yes"/>
      <point x="122" y="685"/>
      <point x="48" y="610"/>
      <point x="48" y="519" type="curve" smooth="yes"/>
      <point x="48" y="427"/>
      <point x="122" y="353"/>
      <point x="214" y="353" type="curve" smooth="yes"/>
      <point x="305" y="353"/>
      <point x="380" y="427"/>
    </contour>
    <contour>
      <point x="128" y="519" type="curve" smooth="yes"/>
      <point x="128" y="566"/>
      <point x="167" y="604"/>
      <point x="214" y="604" type="curve" smooth="yes"/>
      <point x="261" y="604"/>
      <point x="300" y="566"/>
      <point x="300" y="519" type="curve" smooth="yes"/>
      <point x="300" y="472"/>
      <point x="261" y="433"/>
      <point x="214" y="433" type="curve" smooth="yes"/>
      <point x="167" y="433"/>
      <point x="128" y="472"/>
    </contour>
    <contour>
      <point x="830" y="159" type="curve" smooth="yes"/>
      <point x="830" y="250"/>
      <point x="755" y="325"/>
      <point x="664" y="325" type="curve" smooth="yes"/>
      <point x="572" y="325"/>
      <point x="498" y="250"/>
      <point x="498" y="159" type="curve" smooth="yes"/>
      <point x="498" y="67"/>
      <point x="572" y="-7"/>
      <point x="664" y="-7" type="curve" smooth="yes"/>
      <point x="755" y="-7"/>
      <point x="830" y="67"/>
    </contour>
    <contour>
      <point x="578" y="159" type="curve" smooth="yes"/>
      <point x="578" y="206"/>
      <point x="616" y="244"/>
      <point x="664" y="244" type="curve" smooth="yes"/>
      <point x="711" y="244"/>
      <point x="749" y="206"/>
      <point x="749" y="159" type="curve" smooth="yes"/>
      <point x="749" y="111"/>
      <point x="711" y="73"/>
      <point x="664" y="73" type="curve" smooth="yes"/>
      <point x="616" y="73"/>
      <point x="578" y="111"/>
    </contour>
  </outline>
</glyph>
<glyph name="ampersand" format="1">
  <advance width="713"/>
  <unicode hex="0026"/>
  <outline>
    <contour>
      <point x="710" y="0" type="line"/>
      <point x="341" y="349" type="line"/>
      <point x="265" y="424"/>
      <point x="228" y="467"/>
      <point x="228" y="518" type="curve" smooth="yes"/>
      <point x="228" y="576"/>
      <point x="270" y="606"/>
      <point x="323" y="606" type="curve" smooth="yes"/>
      <point x="390" y="606"/>
      <point x="424" y="564"/>
      <point x="424" y="511" type="curve" smooth="yes"/>
      <point x="424" y="459"/>
      <point x="389" y="417"/>
      <point x="299" y="376" type="curve"/>
      <point x="361" y="322" type="line"/>
      <point x="480" y="376"/>
      <point x="522" y="438"/>
      <point x="522" y="513" type="curve" smooth="yes"/>
      <point x="522" y="615"/>
      <point x="444" y="690"/>
      <point x="324" y="690" type="curve" smooth="yes"/>
      <point x="210" y="690"/>
      <point x="130" y="624"/>
      <point x="130" y="518" type="curve" smooth="yes"/>
      <point x="130" y="433"/>
      <point x="196" y="371"/>
      <point x="274" y="293" type="curve"/>
      <point x="586" y="0" type="line"/>
    </contour>
    <contour>
      <point x="633" y="276" type="curve"/>
      <point x="544" y="276" type="line"/>
      <point x="536" y="142"/>
      <point x="437" y="76"/>
      <point x="320" y="76" type="curve" smooth="yes"/>
      <point x="228" y="76"/>
      <point x="159" y="116"/>
      <point x="159" y="180" type="curve" smooth="yes"/>
      <point x="159" y="236"/>
      <point x="205" y="270"/>
      <point x="299" y="301" type="curve"/>
      <point x="232" y="356" type="line"/>
      <point x="118" y="318"/>
      <point x="61" y="263"/>
      <point x="61" y="178" type="curve" smooth="yes"/>
      <point x="61" y="72"/>
      <point x="162" y="-8"/>
      <point x="321" y="-8" type="curve" smooth="yes"/>
      <point x="512" y="-8"/>
      <point x="624" y="116"/>
    </contour>
  </outline>
</glyph>
<glyph name="quotesingle" format="1">
  <advance width="224"/>
  <unicode hex="0027"/>
  <note>
    quotesingle
  </note>
  <outline>
    <contour>
      <point x="130" y="336" type="line"/>
      <point x="137" y="431" type="line" smooth="yes"/>
      <point x="138" y="445"/>
      <point x="138" y="460"/>
      <point x="135" y="476" type="curve"/>
      <point x="88" y="476" type="line"/>
      <point x="86" y="460"/>
      <point x="86" y="445"/>
      <point x="87" y="431" type="curve" smooth="yes"/>
      <point x="93" y="336" type="line"/>
    </contour>
  </outline>
</glyph>
<glyph name="parenleft" format="1">
  <advance width="256"/>
  <unicode hex="0028"/>
  <note>
    parenleft
  </note>
  <outline>
    <contour>
      <point x="189" y="-64" type="curve"/>
      <point x="189" y="-19" type="line"/>
      <point x="126" y="-19" type="line"/>
      <point x="126" y="462" type="line"/>
      <point x="189" y="462" type="line"/>
      <point x="189" y="508" type="line"/>
      <point x="176" y="512"/>
      <point x="155" y="515"/>
      <point x="133" y="515" type="curve"/>
      <point x="102" y="505"/>
      <point x="75" y="486"/>
      <point x="69" y="460" type="curve"/>
      <point x="69" y="-16" type="line"/>
      <point x="75" y="-42"/>
      <point x="102" y="-61"/>
      <point x="133" y="-70" type="curve"/>
      <point x="155" y="-71"/>
      <point x="176" y="-68"/>
    </contour>
  </outline>
</glyph>
<glyph name="parenright" format="1">
  <advance width="256"/>
  <unicode hex="0029"/>
  <note>
    parenright
  </note>
  <outline>
    <contour>
      <point x="187" y="-16" type="curve"/>
      <point x="187" y="460" type="line"/>
      <point x="181" y="486"/>
      <point x="154" y="505"/>
      <point x="123" y="515" type="curve"/>
      <point x="101" y="515"/>
      <point x="80" y="512"/>
      <point x="67" y="508" type="curve"/>
      <point x="67" y="462" type="line"/>
      <point x="130" y="462" type="line"/>
      <point x="130" y="-19" type="line"/>
      <point x="67" y="-19" type="line"/>
      <point x="67" y="-64" type="line"/>
      <point x="80" y="-68"/>
      <point x="101" y="-71"/>
      <point x="123" y="-70" type="curve"/>
      <point x="154" y="-61"/>
      <point x="181" y="-42"/>
    </contour>
  </outline>
</glyph>
<glyph name="asterisk" format="1">
  <advance width="355"/>
  <unicode hex="002A"/>
  <note>
    asterisk
  </note>
  <outline>
    <contour>
      <point x="176" y="313" type="line"/>
      <point x="179" y="313" type="line"/>
      <point x="234" y="229" type="line"/>
      <point x="271" y="256" type="line"/>
      <point x="207" y="334" type="line"/>
      <point x="208" y="336" type="line"/>
      <point x="298" y="360" type="line"/>
      <point x="283" y="404" type="line"/>
      <point x="196" y="370" type="line"/>
      <point x="195" y="371" type="line"/>
      <point x="202" y="469" type="line"/>
      <point x="153" y="469" type="line"/>
      <point x="160" y="371" type="line"/>
      <point x="159" y="370" type="line"/>
      <point x="73" y="404" type="line"/>
      <point x="58" y="360" type="line"/>
      <point x="147" y="336" type="line"/>
      <point x="148" y="334" type="line"/>
      <point x="84" y="256" type="line"/>
      <point x="122" y="229" type="line"/>
    </contour>
  </outline>
</glyph>
<glyph name="comma" format="1">
  <advance width="185"/>
  <unicode hex="002C"/>
  <note>
    comma
  </note>
  <outline>
    <contour>
      <point x="138" y="16" type="curve" smooth="yes"/>
      <point x="138" y="49"/>
      <point x="121" y="66"/>
      <point x="88" y="66" type="curve" smooth="yes"/>
      <point x="73" y="66"/>
      <point x="59" y="63"/>
      <point x="49" y="59" type="curve"/>
      <point x="49" y="20" type="line"/>
      <point x="88" y="20" type="line"/>
      <point x="87" y="-18"/>
      <point x="79" y="-42"/>
      <point x="64" y="-68" type="curve"/>
      <point x="101" y="-77" type="line"/>
      <point x="124" y="-50"/>
      <point x="138" y="-18"/>
    </contour>
  </outline>
</glyph>
<glyph name="period" format="1">
  <advance width="184"/>
  <unicode hex="002E"/>
  <note>
    period
  </note>
  <outline>
    <contour>
      <point x="126" y="0" type="line"/>
      <point x="126" y="64" type="line"/>
      <point x="58" y="64" type="line"/>
      <point x="58" y="0" type="line"/>
    </contour>
  </outline>
</glyph>
<glyph name="slash" format="1">
  <advance width="355"/>
  <unicode hex="002F"/>
  <note>
    slash
  </note>
  <outline>
    <contour>
      <point x="298" y="468" type="line"/>
      <point x="246" y="481" type="line"/>
      <point x="57" y="-55" type="line"/>
      <point x="109" y="-69" type="line"/>
    </contour>
  </outline>
</glyph>
<glyph name="zero" format="1">
  <advance width="545"/>
  <unicode hex="0030"/>
  <outline>
    <contour>
      <point x="504" y="329" type="curve" smooth="yes"/>
      <point x="504" y="535"/>
      <point x="416" y="663"/>
      <point x="271" y="663" type="curve" smooth="yes"/>
      <point x="130" y="663"/>
      <point x="41" y="535"/>
      <point x="41" y="329" type="curve" smooth="yes"/>
      <point x="41" y="128"/>
      <point x="127" y="-8"/>
      <point x="271" y="-8" type="curve" smooth="yes"/>
      <point x="424" y="-8"/>
      <point x="504" y="131"/>
    </contour>
    <contour>
      <point x="138" y="329" type="curve" smooth="yes"/>
      <point x="138" y="495"/>
      <point x="200" y="575"/>
      <point x="271" y="575" type="curve" smooth="yes"/>
      <point x="347" y="575"/>
      <point x="406" y="495"/>
      <point x="406" y="329" type="curve" smooth="yes"/>
      <point x="406" y="167"/>
      <point x="353" y="80"/>
      <point x="271" y="80" type="curve" smooth="yes"/>
      <point x="196" y="80"/>
      <point x="138" y="167"/>
    </contour>
  </outline>
</glyph>
<glyph name="three" format="1">
  <advance width="470"/>
  <unicode hex="0033"/>
  <outline>
    <contour>
      <point x="423" y="180" type="curve" smooth="yes"/>
      <point x="423" y="280"/>
      <point x="349" y="338"/>
      <point x="243" y="337" type="curve"/>
      <point x="243" y="315" type="line"/>
      <point x="352" y="331"/>
      <point x="406" y="400"/>
      <point x="406" y="487" type="curve" smooth="yes"/>
      <point x="406" y="582"/>
      <point x="333" y="661"/>
      <point x="195" y="661" type="curve" smooth="yes"/>
      <point x="142" y="661"/>
      <point x="88" y="643"/>
      <point x="57" y="625" type="curve"/>
      <point x="57" y="533" type="line"/>
      <point x="92" y="555"/>
      <point x="145" y="574"/>
      <point x="191" y="574" type="curve" smooth="yes"/>
      <point x="261" y="574"/>
      <point x="307" y="544"/>
      <point x="307" y="477" type="curve" smooth="yes"/>
      <point x="307" y="408"/>
      <point x="246" y="372"/>
      <point x="177" y="372" type="curve"/>
      <point x="177" y="291" type="line"/>
      <point x="277" y="291"/>
      <point x="325" y="252"/>
      <point x="325" y="189" type="curve" smooth="yes"/>
      <point x="325" y="127"/>
      <point x="280" y="81"/>
      <point x="198" y="81" type="curve" smooth="yes"/>
      <point x="138" y="81"/>
      <point x="85" y="95"/>
      <point x="36" y="121" type="curve"/>
      <point x="36" y="28" type="line"/>
      <point x="80" y="6"/>
      <point x="148" y="-6"/>
      <point x="202" y="-6" type="curve" smooth="yes"/>
      <point x="347" y="-6"/>
      <point x="423" y="76"/>
    </contour>
    <contour>
      <point x="250" y="291" type="line"/>
      <point x="250" y="372" type="line"/>
      <point x="137" y="372" type="line"/>
      <point x="137" y="291" type="line"/>
    </contour>
  </outline>
</glyph>
<glyph name="four" format="1">
  <advance width="545"/>
  <unicode hex="0034"/>
  <outline>
    <contour>
      <point x="134" y="237" type="line"/>
      <point x="367" y="655" type="line"/>
      <point x="276" y="655" type="line"/>
      <point x="39" y="237" type="line"/>
    </contour>
    <contour>
      <point x="522" y="154" type="line"/>
      <point x="522" y="237" type="line"/>
      <point x="39" y="237" type="line"/>
      <point x="39" y="154" type="line"/>
    </contour>
    <contour>
      <point x="430" y="0" type="line"/>
      <point x="430" y="655" type="line"/>
      <point x="336" y="655" type="line"/>
      <point x="336" y="0" type="line"/>
    </contour>
  </outline>
</glyph>
<glyph name="five" format="1">
  <advance width="507"/>
  <unicode hex="0035"/>
  <outline>
    <contour>
      <point x="465" y="208" type="curve" smooth="yes"/>
      <point x="465" y="328"/>
      <point x="383" y="405"/>
      <point x="248" y="405" type="curve" smooth="yes"/>
      <point x="195" y="405"/>
      <point x="136" y="389"/>
      <point x="84" y="365" type="curve"/>
      <point x="84" y="286" type="line"/>
      <point x="121" y="302"/>
      <point x="178" y="320"/>
      <point x="234" y="320" type="curve" smooth="yes"/>
      <point x="313" y="320"/>
      <point x="367" y="282"/>
      <point x="367" y="210" type="curve" smooth="yes"/>
      <point x="367" y="124"/>
      <point x="313" y="80"/>
      <point x="207" y="80" type="curve" smooth="yes"/>
      <point x="153" y="80"/>
      <point x="92" y="96"/>
      <point x="53" y="119" type="curve"/>
      <point x="53" y="27" type="line"/>
      <point x="102" y="2"/>
      <point x="167" y="-7"/>
      <point x="223" y="-7" type="curve" smooth="yes"/>
      <point x="377" y="-7"/>
      <point x="465" y="79"/>
    </contour>
    <contour>
      <point x="178" y="346" type="line"/>
      <point x="178" y="612" type="line"/>
      <point x="84" y="612" type="line"/>
      <point x="84" y="346" type="line"/>
    </contour>
    <contour>
      <point x="422" y="572" type="line"/>
      <point x="422" y="655" type="line"/>
      <point x="84" y="655" type="line"/>
      <point x="84" y="572" type="line"/>
    </contour>
  </outline>
</glyph>
<glyph name="six" format="1">
  <advance width="529"/>
  <unicode hex="0036"/>
  <outline>
    <contour>
      <point x="495" y="213" type="curve" smooth="yes"/>
      <point x="495" y="338"/>
      <point x="422" y="421"/>
      <point x="302" y="421" type="curve" smooth="yes"/>
      <point x="223" y="421"/>
      <point x="147" y="375"/>
      <point x="113" y="311" type="curve"/>
      <point x="116" y="234" type="line"/>
      <point x="149" y="289"/>
      <point x="210" y="337"/>
      <point x="286" y="337" type="curve" smooth="yes"/>
      <point x="353" y="337"/>
      <point x="397" y="290"/>
      <point x="397" y="213" type="curve" smooth="yes"/>
      <point x="397" y="130"/>
      <point x="354" y="73"/>
      <point x="283" y="73" type="curve" smooth="yes"/>
      <point x="205" y="73"/>
      <point x="144" y="141"/>
      <point x="144" y="297" type="curve" smooth="yes"/>
      <point x="144" y="444"/>
      <point x="212" y="585"/>
      <point x="357" y="585" type="curve" smooth="yes"/>
      <point x="391" y="585"/>
      <point x="421" y="578"/>
      <point x="448" y="565" type="curve"/>
      <point x="448" y="656" type="line"/>
      <point x="421" y="665"/>
      <point x="390" y="671"/>
      <point x="353" y="671" type="curve" smooth="yes"/>
      <point x="163" y="671"/>
      <point x="48" y="510"/>
      <point x="48" y="297" type="curve" smooth="yes"/>
      <point x="48" y="118"/>
      <point x="126" y="-13"/>
      <point x="283" y="-13" type="curve" smooth="yes"/>
      <point x="413" y="-13"/>
      <point x="495" y="81"/>
    </contour>
  </outline>
</glyph>
<glyph name="seven" format="1">
  <advance width="458"/>
  <unicode hex="0037"/>
  <outline>
    <contour>
      <point x="177" y="0" type="line"/>
      <point x="444" y="572" type="line"/>
      <point x="344" y="572" type="line"/>
      <point x="76" y="0" type="line"/>
    </contour>
    <contour>
      <point x="444" y="572" type="line"/>
      <point x="444" y="654" type="line"/>
      <point x="14" y="654" type="line"/>
      <point x="14" y="572" type="line"/>
    </contour>
  </outline>
</glyph>
<glyph name="eight" format="1">
  <advance width="538"/>
  <unicode hex="0038"/>
  <outline>
    <contour>
      <point x="491" y="173" type="curve" smooth="yes"/>
      <point x="491" y="298"/>
      <point x="390" y="345"/>
      <point x="266" y="345" type="curve" smooth="yes"/>
      <point x="143" y="345"/>
      <point x="47" y="285"/>
      <point x="47" y="168" type="curve" smooth="yes"/>
      <point x="47" y="58"/>
      <point x="141" y="-9"/>
      <point x="266" y="-9" type="curve" smooth="yes"/>
      <point x="393" y="-9"/>
      <point x="491" y="62"/>
    </contour>
    <contour>
      <point x="143" y="172" type="curve" smooth="yes"/>
      <point x="143" y="229"/>
      <point x="179" y="284"/>
      <point x="267" y="284" type="curve"/>
      <point x="357" y="285"/>
      <point x="395" y="234"/>
      <point x="395" y="179" type="curve" smooth="yes"/>
      <point x="395" y="124"/>
      <point x="354" y="72"/>
      <point x="267" y="72" type="curve" smooth="yes"/>
      <point x="182" y="72"/>
      <point x="143" y="120"/>
    </contour>
    <contour>
      <point x="154" y="477" type="curve" smooth="yes"/>
      <point x="154" y="531"/>
      <point x="192" y="581"/>
      <point x="266" y="581" type="curve" smooth="yes"/>
      <point x="347" y="581"/>
      <point x="380" y="533"/>
      <point x="380" y="478" type="curve" smooth="yes"/>
      <point x="380" y="407"/>
      <point x="331" y="370"/>
      <point x="269" y="370" type="curve" smooth="yes"/>
      <point x="206" y="370"/>
      <point x="154" y="403"/>
    </contour>
    <contour>
      <point x="476" y="475" type="curve" smooth="yes"/>
      <point x="476" y="604"/>
      <point x="375" y="662"/>
      <point x="266" y="662" type="curve" smooth="yes"/>
      <point x="158" y="662"/>
      <point x="58" y="598"/>
      <point x="58" y="476" type="curve" smooth="yes"/>
      <point x="58" y="371"/>
      <point x="144" y="307"/>
      <point x="266" y="307" type="curve" smooth="yes"/>
      <point x="389" y="307"/>
      <point x="476" y="373"/>
    </contour>
  </outline>
</glyph>
<glyph name="nine" format="1">
  <advance width="511"/>
  <unicode hex="0039"/>
  <outline>
    <contour>
      <point x="470" y="367" type="curve" smooth="yes"/>
      <point x="470" y="531"/>
      <point x="398" y="662"/>
      <point x="243" y="662" type="curve" smooth="yes"/>
      <point x="109" y="662"/>
      <point x="32" y="565"/>
      <point x="32" y="444" type="curve" smooth="yes"/>
      <point x="32" y="312"/>
      <point x="123" y="233"/>
      <point x="228" y="233" type="curve" smooth="yes"/>
      <point x="319" y="233"/>
      <point x="367" y="264"/>
      <point x="402" y="334" type="curve"/>
      <point x="400" y="411" type="line"/>
      <point x="373" y="358"/>
      <point x="328" y="314"/>
      <point x="252" y="314" type="curve" smooth="yes"/>
      <point x="178" y="314"/>
      <point x="130" y="362"/>
      <point x="130" y="445" type="curve" smooth="yes"/>
      <point x="130" y="526"/>
      <point x="176" y="576"/>
      <point x="246" y="576" type="curve" smooth="yes"/>
      <point x="339" y="576"/>
      <point x="376" y="487"/>
      <point x="376" y="367" type="curve" smooth="yes"/>
      <point x="376" y="184"/>
      <point x="317" y="80"/>
      <point x="173" y="80" type="curve" smooth="yes"/>
      <point x="134" y="80"/>
      <point x="97" y="89"/>
      <point x="65" y="103" type="curve"/>
      <point x="65" y="11" type="line"/>
      <point x="98" y="-1"/>
      <point x="136" y="-8"/>
      <point x="179" y="-8" type="curve" smooth="yes"/>
      <point x="370" y="-8"/>
      <point x="470" y="133"/>
    </contour>
  </outline>
</glyph>
<glyph name="colon" format="1">
  <advance width="184"/>
  <unicode hex="003A"/>
  <note>
    colon
  </note>
  <outline>
    <contour>
      <point x="126" y="242" type="line"/>
      <point x="126" y="306" type="line"/>
      <point x="58" y="306" type="line"/>
      <point x="58" y="242" type="line"/>
    </contour>
    <contour>
      <point x="126" y="10" type="line"/>
      <point x="126" y="74" type="line"/>
      <point x="58" y="74" type="line"/>
      <point x="58" y="10" type="line"/>
    </contour>
  </outline>
</glyph>
<glyph name="semicolon" format="1">
  <advance width="205"/>
  <unicode hex="003B"/>
  <note>
    semicolon
  </note>
  <outline>
    <contour>
      <point x="147" y="52" type="curve" smooth="yes"/>
      <point x="147" y="86"/>
      <point x="131" y="102"/>
      <point x="97" y="102" type="curve" smooth="yes"/>
      <point x="83" y="102"/>
      <point x="68" y="100"/>
      <point x="58" y="96" type="curve"/>
      <point x="58" y="56" type="line"/>
      <point x="98" y="56" type="line"/>
      <point x="97" y="19"/>
      <point x="89" y="-4"/>
      <point x="73" y="-31" type="curve"/>
      <point x="110" y="-40" type="line"/>
      <point x="133" y="-13"/>
      <point x="147" y="19"/>
    </contour>
    <contour>
      <point x="134" y="242" type="line"/>
      <point x="134" y="306" type="line"/>
      <point x="65" y="306" type="line"/>
      <point x="65" y="242" type="line"/>
    </contour>
  </outline>
</glyph>
<glyph name="less" format="1">
  <advance width="542"/>
  <unicode hex="003C"/>
  <outline>
    <contour>
      <point x="494" y="206" type="line"/>
      <point x="152" y="341" type="line"/>
      <point x="494" y="475" type="line"/>
      <point x="494" y="572" type="line"/>
      <point x="54" y="386" type="line"/>
      <point x="54" y="295" type="line"/>
      <point x="494" y="109" type="line"/>
    </contour>
  </outline>
</glyph>
<glyph name="equal" format="1">
  <advance width="562"/>
  <unicode hex="003D"/>
  <outline>
    <contour>
      <point x="508" y="404" type="line"/>
      <point x="508" y="485" type="line"/>
      <point x="54" y="485" type="line"/>
      <point x="54" y="404" type="line"/>
    </contour>
    <contour>
      <point x="508" y="195" type="line"/>
      <point x="508" y="277" type="line"/>
      <point x="54" y="277" type="line"/>
      <point x="54" y="195" type="line"/>
    </contour>
  </outline>
</glyph>
<glyph name="greater" format="1">
  <advance width="542"/>
  <unicode hex="003E"/>
  <outline>
    <contour>
      <point x="488" y="295" type="line"/>
      <point x="488" y="386" type="line"/>
      <point x="48" y="572" type="line"/>
      <point x="48" y="475" type="line"/>
      <point x="389" y="341" type="line"/>
      <point x="48" y="206" type="line"/>
      <point x="48" y="109" type="line"/>
    </contour>
  </outline>
</glyph>
<glyph name="question" format="1">
  <advance width="467"/>
  <unicode hex="003F"/>
  <note>
    question
  </note>
  <outline>
    <contour>
      <point x="241" y="114" type="line"/>
      <point x="241" y="155" type="line" smooth="yes"/>
      <point x="241" y="173"/>
      <point x="243" y="179"/>
      <point x="256" y="188" type="curve" smooth="yes"/>
      <point x="334" y="244" type="line" smooth="yes"/>
      <point x="368" y="270"/>
      <point x="376" y="296"/>
      <point x="376" y="337" type="curve" smooth="yes"/>
      <point x="376" y="414"/>
      <point x="332" y="453"/>
      <point x="237" y="453" type="curve" smooth="yes"/>
      <point x="176" y="453"/>
      <point x="123" y="438"/>
      <point x="90" y="422" type="curve"/>
      <point x="90" y="406" type="line" smooth="yes"/>
      <point x="90" y="384"/>
      <point x="93" y="359"/>
      <point x="99" y="339" type="curve"/>
      <point x="145" y="339" type="line"/>
      <point x="145" y="387" type="line"/>
      <point x="174" y="395"/>
      <point x="203" y="399"/>
      <point x="236" y="399" type="curve" smooth="yes"/>
      <point x="294" y="399"/>
      <point x="319" y="382"/>
      <point x="319" y="334" type="curve" smooth="yes"/>
      <point x="319" y="294" type="line"/>
      <point x="207" y="212" type="line" smooth="yes"/>
      <point x="190" y="200"/>
      <point x="184" y="190"/>
      <point x="184" y="169" type="curve" smooth="yes"/>
      <point x="184" y="114" type="line"/>
    </contour>
    <contour>
      <point x="243" y="0" type="line"/>
      <point x="243" y="68" type="line"/>
      <point x="183" y="68" type="line"/>
      <point x="183" y="0" type="line"/>
    </contour>
  </outline>
</glyph>
<glyph name="at" format="1">
  <advance width="922"/>
  <unicode hex="0040"/>
  <outline>
    <contour>
      <point x="608" y="-144" type="curve"/>
      <point x="612" y="-56" type="line"/>
      <point x="552" y="-88"/>
      <point x="488" y="-99"/>
      <point x="428" y="-99" type="curve" smooth="yes"/>
      <point x="280" y="-99"/>
      <point x="143" y="-1"/>
      <point x="143" y="196" type="curve" smooth="yes"/>
      <point x="143" y="394"/>
      <point x="301" y="548"/>
      <point x="495" y="548" type="curve" smooth="yes"/>
      <point x="662" y="548"/>
      <point x="796" y="452"/>
      <point x="796" y="261" type="curve" smooth="yes"/>
      <point x="796" y="159"/>
      <point x="754" y="91"/>
      <point x="699" y="91" type="curve" smooth="yes"/>
      <point x="654" y="91"/>
      <point x="636" y="126"/>
      <point x="636" y="195" type="curve" smooth="yes"/>
      <point x="636" y="215"/>
      <point x="638" y="249"/>
      <point x="643" y="308" type="curve" smooth="yes"/>
      <point x="654" y="417" type="line"/>
      <point x="576" y="417" type="line"/>
      <point x="570" y="306"/>
      <point x="561" y="235"/>
      <point x="561" y="168" type="curve" smooth="yes"/>
      <point x="561" y="116"/>
      <point x="579" y="16"/>
      <point x="695" y="16" type="curve" smooth="yes"/>
      <point x="785" y="16"/>
      <point x="878" y="104"/>
      <point x="878" y="267" type="curve" smooth="yes"/>
      <point x="878" y="491"/>
      <point x="703" y="627"/>
      <point x="498" y="627" type="curve" smooth="yes"/>
      <point x="256" y="627"/>
      <point x="55" y="444"/>
      <point x="55" y="197" type="curve" smooth="yes"/>
      <point x="55" y="-13"/>
      <point x="191" y="-179"/>
      <point x="427" y="-179" type="curve" smooth="yes"/>
      <point x="481" y="-179"/>
      <point x="552" y="-171"/>
    </contour>
    <contour>
      <point x="588" y="156" type="curve"/>
      <point x="565" y="207" type="line"/>
      <point x="548" y="129"/>
      <point x="492" y="88"/>
      <point x="440" y="88" type="curve" smooth="yes"/>
      <point x="386" y="88"/>
      <point x="345" y="132"/>
      <point x="345" y="200" type="curve" smooth="yes"/>
      <point x="345" y="284"/>
      <point x="394" y="347"/>
      <point x="461" y="347" type="curve" smooth="yes"/>
      <point x="527" y="347"/>
      <point x="560" y="303"/>
      <point x="566" y="227" type="curve"/>
      <point x="600" y="271" type="line"/>
      <point x="584" y="367"/>
      <point x="536" y="422"/>
      <point x="453" y="422" type="curve" smooth="yes"/>
      <point x="344" y="422"/>
      <point x="257" y="330"/>
      <point x="257" y="205" type="curve" smooth="yes"/>
      <point x="257" y="100"/>
      <point x="317" y="14"/>
      <point x="420" y="14" type="curve" smooth="yes"/>
      <point x="501" y="14"/>
      <point x="563" y="67"/>
    </contour>
  </outline>
</glyph>
<glyph name="A" format="1">
  <advance width="658"/>
  <unicode hex="0041"/>
  <outline>
    <contour>
      <point x="137" y="0" type="line"/>
      <point x="230" y="285" type="line" smooth="yes"/>
      <point x="319" y="553"/>
      <point x="330" y="598"/>
      <point x="330" y="598" type="curve"/>
      <point x="330" y="598"/>
      <point x="340" y="553"/>
      <point x="428" y="285" type="curve" smooth="yes"/>
      <point x="520" y="0" type="line"/>
      <point x="626" y="0" type="line"/>
      <point x="396" y="674" type="line"/>
      <point x="265" y="674" type="line"/>
      <point x="32" y="0" type="line"/>
    </contour>
    <contour>
      <point x="503" y="167" type="line"/>
      <point x="503" y="250" type="line"/>
      <point x="161" y="250" type="line"/>
      <point x="161" y="167" type="line"/>
    </contour>
  </outline>
</glyph>
<glyph name="B" format="1">
  <advance width="579"/>
  <unicode hex="0042"/>
  <outline>
    <contour>
      <point x="173" y="0" type="line"/>
      <point x="173" y="674" type="line"/>
      <point x="74" y="674" type="line"/>
      <point x="74" y="0" type="line"/>
    </contour>
    <contour>
      <point x="331" y="0" type="line" smooth="yes"/>
      <point x="466" y="0"/>
      <point x="538" y="77"/>
      <point x="538" y="181" type="curve" smooth="yes"/>
      <point x="538" y="281"/>
      <point x="473" y="330"/>
      <point x="407" y="342" type="curve"/>
      <point x="472" y="358"/>
      <point x="520" y="418"/>
      <point x="520" y="495" type="curve" smooth="yes"/>
      <point x="520" y="602"/>
      <point x="434" y="674"/>
      <point x="292" y="674" type="curve" smooth="yes"/>
      <point x="74" y="674" type="line"/>
      <point x="74" y="592" type="line"/>
      <point x="285" y="592" type="line" smooth="yes"/>
      <point x="378" y="592"/>
      <point x="418" y="548"/>
      <point x="418" y="493" type="curve" smooth="yes"/>
      <point x="418" y="432"/>
      <point x="376" y="381"/>
      <point x="268" y="381" type="curve" smooth="yes"/>
      <point x="74" y="381" type="line"/>
      <point x="74" y="299" type="line"/>
      <point x="297" y="299" type="line" smooth="yes"/>
      <point x="391" y="299"/>
      <point x="437" y="257"/>
      <point x="437" y="189" type="curve" smooth="yes"/>
      <point x="437" y="119"/>
      <point x="391" y="82"/>
      <point x="308" y="82" type="curve"/>
      <point x="74" y="82" type="line"/>
      <point x="74" y="0" type="line"/>
    </contour>
  </outline>
</glyph>
<glyph name="C" format="1">
  <advance width="605"/>
  <unicode hex="0043"/>
  <outline>
    <contour>
      <point x="561" y="33" type="curve"/>
      <point x="561" y="134" type="line"/>
      <point x="520" y="103"/>
      <point x="458" y="84"/>
      <point x="397" y="84" type="curve" smooth="yes"/>
      <point x="251" y="84"/>
      <point x="150" y="182"/>
      <point x="150" y="339" type="curve" smooth="yes"/>
      <point x="150" y="494"/>
      <point x="257" y="592"/>
      <point x="389" y="592" type="curve" smooth="yes"/>
      <point x="466" y="592"/>
      <point x="505" y="578"/>
      <point x="559" y="548" type="curve"/>
      <point x="559" y="646" type="line"/>
      <point x="509" y="674"/>
      <point x="450" y="683"/>
      <point x="387" y="683" type="curve" smooth="yes"/>
      <point x="192" y="683"/>
      <point x="46" y="544"/>
      <point x="46" y="339" type="curve" smooth="yes"/>
      <point x="46" y="124"/>
      <point x="191" y="-8"/>
      <point x="389" y="-8" type="curve" smooth="yes"/>
      <point x="447" y="-8"/>
      <point x="515" y="3"/>
    </contour>
  </outline>
</glyph>
<glyph name="D" format="1">
  <advance width="666"/>
  <unicode hex="0044"/>
  <outline>
    <contour>
      <point x="284" y="0" type="line"/>
      <point x="503" y="0"/>
      <point x="623" y="152"/>
      <point x="623" y="344" type="curve" smooth="yes"/>
      <point x="623" y="537"/>
      <point x="482" y="674"/>
      <point x="282" y="674" type="curve"/>
      <point x="74" y="674" type="line"/>
      <point x="74" y="589" type="line"/>
      <point x="280" y="589" type="line"/>
      <point x="429" y="589"/>
      <point x="522" y="480"/>
      <point x="522" y="344" type="curve" smooth="yes"/>
      <point x="522" y="202"/>
      <point x="447" y="85"/>
      <point x="283" y="85" type="curve"/>
      <point x="74" y="85" type="line"/>
      <point x="74" y="0" type="line"/>
    </contour>
    <contour>
      <point x="174" y="0" type="line"/>
      <point x="174" y="674" type="line"/>
      <point x="74" y="674" type="line"/>
      <point x="74" y="0" type="line"/>
    </contour>
  </outline>
</glyph>
<glyph name="E" format="1">
  <advance width="512"/>
  <unicode hex="0045"/>
  <outline>
    <contour>
      <point x="173" y="0" type="line"/>
      <point x="173" y="674" type="line"/>
      <point x="74" y="674" type="line"/>
      <point x="74" y="0" type="line"/>
    </contour>
    <contour>
      <point x="461" y="0" type="line"/>
      <point x="461" y="83" type="line"/>
      <point x="102" y="83" type="line"/>
      <point x="102" y="0" type="line"/>
    </contour>
    <contour>
      <point x="423" y="295" type="line"/>
      <point x="423" y="378" type="line"/>
      <point x="102" y="378" type="line"/>
      <point x="102" y="295" type="line"/>
    </contour>
    <contour>
      <point x="455" y="591" type="line"/>
      <point x="455" y="674" type="line"/>
      <point x="102" y="674" type="line"/>
      <point x="102" y="591" type="line"/>
    </contour>
  </outline>
</glyph>
<glyph name="F" format="1">
  <advance width="493"/>
  <unicode hex="0046"/>
  <outline>
    <contour>
      <point x="173" y="0" type="line"/>
      <point x="173" y="674" type="line"/>
      <point x="74" y="674" type="line"/>
      <point x="74" y="0" type="line"/>
    </contour>
    <contour>
      <point x="420" y="283" type="line"/>
      <point x="420" y="367" type="line"/>
      <point x="102" y="367" type="line"/>
      <point x="102" y="283" type="line"/>
    </contour>
    <contour>
      <point x="454" y="591" type="line"/>
      <point x="454" y="674" type="line"/>
      <point x="102" y="674" type="line"/>
      <point x="102" y="591" type="line"/>
    </contour>
  </outline>
</glyph>
<glyph name="H" format="1">
  <advance width="654"/>
  <unicode hex="0048"/>
  <outline>
    <contour>
      <point x="580" y="0" type="line"/>
      <point x="580" y="674" type="line"/>
      <point x="480" y="674" type="line"/>
      <point x="480" y="0" type="line"/>
    </contour>
    <contour>
      <point x="173" y="0" type="line"/>
      <point x="173" y="674" type="line"/>
      <point x="74" y="674" type="line"/>
      <point x="74" y="0" type="line"/>
    </contour>
    <contour>
      <point x="516" y="297" type="line"/>
      <point x="516" y="383" type="line"/>
      <point x="130" y="383" type="line"/>
      <point x="130" y="297" type="line"/>
    </contour>
  </outline>
</glyph>
<glyph name="I" format="1">
  <advance width="261"/>
  <unicode hex="0049"/>
  <outline>
    <contour>
      <point x="180" y="0" type="line"/>
      <point x="180" y="674" type="line"/>
      <point x="81" y="674" type="line"/>
      <point x="81" y="0" type="line"/>
    </contour>
  </outline>
</glyph>
<glyph name="J" format="1">
  <advance width="366"/>
  <unicode hex="004A"/>
  <outline>
    <contour>
      <point x="294" y="181" type="curve"/>
      <point x="294" y="674" type="line"/>
      <point x="195" y="674" type="line"/>
      <point x="195" y="176" type="line" smooth="yes"/>
      <point x="195" y="115"/>
      <point x="166" y="88"/>
      <point x="112" y="88" type="curve" smooth="yes"/>
      <point x="82" y="88"/>
      <point x="53" y="99"/>
      <point x="30" y="114" type="curve"/>
      <point x="30" y="21" type="line"/>
      <point x="55" y="7"/>
      <point x="96" y="0"/>
      <point x="128" y="0" type="curve" smooth="yes"/>
      <point x="223" y="0"/>
      <point x="294" y="50"/>
    </contour>
  </outline>
</glyph>
<glyph name="K" format="1">
  <advance width="594"/>
  <unicode hex="004B"/>
  <outline>
    <contour>
      <point x="569" y="0" type="line"/>
      <point x="306" y="334" type="line"/>
      <point x="186" y="333" type="line"/>
      <point x="443" y="0" type="line"/>
    </contour>
    <contour>
      <point x="173" y="0" type="line"/>
      <point x="173" y="674" type="line"/>
      <point x="74" y="674" type="line"/>
      <point x="74" y="0" type="line"/>
    </contour>
    <contour>
      <point x="306" y="334" type="line"/>
      <point x="554" y="674" type="line"/>
      <point x="434" y="674" type="line"/>
      <point x="186" y="333" type="line"/>
    </contour>
  </outline>
</glyph>
<glyph name="M" format="1">
  <advance width="866"/>
  <unicode hex="004D"/>
  <outline>
    <contour>
      <point x="164" y="0" type="line"/>
      <point x="184" y="265" type="line" smooth="yes"/>
      <point x="193" y="393"/>
      <point x="200" y="512"/>
      <point x="200" y="535" type="curve"/>
      <point x="200" y="535"/>
      <point x="237" y="421"/>
      <point x="293" y="265" type="curve" smooth="yes"/>
      <point x="383" y="13" type="line"/>
      <point x="464" y="13" type="line"/>
      <point x="557" y="265" type="line" smooth="yes"/>
      <point x="611" y="409"/>
      <point x="658" y="539"/>
      <point x="658" y="539" type="curve"/>
      <point x="658" y="539"/>
      <point x="666" y="409"/>
      <point x="679" y="265" type="curve" smooth="yes"/>
      <point x="703" y="0" type="line"/>
      <point x="802" y="0" type="line"/>
      <point x="739" y="674" type="line"/>
      <point x="621" y="674" type="line"/>
      <point x="528" y="428" type="line" smooth="yes"/>
      <point x="472" y="281"/>
      <point x="424" y="141"/>
      <point x="424" y="141" type="curve"/>
      <point x="424" y="141"/>
      <point x="378" y="285"/>
      <point x="325" y="428" type="curve" smooth="yes"/>
      <point x="235" y="674" type="line"/>
      <point x="116" y="674" type="line"/>
      <point x="65" y="0" type="line"/>
    </contour>
  </outline>
</glyph>
<glyph name="N" format="1">
  <advance width="679"/>
  <unicode hex="004E"/>
  <outline>
    <contour>
      <point x="173" y="0" type="line"/>
      <point x="173" y="283" type="line" smooth="yes"/>
      <point x="173" y="455"/>
      <point x="166" y="556"/>
      <point x="166" y="556" type="curve"/>
      <point x="166" y="556"/>
      <point x="215" y="456"/>
      <point x="319" y="281" type="curve" smooth="yes"/>
      <point x="486" y="0" type="line"/>
      <point x="605" y="0" type="line"/>
      <point x="605" y="674" type="line"/>
      <point x="506" y="674" type="line"/>
      <point x="506" y="391" type="line" smooth="yes"/>
      <point x="506" y="212"/>
      <point x="511" y="120"/>
      <point x="511" y="120" type="curve"/>
      <point x="511" y="120"/>
      <point x="465" y="211"/>
      <point x="359" y="391" type="curve" smooth="yes"/>
      <point x="193" y="674" type="line"/>
      <point x="74" y="674" type="line"/>
      <point x="74" y="0" type="line"/>
    </contour>
  </outline>
</glyph>
<glyph name="P" format="1">
  <advance width="549"/>
  <unicode hex="0050"/>
  <outline>
    <contour>
      <point x="271" y="241" type="line"/>
      <point x="416" y="241"/>
      <point x="516" y="329"/>
      <point x="516" y="455" type="curve"/>
      <point x="516" y="582"/>
      <point x="421" y="674"/>
      <point x="264" y="674" type="curve" smooth="yes"/>
      <point x="74" y="674" type="line"/>
      <point x="74" y="592" type="line"/>
      <point x="261" y="592" type="line" smooth="yes"/>
      <point x="363" y="592"/>
      <point x="416" y="537"/>
      <point x="416" y="455" type="curve" smooth="yes"/>
      <point x="416" y="380"/>
      <point x="365" y="323"/>
      <point x="264" y="323" type="curve" smooth="yes"/>
      <point x="74" y="323" type="line"/>
      <point x="74" y="241" type="line"/>
    </contour>
    <contour>
      <point x="173" y="0" type="line"/>
      <point x="173" y="674" type="line"/>
      <point x="74" y="674" type="line"/>
      <point x="74" y="0" type="line"/>
    </contour>
  </outline>
</glyph>
<glyph name="Q" format="1">
  <advance width="717"/>
  <unicode hex="0051"/>
  <outline>
    <contour>
      <point x="663" y="340" type="curve" smooth="yes"/>
      <point x="663" y="550"/>
      <point x="547" y="687"/>
      <point x="354" y="687" type="curve" smooth="yes"/>
      <point x="166" y="687"/>
      <point x="46" y="549"/>
      <point x="46" y="340" type="curve" smooth="yes"/>
      <point x="46" y="130"/>
      <point x="168" y="-8"/>
      <point x="355" y="-8" type="curve" smooth="yes"/>
      <point x="545" y="-8"/>
      <point x="663" y="130"/>
    </contour>
    <contour>
      <point x="696" y="-100" type="line"/>
      <point x="444" y="52" type="line"/>
      <point x="346" y="23" type="line"/>
      <point x="587" y="-144" type="line"/>
    </contour>
    <contour>
      <point x="150" y="340" type="curve" smooth="yes"/>
      <point x="150" y="497"/>
      <point x="227" y="595"/>
      <point x="354" y="595" type="curve" smooth="yes"/>
      <point x="484" y="595"/>
      <point x="559" y="497"/>
      <point x="559" y="340" type="curve" smooth="yes"/>
      <point x="559" y="182"/>
      <point x="484" y="84"/>
      <point x="355" y="84" type="curve" smooth="yes"/>
      <point x="231" y="84"/>
      <point x="150" y="182"/>
    </contour>
  </outline>
</glyph>
<glyph name="S" format="1">
  <advance width="522"/>
  <unicode hex="0053"/>
  <outline>
    <contour>
      <point x="471" y="183" type="curve" smooth="yes"/>
      <point x="471" y="300"/>
      <point x="377" y="344"/>
      <point x="292" y="381" type="curve" smooth="yes"/>
      <point x="224" y="410"/>
      <point x="165" y="438"/>
      <point x="165" y="498" type="curve" smooth="yes"/>
      <point x="165" y="553"/>
      <point x="209" y="590"/>
      <point x="285" y="590" type="curve" smooth="yes"/>
      <point x="338" y="590"/>
      <point x="397" y="573"/>
      <point x="435" y="549" type="curve"/>
      <point x="435" y="648" type="line"/>
      <point x="390" y="670"/>
      <point x="332" y="679"/>
      <point x="282" y="679" type="curve" smooth="yes"/>
      <point x="155" y="679"/>
      <point x="59" y="611"/>
      <point x="59" y="494" type="curve" smooth="yes"/>
      <point x="59" y="375"/>
      <point x="158" y="334"/>
      <point x="242" y="295" type="curve" smooth="yes"/>
      <point x="311" y="264"/>
      <point x="367" y="238"/>
      <point x="367" y="180" type="curve" smooth="yes"/>
      <point x="367" y="116"/>
      <point x="319" y="81"/>
      <point x="245" y="81" type="curve" smooth="yes"/>
      <point x="180" y="81"/>
      <point x="113" y="102"/>
      <point x="63" y="139" type="curve"/>
      <point x="63" y="36" type="line"/>
      <point x="112" y="7"/>
      <point x="181" y="-7"/>
      <point x="247" y="-7" type="curve" smooth="yes"/>
      <point x="376" y="-7"/>
      <point x="471" y="61"/>
    </contour>
  </outline>
</glyph>
<glyph name="T" format="1">
  <advance width="497"/>
  <unicode hex="0054"/>
  <outline>
    <contour>
      <point x="298" y="0" type="line"/>
      <point x="298" y="666" type="line"/>
      <point x="199" y="666" type="line"/>
      <point x="199" y="0" type="line"/>
    </contour>
    <contour>
      <point x="476" y="590" type="line"/>
      <point x="476" y="674" type="line"/>
      <point x="21" y="674" type="line"/>
      <point x="21" y="590" type="line"/>
    </contour>
  </outline>
</glyph>
<glyph name="U" format="1">
  <advance width="651"/>
  <unicode hex="0055"/>
  <outline>
    <contour>
      <point x="579" y="257" type="curve" smooth="yes"/>
      <point x="579" y="674" type="line"/>
      <point x="480" y="674" type="line"/>
      <point x="480" y="256" type="line"/>
      <point x="480" y="127"/>
      <point x="414" y="83"/>
      <point x="324" y="83" type="curve" smooth="yes"/>
      <point x="239" y="83"/>
      <point x="171" y="127"/>
      <point x="171" y="251" type="curve" smooth="yes"/>
      <point x="171" y="674" type="line"/>
      <point x="72" y="674" type="line"/>
      <point x="72" y="250" type="line" smooth="yes"/>
      <point x="72" y="79"/>
      <point x="171" y="-9"/>
      <point x="324" y="-9" type="curve" smooth="yes"/>
      <point x="480" y="-9"/>
      <point x="579" y="80"/>
    </contour>
  </outline>
</glyph>
<glyph name="V" format="1">
  <advance width="642"/>
  <unicode hex="0056"/>
  <outline>
    <contour>
      <point x="378" y="0" type="line"/>
      <point x="611" y="674" type="line"/>
      <point x="505" y="674" type="line"/>
      <point x="417" y="406" type="line" smooth="yes"/>
      <point x="353" y="209"/>
      <point x="319" y="89"/>
      <point x="319" y="89" type="curve"/>
      <point x="319" y="89"/>
      <point x="287" y="209"/>
      <point x="224" y="406" type="curve" smooth="yes"/>
      <point x="138" y="674" type="line"/>
      <point x="32" y="674" type="line"/>
      <point x="259" y="0" type="line"/>
    </contour>
  </outline>
</glyph>
<glyph name="W" format="1">
  <advance width="946"/>
  <unicode hex="0057"/>
  <outline>
    <contour>
      <point x="329" y="0" type="line"/>
      <point x="391" y="213" type="line" smooth="yes"/>
      <point x="453" y="421"/>
      <point x="477" y="520"/>
      <point x="477" y="520" type="curve"/>
      <point x="477" y="520"/>
      <point x="504" y="421"/>
      <point x="567" y="213" type="curve" smooth="yes"/>
      <point x="631" y="0" type="line"/>
      <point x="750" y="0" type="line"/>
      <point x="914" y="674" type="line"/>
      <point x="814" y="674" type="line"/>
      <point x="756" y="424" type="line" smooth="yes"/>
      <point x="724" y="292"/>
      <point x="686" y="103"/>
      <point x="686" y="103" type="curve"/>
      <point x="686" y="103"/>
      <point x="629" y="298"/>
      <point x="592" y="424" type="curve" smooth="yes"/>
      <point x="521" y="664" type="line"/>
      <point x="432" y="664" type="line"/>
      <point x="363" y="425" type="line" smooth="yes"/>
      <point x="321" y="280"/>
      <point x="274" y="105"/>
      <point x="274" y="105" type="curve"/>
      <point x="274" y="105"/>
      <point x="229" y="302"/>
      <point x="198" y="425" type="curve" smooth="yes"/>
      <point x="135" y="674" type="line"/>
      <point x="32" y="674" type="line"/>
      <point x="209" y="0" type="line"/>
    </contour>
  </outline>
</glyph>
<glyph name="X" format="1">
  <advance width="625"/>
  <unicode hex="0058"/>
  <outline>
    <contour>
      <point x="154" y="0" type="line"/>
      <point x="309" y="256" type="line"/>
      <point x="473" y="0" type="line"/>
      <point x="589" y="0" type="line"/>
      <point x="365" y="340" type="line"/>
      <point x="569" y="674" type="line"/>
      <point x="451" y="674" type="line"/>
      <point x="308" y="428" type="line"/>
      <point x="163" y="674" type="line"/>
      <point x="48" y="674" type="line"/>
      <point x="252" y="341" type="line"/>
      <point x="36" y="0" type="line"/>
    </contour>
  </outline>
</glyph>
<glyph name="Y" format="1">
  <advance width="605"/>
  <unicode hex="0059"/>
  <outline>
    <contour>
      <point x="344" y="237" type="line"/>
      <point x="582" y="674" type="line"/>
      <point x="468" y="674" type="line"/>
      <point x="418" y="575" type="line" smooth="yes"/>
      <point x="310" y="362"/>
      <point x="301" y="333"/>
      <point x="301" y="333" type="curve"/>
      <point x="301" y="333"/>
      <point x="291" y="362"/>
      <point x="186" y="575" type="curve" smooth="yes"/>
      <point x="138" y="674" type="line"/>
      <point x="23" y="674" type="line"/>
      <point x="259" y="237" type="line"/>
    </contour>
    <contour>
      <point x="351" y="0" type="line"/>
      <point x="351" y="264" type="line"/>
      <point x="252" y="264" type="line"/>
      <point x="252" y="0" type="line"/>
    </contour>
  </outline>
</glyph>
<glyph name="Z" format="1">
  <advance width="581"/>
  <unicode hex="005A"/>
  <outline>
    <contour>
      <point x="527" y="0" type="line"/>
      <point x="527" y="83" type="line"/>
      <point x="170" y="83" type="line"/>
      <point x="514" y="597" type="line"/>
      <point x="514" y="674" type="line"/>
      <point x="59" y="674" type="line"/>
      <point x="59" y="591" type="line"/>
      <point x="397" y="591" type="line"/>
      <point x="54" y="78" type="line"/>
      <point x="54" y="0" type="line"/>
    </contour>
  </outline>
</glyph>
<glyph name="bracketleft" format="1">
  <advance width="216"/>
  <unicode hex="005B"/>
  <note>
    bracketleft
  </note>
  <outline>
    <contour>
      <point x="160" y="-62" type="line"/>
      <point x="160" y="-9" type="line"/>
      <point x="114" y="-9" type="line"/>
      <point x="114" y="459" type="line"/>
      <point x="160" y="459" type="line"/>
      <point x="160" y="513" type="line"/>
      <point x="58" y="513" type="line"/>
      <point x="58" y="-62" type="line"/>
    </contour>
  </outline>
</glyph>
<glyph name="backslash" format="1">
  <advance width="319"/>
  <unicode hex="005C"/>
  <note>
    backslash
  </note>
  <outline>
    <contour>
      <point x="273" y="-1" type="line"/>
      <point x="96" y="461" type="line"/>
      <point x="46" y="449" type="line"/>
      <point x="222" y="-14" type="line"/>
    </contour>
  </outline>
</glyph>
<glyph name="bracketright" format="1">
  <advance width="216"/>
  <unicode hex="005D"/>
  <note>
    bracketright
  </note>
  <outline>
    <contour>
      <point x="158" y="-62" type="line"/>
      <point x="158" y="513" type="line"/>
      <point x="56" y="513" type="line"/>
      <point x="56" y="459" type="line"/>
      <point x="101" y="459" type="line"/>
      <point x="101" y="-9" type="line"/>
      <point x="56" y="-9" type="line"/>
      <point x="56" y="-62" type="line"/>
    </contour>
  </outline>
</glyph>
<glyph name="asciicircum" format="1">
  <advance width="468"/>
  <unicode hex="005E"/>
  <outline>
    <contour>
      <point x="134" y="332" type="line"/>
      <point x="271" y="594" type="line"/>
      <point x="186" y="594" type="line"/>
      <point x="42" y="332" type="line"/>
    </contour>
    <contour>
      <point x="426" y="332" type="line"/>
      <point x="285" y="594" type="line"/>
      <point x="200" y="594" type="line"/>
      <point x="334" y="332" type="line"/>
    </contour>
  </outline>
</glyph>
<glyph name="grave" format="1">
  <advance width="440"/>
  <unicode hex="0060"/>
  <outline>
    <contour>
      <point x="322" y="637" type="line"/>
      <point x="227" y="798" type="line"/>
      <point x="120" y="798" type="line"/>
      <point x="241" y="637" type="line"/>
    </contour>
  </outline>
</glyph>
<glyph name="a" format="1">
  <advance width="498"/>
  <unicode hex="0061"/>
  <outline>
    <contour>
      <point x="340" y="60" type="curve"/>
      <point x="340" y="0" type="line"/>
      <point x="434" y="0" type="line"/>
      <point x="434" y="322" type="line" smooth="yes"/>
      <point x="434" y="448"/>
      <point x="374" y="515"/>
      <point x="237" y="515" type="curve" smooth="yes"/>
      <point x="175" y="515"/>
      <point x="115" y="500"/>
      <point x="82" y="481" type="curve"/>
      <point x="82" y="389" type="line"/>
      <point x="120" y="414"/>
      <point x="176" y="433"/>
      <point x="228" y="433" type="curve" smooth="yes"/>
      <point x="311" y="433"/>
      <point x="337" y="392"/>
      <point x="337" y="325" type="curve" smooth="yes"/>
      <point x="337" y="169" type="line"/>
      <point x="337" y="112"/>
      <point x="298" y="71"/>
      <point x="232" y="71" type="curve" smooth="yes"/>
      <point x="172" y="71"/>
      <point x="144" y="102"/>
      <point x="144" y="147" type="curve" smooth="yes"/>
      <point x="144" y="191"/>
      <point x="179" y="228"/>
      <point x="259" y="228" type="curve" smooth="yes"/>
      <point x="351" y="228" type="line"/>
      <point x="351" y="297" type="line"/>
      <point x="252" y="297" type="line" smooth="yes"/>
      <point x="122" y="297"/>
      <point x="44" y="240"/>
      <point x="44" y="143" type="curve" smooth="yes"/>
      <point x="44" y="59"/>
      <point x="105" y="-4"/>
      <point x="202" y="-4" type="curve" smooth="yes"/>
      <point x="283" y="-4"/>
      <point x="324" y="32"/>
    </contour>
  </outline>
</glyph>
<glyph name="b" format="1">
  <advance width="580"/>
  <unicode hex="0062"/>
  <outline>
    <contour>
      <point x="167" y="0" type="line"/>
      <point x="167" y="707" type="line"/>
      <point x="72" y="707" type="line"/>
      <point x="72" y="0" type="line"/>
    </contour>
    <contour>
      <point x="539" y="251" type="curve" smooth="yes"/>
      <point x="539" y="411"/>
      <point x="446" y="514"/>
      <point x="320" y="514" type="curve" smooth="yes"/>
      <point x="200" y="514"/>
      <point x="123" y="412"/>
      <point x="123" y="257" type="curve" smooth="yes"/>
      <point x="123" y="111"/>
      <point x="186" y="-7"/>
      <point x="322" y="-7" type="curve" smooth="yes"/>
      <point x="462" y="-7"/>
      <point x="539" y="115"/>
    </contour>
    <contour>
      <point x="167" y="257" type="curve" smooth="yes"/>
      <point x="167" y="388"/>
      <point x="247" y="431"/>
      <point x="304" y="431" type="curve" smooth="yes"/>
      <point x="379" y="431"/>
      <point x="441" y="370"/>
      <point x="441" y="249" type="curve" smooth="yes"/>
      <point x="441" y="145"/>
      <point x="383" y="76"/>
      <point x="307" y="76" type="curve" smooth="yes"/>
      <point x="237" y="76"/>
      <point x="167" y="125"/>
    </contour>
  </outline>
</glyph>
<glyph name="c" format="1">
  <advance width="471"/>
  <unicode hex="0063"/>
  <outline>
    <contour>
      <point x="426" y="20" type="curve"/>
      <point x="426" y="106" type="line"/>
      <point x="397" y="86"/>
      <point x="354" y="73"/>
      <point x="315" y="73" type="curve" smooth="yes"/>
      <point x="201" y="73"/>
      <point x="141" y="152"/>
      <point x="139" y="251" type="curve" smooth="yes"/>
      <point x="139" y="354"/>
      <point x="207" y="432"/>
      <point x="316" y="432" type="curve" smooth="yes"/>
      <point x="348" y="432"/>
      <point x="394" y="421"/>
      <point x="426" y="401" type="curve"/>
      <point x="426" y="488" type="line"/>
      <point x="386" y="509"/>
      <point x="339" y="516"/>
      <point x="306" y="516" type="curve" smooth="yes"/>
      <point x="136" y="516"/>
      <point x="42" y="390"/>
      <point x="41" y="252" type="curve" smooth="yes"/>
      <point x="41" y="109"/>
      <point x="139" y="-10"/>
      <point x="302" y="-10" type="curve" smooth="yes"/>
      <point x="345" y="-10"/>
      <point x="395" y="1"/>
    </contour>
  </outline>
</glyph>
<glyph name="e" format="1">
  <advance width="525"/>
  <unicode hex="0065"/>
  <outline>
    <contour>
      <point x="447" y="27" type="curve"/>
      <point x="447" y="113" type="line"/>
      <point x="412" y="89"/>
      <point x="359" y="75"/>
      <point x="311" y="75" type="curve" smooth="yes"/>
      <point x="205" y="75"/>
      <point x="134" y="137"/>
      <point x="134" y="252" type="curve" smooth="yes"/>
      <point x="134" y="375"/>
      <point x="196" y="434"/>
      <point x="270" y="434" type="curve" smooth="yes"/>
      <point x="344" y="434"/>
      <point x="384" y="383"/>
      <point x="386" y="308" type="curve" smooth="yes"/>
      <point x="386" y="289" type="line"/>
      <point x="102" y="289" type="line"/>
      <point x="102" y="214" type="line"/>
      <point x="473" y="214" type="line"/>
      <point x="476" y="231"/>
      <point x="478" y="263"/>
      <point x="478" y="278" type="curve" smooth="yes"/>
      <point x="478" y="433"/>
      <point x="393" y="513"/>
      <point x="268" y="513" type="curve" smooth="yes"/>
      <point x="140" y="513"/>
      <point x="41" y="418"/>
      <point x="41" y="252" type="curve" smooth="yes"/>
      <point x="41" y="100"/>
      <point x="141" y="-5"/>
      <point x="299" y="-5" type="curve" smooth="yes"/>
      <point x="345" y="-5"/>
      <point x="409" y="6"/>
    </contour>
  </outline>
</glyph>
<glyph name="f" format="1">
  <advance width="333"/>
  <unicode hex="0066"/>
  <outline>
    <contour>
      <point x="207" y="0" type="line"/>
      <point x="207" y="546" type="line" smooth="yes"/>
      <point x="207" y="611"/>
      <point x="240" y="634"/>
      <point x="280" y="634" type="curve" smooth="yes"/>
      <point x="296" y="634"/>
      <point x="311" y="631"/>
      <point x="327" y="624" type="curve"/>
      <point x="327" y="708" type="line"/>
      <point x="310" y="713"/>
      <point x="288" y="715"/>
      <point x="272" y="715" type="curve" smooth="yes"/>
      <point x="170" y="715"/>
      <point x="112" y="651"/>
      <point x="112" y="547" type="curve" smooth="yes"/>
      <point x="112" y="0" type="line"/>
    </contour>
    <contour>
      <point x="314" y="433" type="line"/>
      <point x="314" y="507" type="line"/>
      <point x="30" y="507" type="line"/>
      <point x="30" y="433" type="line"/>
    </contour>
  </outline>
</glyph>
<glyph name="h" format="1">
  <advance width="549"/>
  <unicode hex="0068"/>
  <outline>
    <contour>
      <point x="485" y="0" type="line"/>
      <point x="485" y="342" type="line" smooth="yes"/>
      <point x="485" y="451"/>
      <point x="419" y="514"/>
      <point x="322" y="514" type="curve" smooth="yes"/>
      <point x="206" y="514"/>
      <point x="142" y="437"/>
      <point x="140" y="296" type="curve"/>
      <point x="165" y="275" type="line"/>
      <point x="165" y="388"/>
      <point x="235" y="431"/>
      <point x="293" y="431" type="curve" smooth="yes"/>
      <point x="349" y="431"/>
      <point x="390" y="394"/>
      <point x="390" y="321" type="curve" smooth="yes"/>
      <point x="390" y="0" type="line"/>
    </contour>
    <contour>
      <point x="165" y="0" type="line"/>
      <point x="165" y="707" type="line"/>
      <point x="70" y="707" type="line"/>
      <point x="70" y="0" type="line"/>
    </contour>
  </outline>
</glyph>
<glyph name="i" format="1">
  <advance width="243"/>
  <unicode hex="0069"/>
  <outline>
    <contour>
      <point x="169" y="0" type="line"/>
      <point x="169" y="507" type="line"/>
      <point x="74" y="507" type="line"/>
      <point x="74" y="0" type="line"/>
    </contour>
    <contour>
      <point x="181" y="663" type="curve" smooth="yes"/>
      <point x="181" y="696"/>
      <point x="154" y="723"/>
      <point x="121" y="723" type="curve" smooth="yes"/>
      <point x="88" y="723"/>
      <point x="62" y="696"/>
      <point x="62" y="663" type="curve" smooth="yes"/>
      <point x="62" y="630"/>
      <point x="88" y="604"/>
      <point x="121" y="604" type="curve" smooth="yes"/>
      <point x="154" y="604"/>
      <point x="181" y="630"/>
    </contour>
  </outline>
</glyph>
<glyph name="j" format="1">
  <advance width="239"/>
  <unicode hex="006A"/>
  <outline>
    <contour>
      <point x="170" y="-47" type="curve" smooth="yes"/>
      <point x="170" y="507" type="line"/>
      <point x="76" y="507" type="line"/>
      <point x="76" y="-45" type="line" smooth="yes"/>
      <point x="76" y="-97"/>
      <point x="54" y="-116"/>
      <point x="21" y="-116" type="curve" smooth="yes"/>
      <point x="1" y="-116"/>
      <point x="-22" y="-111"/>
      <point x="-44" y="-100" type="curve"/>
      <point x="-44" y="-181" type="line"/>
      <point x="-17" y="-191"/>
      <point x="3" y="-196"/>
      <point x="29" y="-196" type="curve" smooth="yes"/>
      <point x="120" y="-196"/>
      <point x="170" y="-139"/>
    </contour>
    <contour>
      <point x="182" y="663" type="curve" smooth="yes"/>
      <point x="182" y="696"/>
      <point x="155" y="723"/>
      <point x="122" y="723" type="curve" smooth="yes"/>
      <point x="89" y="723"/>
      <point x="63" y="696"/>
      <point x="63" y="663" type="curve" smooth="yes"/>
      <point x="63" y="630"/>
      <point x="89" y="604"/>
      <point x="122" y="604" type="curve" smooth="yes"/>
      <point x="155" y="604"/>
      <point x="182" y="630"/>
    </contour>
  </outline>
</glyph>
<glyph name="k" format="1">
  <advance width="496"/>
  <unicode hex="006B"/>
  <outline>
    <contour>
      <point x="165" y="0" type="line"/>
      <point x="165" y="700" type="line"/>
      <point x="70" y="700" type="line"/>
      <point x="70" y="0" type="line"/>
    </contour>
    <contour>
      <point x="279" y="265" type="line"/>
      <point x="473" y="507" type="line"/>
      <point x="361" y="507" type="line"/>
      <point x="169" y="265" type="line"/>
    </contour>
    <contour>
      <point x="479" y="0" type="line"/>
      <point x="279" y="265" type="line"/>
      <point x="170" y="265" type="line"/>
      <point x="366" y="0" type="line"/>
    </contour>
  </outline>
</glyph>
<glyph name="m" format="1">
  <advance width="828"/>
  <unicode hex="006D"/>
  <outline>
    <contour>
      <point x="764" y="0" type="line"/>
      <point x="764" y="342" type="line" smooth="yes"/>
      <point x="764" y="446"/>
      <point x="711" y="514"/>
      <point x="604" y="514" type="curve" smooth="yes"/>
      <point x="507" y="514"/>
      <point x="431" y="440"/>
      <point x="433" y="302" type="curve"/>
      <point x="464" y="275" type="line"/>
      <point x="464" y="386"/>
      <point x="527" y="431"/>
      <point x="579" y="431" type="curve" smooth="yes"/>
      <point x="640" y="431"/>
      <point x="669" y="392"/>
      <point x="669" y="321" type="curve" smooth="yes"/>
      <point x="669" y="0" type="line"/>
    </contour>
    <contour>
      <point x="165" y="0" type="line"/>
      <point x="165" y="507" type="line"/>
      <point x="70" y="507" type="line"/>
      <point x="70" y="0" type="line"/>
    </contour>
    <contour>
      <point x="464" y="0" type="line"/>
      <point x="464" y="342" type="line" smooth="yes"/>
      <point x="464" y="447"/>
      <point x="413" y="514"/>
      <point x="307" y="514" type="curve" smooth="yes"/>
      <point x="206" y="514"/>
      <point x="138" y="437"/>
      <point x="140" y="296" type="curve"/>
      <point x="165" y="275" type="line"/>
      <point x="165" y="386"/>
      <point x="228" y="431"/>
      <point x="279" y="431" type="curve" smooth="yes"/>
      <point x="340" y="431"/>
      <point x="369" y="392"/>
      <point x="369" y="321" type="curve" smooth="yes"/>
      <point x="369" y="0" type="line"/>
    </contour>
  </outline>
</glyph>
<glyph name="n" format="1">
  <advance width="549"/>
  <unicode hex="006E"/>
  <outline>
    <contour>
      <point x="485" y="0" type="line"/>
      <point x="485" y="344" type="line" smooth="yes"/>
      <point x="485" y="449"/>
      <point x="422" y="514"/>
      <point x="322" y="514" type="curve" smooth="yes"/>
      <point x="214" y="514"/>
      <point x="145" y="443"/>
      <point x="142" y="315" type="curve"/>
      <point x="142" y="275" type="line"/>
      <point x="165" y="275" type="line"/>
      <point x="165" y="379"/>
      <point x="227" y="431"/>
      <point x="293" y="431" type="curve" smooth="yes"/>
      <point x="350" y="431"/>
      <point x="390" y="395"/>
      <point x="390" y="322" type="curve" smooth="yes"/>
      <point x="390" y="0" type="line"/>
    </contour>
    <contour>
      <point x="165" y="0" type="line"/>
      <point x="165" y="507" type="line"/>
      <point x="70" y="507" type="line"/>
      <point x="70" y="0" type="line"/>
    </contour>
  </outline>
</glyph>
<glyph name="o" format="1">
  <advance width="563"/>
  <unicode hex="006F"/>
  <outline>
    <contour>
      <point x="522" y="253" type="curve" smooth="yes"/>
      <point x="522" y="398"/>
      <point x="440" y="514"/>
      <point x="280" y="514" type="curve" smooth="yes"/>
      <point x="135" y="514"/>
      <point x="41" y="398"/>
      <point x="41" y="249" type="curve" smooth="yes"/>
      <point x="41" y="106"/>
      <point x="127" y="-9"/>
      <point x="280" y="-9" type="curve" smooth="yes"/>
      <point x="436" y="-9"/>
      <point x="522" y="107"/>
    </contour>
    <contour>
      <point x="140" y="252" type="curve" smooth="yes"/>
      <point x="140" y="348"/>
      <point x="187" y="434"/>
      <point x="280" y="434" type="curve" smooth="yes"/>
      <point x="384" y="434"/>
      <point x="423" y="348"/>
      <point x="423" y="251" type="curve" smooth="yes"/>
      <point x="423" y="154"/>
      <point x="378" y="71"/>
      <point x="281" y="71" type="curve" smooth="yes"/>
      <point x="191" y="71"/>
      <point x="140" y="155"/>
    </contour>
  </outline>
</glyph>
<glyph name="q" format="1">
  <advance width="577"/>
  <unicode hex="0071"/>
  <outline>
    <contour>
      <point x="457" y="254" type="curve" smooth="yes"/>
      <point x="457" y="393"/>
      <point x="395" y="514"/>
      <point x="258" y="514" type="curve" smooth="yes"/>
      <point x="121" y="514"/>
      <point x="41" y="402"/>
      <point x="41" y="257" type="curve" smooth="yes"/>
      <point x="41" y="106"/>
      <point x="126" y="-7"/>
      <point x="259" y="-7" type="curve" smooth="yes"/>
      <point x="378" y="-7"/>
      <point x="457" y="92"/>
    </contour>
    <contour>
      <point x="139" y="257" type="curve" smooth="yes"/>
      <point x="139" y="364"/>
      <point x="197" y="431"/>
      <point x="272" y="431" type="curve" smooth="yes"/>
      <point x="338" y="431"/>
      <point x="413" y="387"/>
      <point x="413" y="254" type="curve" smooth="yes"/>
      <point x="413" y="124"/>
      <point x="337" y="76"/>
      <point x="276" y="76" type="curve" smooth="yes"/>
      <point x="201" y="76"/>
      <point x="139" y="139"/>
    </contour>
    <contour>
      <point x="508" y="-195" type="line"/>
      <point x="508" y="507" type="line"/>
      <point x="413" y="507" type="line"/>
      <point x="413" y="-195" type="line"/>
    </contour>
  </outline>
</glyph>
<glyph name="r" format="1">
  <advance width="336"/>
  <unicode hex="0072"/>
  <outline>
    <contour>
      <point x="164" y="0" type="line"/>
      <point x="164" y="507" type="line"/>
      <point x="70" y="507" type="line"/>
      <point x="69" y="0" type="line"/>
    </contour>
    <contour>
      <point x="328" y="417" type="curve"/>
      <point x="328" y="509" type="line"/>
      <point x="317" y="511"/>
      <point x="308" y="512"/>
      <point x="298" y="512" type="curve" smooth="yes"/>
      <point x="191" y="512"/>
      <point x="146" y="418"/>
      <point x="144" y="306" type="curve"/>
      <point x="164" y="271" type="line"/>
      <point x="164" y="351"/>
      <point x="212" y="425"/>
      <point x="282" y="425" type="curve" smooth="yes"/>
      <point x="298" y="425"/>
      <point x="313" y="423"/>
    </contour>
  </outline>
</glyph>
<glyph name="s" format="1">
  <advance width="418"/>
  <unicode hex="0073"/>
  <outline>
    <contour>
      <point x="385" y="139" type="curve" smooth="yes"/>
      <point x="385" y="219"/>
      <point x="323" y="256"/>
      <point x="257" y="285" type="curve" smooth="yes"/>
      <point x="203" y="309"/>
      <point x="152" y="327"/>
      <point x="152" y="373" type="curve" smooth="yes"/>
      <point x="152" y="407"/>
      <point x="181" y="432"/>
      <point x="231" y="432" type="curve" smooth="yes"/>
      <point x="280" y="432"/>
      <point x="327" y="420"/>
      <point x="357" y="404" type="curve"/>
      <point x="357" y="490" type="line"/>
      <point x="330" y="502"/>
      <point x="284" y="512"/>
      <point x="229" y="512" type="curve" smooth="yes"/>
      <point x="133" y="512"/>
      <point x="55" y="461"/>
      <point x="55" y="370" type="curve" smooth="yes"/>
      <point x="55" y="288"/>
      <point x="117" y="250"/>
      <point x="176" y="226" type="curve" smooth="yes"/>
      <point x="240" y="199"/>
      <point x="287" y="180"/>
      <point x="287" y="133" type="curve" smooth="yes"/>
      <point x="287" y="98"/>
      <point x="259" y="73"/>
      <point x="203" y="73" type="curve" smooth="yes"/>
      <point x="151" y="73"/>
      <point x="98" y="91"/>
      <point x="58" y="115" type="curve"/>
      <point x="58" y="25" type="line"/>
      <point x="90" y="9"/>
      <point x="147" y="-5"/>
      <point x="208" y="-5" type="curve" smooth="yes"/>
      <point x="316" y="-5"/>
      <point x="385" y="48"/>
    </contour>
  </outline>
</glyph>
<glyph name="u" format="1">
  <advance width="549"/>
  <unicode hex="0075"/>
  <outline>
    <contour>
      <point x="403" y="194" type="curve"/>
      <point x="385" y="231" type="line"/>
      <point x="385" y="131"/>
      <point x="333" y="76"/>
      <point x="257" y="76" type="curve" smooth="yes"/>
      <point x="198" y="76"/>
      <point x="159" y="112"/>
      <point x="159" y="184" type="curve" smooth="yes"/>
      <point x="159" y="507" type="line"/>
      <point x="64" y="507" type="line"/>
      <point x="64" y="160" type="line" smooth="yes"/>
      <point x="64" y="57"/>
      <point x="126" y="-6"/>
      <point x="227" y="-6" type="curve" smooth="yes"/>
      <point x="337" y="-6"/>
      <point x="405" y="59"/>
    </contour>
    <contour>
      <point x="480" y="0" type="line"/>
      <point x="480" y="507" type="line"/>
      <point x="385" y="507" type="line"/>
      <point x="385" y="0" type="line"/>
    </contour>
  </outline>
</glyph>
<glyph name="v" format="1">
  <advance width="513"/>
  <unicode hex="0076"/>
  <outline>
    <contour>
      <point x="309" y="0" type="line"/>
      <point x="493" y="507" type="line"/>
      <point x="394" y="507" type="line"/>
      <point x="323" y="293" type="line" smooth="yes"/>
      <point x="264" y="123"/>
      <point x="255" y="75"/>
      <point x="255" y="75" type="curve"/>
      <point x="255" y="75"/>
      <point x="244" y="123"/>
      <point x="189" y="293" type="curve" smooth="yes"/>
      <point x="120" y="507" type="line"/>
      <point x="20" y="507" type="line"/>
      <point x="200" y="0" type="line"/>
    </contour>
  </outline>
</glyph>
<glyph name="w" format="1">
  <advance width="795"/>
  <unicode hex="0077"/>
  <outline>
    <contour>
      <point x="287" y="0" type="line"/>
      <point x="333" y="166" type="line" smooth="yes"/>
      <point x="381" y="339"/>
      <point x="395" y="403"/>
      <point x="395" y="403" type="curve"/>
      <point x="395" y="403"/>
      <point x="409" y="339"/>
      <point x="458" y="166" type="curve" smooth="yes"/>
      <point x="505" y="0" type="line"/>
      <point x="614" y="0" type="line"/>
      <point x="775" y="507" type="line"/>
      <point x="679" y="507" type="line"/>
      <point x="629" y="340" type="line" smooth="yes"/>
      <point x="572" y="150"/>
      <point x="559" y="91"/>
      <point x="559" y="91" type="curve"/>
      <point x="559" y="91"/>
      <point x="547" y="150"/>
      <point x="491" y="340" type="curve" smooth="yes"/>
      <point x="442" y="507" type="line"/>
      <point x="348" y="507" type="line"/>
      <point x="300" y="340" type="line" smooth="yes"/>
      <point x="246" y="155"/>
      <point x="232" y="92"/>
      <point x="232" y="92" type="curve"/>
      <point x="232" y="92"/>
      <point x="221" y="155"/>
      <point x="168" y="339" type="curve" smooth="yes"/>
      <point x="121" y="507" type="line"/>
      <point x="20" y="507" type="line"/>
      <point x="178" y="0" type="line"/>
    </contour>
  </outline>
</glyph>
<glyph name="x" format="1">
  <advance width="489"/>
  <unicode hex="0078"/>
  <outline>
    <contour>
      <point x="127" y="0" type="line"/>
      <point x="245" y="189" type="line"/>
      <point x="359" y="0" type="line"/>
      <point x="466" y="0" type="line"/>
      <point x="297" y="257" type="line"/>
      <point x="465" y="508" type="line"/>
      <point x="358" y="508" type="line"/>
      <point x="248" y="327" type="line"/>
      <point x="141" y="508" type="line"/>
      <point x="33" y="508" type="line"/>
      <point x="195" y="258" type="line"/>
      <point x="23" y="0" type="line"/>
    </contour>
  </outline>
</glyph>
<glyph name="y" format="1">
  <advance width="502"/>
  <unicode hex="0079"/>
  <outline>
    <contour>
      <point x="305" y="14" type="curve" smooth="yes"/>
      <point x="489" y="507" type="line"/>
      <point x="388" y="507" type="line"/>
      <point x="331" y="342" type="line" smooth="yes"/>
      <point x="265" y="154"/>
      <point x="257" y="125"/>
      <point x="257" y="125" type="curve"/>
      <point x="257" y="125"/>
      <point x="249" y="154"/>
      <point x="176" y="342" type="curve" smooth="yes"/>
      <point x="113" y="507" type="line"/>
      <point x="7" y="507" type="line"/>
      <point x="210" y="12" type="line"/>
      <point x="183" y="-61"/>
      <point x="137" y="-97"/>
      <point x="73" y="-97" type="curve" smooth="yes"/>
      <point x="62" y="-97"/>
      <point x="50" y="-96"/>
      <point x="39" y="-93" type="curve"/>
      <point x="39" y="-175" type="line"/>
      <point x="53" y="-178"/>
      <point x="67" y="-180"/>
      <point x="84" y="-180" type="curve" smooth="yes"/>
      <point x="172" y="-180"/>
      <point x="250" y="-133"/>
    </contour>
  </outline>
</glyph>
<glyph name="z" format="1">
  <advance width="459"/>
  <unicode hex="007A"/>
  <outline>
    <contour>
      <point x="416" y="0" type="line"/>
      <point x="416" y="81" type="line"/>
      <point x="152" y="81" type="line"/>
      <point x="403" y="439" type="line"/>
      <point x="403" y="507" type="line"/>
      <point x="53" y="507" type="line"/>
      <point x="53" y="427" type="line"/>
      <point x="291" y="427" type="line"/>
      <point x="43" y="73" type="line"/>
      <point x="43" y="0" type="line"/>
    </contour>
  </outline>
</glyph>
<glyph name="braceleft" format="1">
  <advance width="306"/>
  <unicode hex="007B"/>
  <note>
    braceleft
  </note>
  <outline>
    <contour>
      <point x="267" y="-36" type="line"/>
      <point x="236" y="-35"/>
      <point x="213" y="-30"/>
      <point x="191" y="-22" type="curve"/>
      <point x="185" y="6"/>
      <point x="184" y="24"/>
      <point x="185" y="56" type="curve" smooth="yes"/>
      <point x="188" y="127" type="line" smooth="yes"/>
      <point x="190" y="182"/>
      <point x="170" y="214"/>
      <point x="123" y="227" type="curve"/>
      <point x="123" y="232" type="line"/>
      <point x="170" y="245"/>
      <point x="190" y="277"/>
      <point x="188" y="331" type="curve" smooth="yes"/>
      <point x="185" y="393" type="line" smooth="yes"/>
      <point x="184" y="425"/>
      <point x="185" y="442"/>
      <point x="191" y="471" type="curve"/>
      <point x="213" y="479"/>
      <point x="236" y="483"/>
      <point x="267" y="485" type="curve"/>
      <point x="267" y="537" type="line"/>
      <point x="172" y="532"/>
      <point x="124" y="493"/>
      <point x="130" y="395" type="curve" smooth="yes"/>
      <point x="133" y="343" type="line" smooth="yes"/>
      <point x="136" y="290"/>
      <point x="120" y="252"/>
      <point x="47" y="252" type="curve"/>
      <point x="47" y="207" type="line"/>
      <point x="120" y="207"/>
      <point x="136" y="168"/>
      <point x="133" y="116" type="curve" smooth="yes"/>
      <point x="130" y="54" type="line" smooth="yes"/>
      <point x="124" y="-44"/>
      <point x="172" y="-83"/>
      <point x="267" y="-88" type="curve"/>
    </contour>
  </outline>
</glyph>
<glyph name="braceright" format="1">
  <advance width="306"/>
  <unicode hex="007D"/>
  <note>
    braceright
  </note>
  <outline>
    <contour>
      <point x="177" y="54" type="curve" smooth="yes"/>
      <point x="173" y="116" type="line" smooth="yes"/>
      <point x="170" y="168"/>
      <point x="187" y="207"/>
      <point x="259" y="207" type="curve"/>
      <point x="259" y="252" type="line"/>
      <point x="187" y="252"/>
      <point x="170" y="290"/>
      <point x="173" y="343" type="curve" smooth="yes"/>
      <point x="177" y="395" type="line" smooth="yes"/>
      <point x="183" y="493"/>
      <point x="134" y="532"/>
      <point x="40" y="537" type="curve"/>
      <point x="40" y="485" type="line"/>
      <point x="70" y="483"/>
      <point x="93" y="479"/>
      <point x="115" y="471" type="curve"/>
      <point x="121" y="442"/>
      <point x="123" y="425"/>
      <point x="122" y="393" type="curve" smooth="yes"/>
      <point x="119" y="331" type="line" smooth="yes"/>
      <point x="116" y="277"/>
      <point x="136" y="245"/>
      <point x="183" y="232" type="curve"/>
      <point x="183" y="227" type="line"/>
      <point x="136" y="214"/>
      <point x="116" y="182"/>
      <point x="119" y="127" type="curve" smooth="yes"/>
      <point x="122" y="56" type="line" smooth="yes"/>
      <point x="123" y="24"/>
      <point x="121" y="6"/>
      <point x="115" y="-22" type="curve"/>
      <point x="93" y="-30"/>
      <point x="70" y="-35"/>
      <point x="40" y="-36" type="curve"/>
      <point x="40" y="-88" type="line"/>
      <point x="134" y="-83"/>
      <point x="183" y="-44"/>
    </contour>
  </outline>
</glyph>
<glyph name="asciitilde" format="1">
  <advance width="613"/>
  <unicode hex="007E"/>
  <outline>
    <contour>
      <point x="211" y="261" type="curve" smooth="yes"/>
      <point x="276" y="261"/>
      <point x="335" y="193"/>
      <point x="427" y="193" type="curve" smooth="yes"/>
      <point x="498" y="193"/>
      <point x="543" y="235"/>
      <point x="578" y="287" type="curve"/>
      <point x="509" y="339" type="line"/>
      <point x="486" y="303"/>
      <point x="457" y="279"/>
      <point x="415" y="279" type="curve" smooth="yes"/>
      <point x="346" y="279"/>
      <point x="298" y="347"/>
      <point x="194" y="347" type="curve" smooth="yes"/>
      <point x="131" y="347"/>
      <point x="75" y="306"/>
      <point x="34" y="249" type="curve"/>
      <point x="98" y="194" type="line"/>
      <point x="132" y="240"/>
      <point x="167" y="261"/>
    </contour>
  </outline>
</glyph>
<glyph name="exclamdown" format="1">
  <advance width="178"/>
  <unicode hex="00A1"/>
  <note>
    exclamdown
  </note>
  <outline>
    <contour>
      <point x="119" y="-1" type="line"/>
      <point x="119" y="145" type="line"/>
      <point x="113" y="319" type="line"/>
      <point x="65" y="319" type="line"/>
      <point x="59" y="145" type="line"/>
      <point x="59" y="-1" type="line"/>
    </contour>
    <contour>
      <point x="119" y="377" type="line"/>
      <point x="119" y="444" type="line"/>
      <point x="59" y="444" type="line"/>
      <point x="59" y="377" type="line"/>
    </contour>
  </outline>
</glyph>
<glyph name="cent" format="1">
  <advance width="458"/>
  <unicode hex="00A2"/>
  <outline>
    <contour>
      <point x="418" y="16" type="curve"/>
      <point x="418" y="102" type="line"/>
      <point x="388" y="85"/>
      <point x="350" y="75"/>
      <point x="318" y="75" type="curve" smooth="yes"/>
      <point x="203" y="75"/>
      <point x="142" y="152"/>
      <point x="140" y="251" type="curve" smooth="yes"/>
      <point x="140" y="354"/>
      <point x="210" y="429"/>
      <point x="318" y="429" type="curve" smooth="yes"/>
      <point x="351" y="429"/>
      <point x="387" y="420"/>
      <point x="418" y="402" type="curve"/>
      <point x="418" y="488" type="line"/>
      <point x="379" y="507"/>
      <point x="342" y="513"/>
      <point x="309" y="513" type="curve" smooth="yes"/>
      <point x="138" y="513"/>
      <point x="43" y="390"/>
      <point x="42" y="252" type="curve" smooth="yes"/>
      <point x="42" y="109"/>
      <point x="141" y="-8"/>
      <point x="305" y="-8" type="curve" smooth="yes"/>
      <point x="343" y="-8"/>
      <point x="383" y="-1"/>
    </contour>
    <contour>
      <point x="340" y="-111" type="line"/>
      <point x="340" y="59" type="line"/>
      <point x="258" y="59" type="line"/>
      <point x="258" y="-111" type="line"/>
    </contour>
    <contour>
      <point x="340" y="450" type="line"/>
      <point x="340" y="616" type="line"/>
      <point x="258" y="616" type="line"/>
      <point x="258" y="450" type="line"/>
    </contour>
  </outline>
</glyph>
<glyph name="sterling" format="1">
  <advance width="526"/>
  <unicode hex="00A3"/>
  <outline>
    <contour>
      <point x="489" y="0" type="line"/>
      <point x="489" y="82" type="line"/>
      <point x="174" y="82" type="line"/>
      <point x="218" y="110"/>
      <point x="249" y="153"/>
      <point x="249" y="250" type="curve"/>
      <point x="249" y="309"/>
      <point x="234" y="382"/>
      <point x="234" y="443" type="curve"/>
      <point x="234" y="531"/>
      <point x="278" y="569"/>
      <point x="358" y="569" type="curve" smooth="yes"/>
      <point x="395" y="569"/>
      <point x="427" y="560"/>
      <point x="459" y="540" type="curve"/>
      <point x="459" y="632" type="line"/>
      <point x="429" y="649"/>
      <point x="388" y="659"/>
      <point x="344" y="659" type="curve" smooth="yes"/>
      <point x="208" y="659"/>
      <point x="133" y="580"/>
      <point x="133" y="442" type="curve"/>
      <point x="133" y="386"/>
      <point x="150" y="310"/>
      <point x="150" y="250" type="curve"/>
      <point x="150" y="161"/>
      <point x="130" y="114"/>
      <point x="57" y="80" type="curve"/>
      <point x="57" y="0" type="line"/>
    </contour>
    <contour>
      <point x="417" y="286" type="line"/>
      <point x="417" y="359" type="line"/>
      <point x="61" y="359" type="line"/>
      <point x="61" y="286" type="line"/>
    </contour>
  </outline>
</glyph>
<glyph name="currency" format="1">
  <advance width="550"/>
  <unicode hex="00A4"/>
  <outline>
    <contour>
      <point x="150" y="130" type="line"/>
      <point x="184" y="108"/>
      <point x="226" y="96"/>
      <point x="273" y="96" type="curve" smooth="yes"/>
      <point x="320" y="96"/>
      <point x="362" y="109"/>
      <point x="397" y="132" type="curve"/>
      <point x="459" y="72" type="line"/>
      <point x="517" y="129" type="line"/>
      <point x="456" y="189" type="line"/>
      <point x="480" y="224"/>
      <point x="495" y="267"/>
      <point x="495" y="314" type="curve" smooth="yes"/>
      <point x="495" y="360"/>
      <point x="481" y="402"/>
      <point x="459" y="435" type="curve"/>
      <point x="517" y="493" type="line"/>
      <point x="459" y="550" type="line"/>
      <point x="401" y="493" type="line"/>
      <point x="366" y="515"/>
      <point x="324" y="528"/>
      <point x="278" y="528" type="curve" smooth="yes"/>
      <point x="230" y="528"/>
      <point x="187" y="514"/>
      <point x="151" y="490" type="curve"/>
      <point x="91" y="550" type="line"/>
      <point x="33" y="493" type="line"/>
      <point x="93" y="433" type="line"/>
      <point x="70" y="399"/>
      <point x="56" y="355"/>
      <point x="56" y="310" type="curve" smooth="yes"/>
      <point x="56" y="263"/>
      <point x="68" y="221"/>
      <point x="91" y="187" type="curve"/>
      <point x="33" y="129" type="line"/>
      <point x="91" y="72" type="line"/>
    </contour>
    <contour>
      <point x="137" y="312" type="curve" smooth="yes"/>
      <point x="137" y="391"/>
      <point x="194" y="452"/>
      <point x="275" y="452" type="curve" smooth="yes"/>
      <point x="356" y="452"/>
      <point x="414" y="390"/>
      <point x="414" y="312" type="curve" smooth="yes"/>
      <point x="414" y="233"/>
      <point x="356" y="173"/>
      <point x="275" y="173" type="curve" smooth="yes"/>
      <point x="194" y="173"/>
      <point x="137" y="234"/>
    </contour>
  </outline>
</glyph>
<glyph name="yen" format="1">
  <advance width="597"/>
  <unicode hex="00A5"/>
  <outline>
    <contour>
      <point x="340" y="242" type="line"/>
      <point x="567" y="654" type="line"/>
      <point x="455" y="654" type="line"/>
      <point x="296" y="350" type="line"/>
      <point x="140" y="654" type="line"/>
      <point x="28" y="654" type="line"/>
      <point x="253" y="242" type="line"/>
    </contour>
    <contour>
      <point x="346" y="0" type="line"/>
      <point x="346" y="264" type="line"/>
      <point x="247" y="264" type="line"/>
      <point x="247" y="0" type="line"/>
    </contour>
    <contour>
      <point x="523" y="147" type="line"/>
      <point x="523" y="213" type="line"/>
      <point x="70" y="213" type="line"/>
      <point x="70" y="147" type="line"/>
    </contour>
    <contour>
      <point x="264" y="296" type="line"/>
      <point x="264" y="362" type="line"/>
      <point x="70" y="362" type="line"/>
      <point x="70" y="296" type="line"/>
    </contour>
    <contour>
      <point x="523" y="296" type="line"/>
      <point x="523" y="362" type="line"/>
      <point x="327" y="362" type="line"/>
      <point x="327" y="296" type="line"/>
    </contour>
  </outline>
</glyph>
<glyph name="brokenbar" format="1">
  <advance width="240"/>
  <unicode hex="00A6"/>
  <outline>
    <contour>
      <point x="164" y="367" type="line"/>
      <point x="164" y="700" type="line"/>
      <point x="76" y="700" type="line"/>
      <point x="76" y="367" type="line"/>
    </contour>
    <contour>
      <point x="164" y="-163" type="line"/>
      <point x="164" y="169" type="line"/>
      <point x="76" y="169" type="line"/>
      <point x="76" y="-163" type="line"/>
    </contour>
  </outline>
</glyph>
<glyph name="section" format="1">
  <advance width="533"/>
  <unicode hex="00A7"/>
  <outline>
    <contour>
      <point x="476" y="201" type="curve" smooth="yes"/>
      <point x="476" y="310"/>
      <point x="398" y="353"/>
      <point x="314" y="392" type="curve" smooth="yes"/>
      <point x="223" y="436"/>
      <point x="162" y="448"/>
      <point x="162" y="508" type="curve" smooth="yes"/>
      <point x="162" y="561"/>
      <point x="205" y="591"/>
      <point x="281" y="591" type="curve" smooth="yes"/>
      <point x="334" y="591"/>
      <point x="393" y="573"/>
      <point x="432" y="549" type="curve"/>
      <point x="432" y="648" type="line"/>
      <point x="387" y="671"/>
      <point x="329" y="680"/>
      <point x="278" y="680" type="curve" smooth="yes"/>
      <point x="153" y="680"/>
      <point x="59" y="620"/>
      <point x="59" y="506" type="curve" smooth="yes"/>
      <point x="59" y="397"/>
      <point x="158" y="368"/>
      <point x="247" y="326" type="curve" smooth="yes"/>
      <point x="323" y="289"/>
      <point x="380" y="264"/>
      <point x="380" y="202" type="curve" smooth="yes"/>
      <point x="380" y="169"/>
      <point x="366" y="140"/>
      <point x="339" y="120" type="curve"/>
      <point x="410" y="63" type="line"/>
      <point x="449" y="91"/>
      <point x="476" y="142"/>
    </contour>
    <contour>
      <point x="471" y="-19" type="curve" smooth="yes"/>
      <point x="471" y="94"/>
      <point x="370" y="138"/>
      <point x="286" y="175" type="curve" smooth="yes"/>
      <point x="206" y="209"/>
      <point x="149" y="236"/>
      <point x="149" y="298" type="curve" smooth="yes"/>
      <point x="149" y="324"/>
      <point x="160" y="352"/>
      <point x="183" y="372" type="curve"/>
      <point x="103" y="421" type="line"/>
      <point x="73" y="390"/>
      <point x="53" y="348"/>
      <point x="53" y="298" type="curve" smooth="yes"/>
      <point x="53" y="187"/>
      <point x="139" y="142"/>
      <point x="227" y="103" type="curve" smooth="yes"/>
      <point x="331" y="57"/>
      <point x="370" y="33"/>
      <point x="370" y="-19" type="curve" smooth="yes"/>
      <point x="370" y="-79"/>
      <point x="325" y="-111"/>
      <point x="248" y="-111" type="curve" smooth="yes"/>
      <point x="182" y="-111"/>
      <point x="115" y="-90"/>
      <point x="66" y="-52" type="curve"/>
      <point x="66" y="-156" type="line"/>
      <point x="114" y="-184"/>
      <point x="184" y="-199"/>
      <point x="249" y="-199" type="curve" smooth="yes"/>
      <point x="378" y="-199"/>
      <point x="471" y="-136"/>
    </contour>
  </outline>
</glyph>
<glyph name="dieresis" format="1">
  <advance width="440"/>
  <unicode hex="00A8"/>
  <outline>
    <contour>
      <point x="388" y="720" type="curve" smooth="yes"/>
      <point x="388" y="753"/>
      <point x="363" y="778"/>
      <point x="329" y="778" type="curve" smooth="yes"/>
      <point x="295" y="778"/>
      <point x="270" y="753"/>
      <point x="270" y="720" type="curve" smooth="yes"/>
      <point x="270" y="687"/>
      <point x="295" y="661"/>
      <point x="329" y="661" type="curve" smooth="yes"/>
      <point x="363" y="661"/>
      <point x="388" y="687"/>
    </contour>
    <contour>
      <point x="170" y="720" type="curve" smooth="yes"/>
      <point x="170" y="753"/>
      <point x="144" y="778"/>
      <point x="111" y="778" type="curve" smooth="yes"/>
      <point x="77" y="778"/>
      <point x="52" y="753"/>
      <point x="52" y="720" type="curve" smooth="yes"/>
      <point x="52" y="687"/>
      <point x="77" y="661"/>
      <point x="111" y="661" type="curve" smooth="yes"/>
      <point x="144" y="661"/>
      <point x="170" y="687"/>
    </contour>
  </outline>
</glyph>
<glyph name="copyright" format="1">
  <advance width="772"/>
  <unicode hex="00A9"/>
  <outline>
    <contour>
      <point x="493" y="174" type="curve"/>
      <point x="493" y="246" type="line"/>
      <point x="473" y="231"/>
      <point x="442" y="222"/>
      <point x="414" y="222" type="curve" smooth="yes"/>
      <point x="349" y="222"/>
      <point x="304" y="269"/>
      <point x="303" y="335" type="curve" smooth="yes"/>
      <point x="303" y="405"/>
      <point x="352" y="450"/>
      <point x="415" y="450" type="curve" smooth="yes"/>
      <point x="439" y="450"/>
      <point x="470" y="442"/>
      <point x="493" y="427" type="curve"/>
      <point x="493" y="499" type="line"/>
      <point x="465" y="515"/>
      <point x="432" y="520"/>
      <point x="408" y="520" type="curve" smooth="yes"/>
      <point x="290" y="520"/>
      <point x="223" y="433"/>
      <point x="223" y="335" type="curve" smooth="yes"/>
      <point x="223" y="234"/>
      <point x="295" y="152"/>
      <point x="406" y="152" type="curve" smooth="yes"/>
      <point x="436" y="152"/>
      <point x="472" y="161"/>
    </contour>
    <contour>
      <point x="731" y="337" type="curve" smooth="yes"/>
      <point x="731" y="526"/>
      <point x="575" y="682"/>
      <point x="386" y="682" type="curve" smooth="yes"/>
      <point x="197" y="682"/>
      <point x="41" y="526"/>
      <point x="41" y="337" type="curve" smooth="yes"/>
      <point x="41" y="148"/>
      <point x="197" y="-9"/>
      <point x="386" y="-9" type="curve" smooth="yes"/>
      <point x="575" y="-9"/>
      <point x="731" y="148"/>
    </contour>
    <contour>
      <point x="115" y="336" type="curve" smooth="yes"/>
      <point x="115" y="488"/>
      <point x="235" y="608"/>
      <point x="387" y="608" type="curve" smooth="yes"/>
      <point x="538" y="608"/>
      <point x="658" y="488"/>
      <point x="658" y="336" type="curve" smooth="yes"/>
      <point x="658" y="184"/>
      <point x="538" y="65"/>
      <point x="387" y="65" type="curve" smooth="yes"/>
      <point x="235" y="65"/>
      <point x="115" y="184"/>
    </contour>
  </outline>
</glyph>
<glyph name="ordfeminine" format="1">
  <advance width="362"/>
  <unicode hex="00AA"/>
  <outline>
    <contour>
      <point x="254" y="445" type="curve"/>
      <point x="254" y="392" type="line"/>
      <point x="332" y="392" type="line"/>
      <point x="332" y="664" type="line" smooth="yes"/>
      <point x="332" y="770"/>
      <point x="283" y="826"/>
      <point x="166" y="826" type="curve" smooth="yes"/>
      <point x="115" y="826"/>
      <point x="63" y="813"/>
      <point x="35" y="796" type="curve"/>
      <point x="35" y="720" type="line"/>
      <point x="68" y="742"/>
      <point x="115" y="757"/>
      <point x="158" y="757" type="curve" smooth="yes"/>
      <point x="229" y="757"/>
      <point x="251" y="722"/>
      <point x="251" y="666" type="curve" smooth="yes"/>
      <point x="251" y="531" type="line"/>
      <point x="251" y="489"/>
      <point x="215" y="453"/>
      <point x="163" y="453" type="curve" smooth="yes"/>
      <point x="112" y="453"/>
      <point x="87" y="478"/>
      <point x="87" y="515" type="curve" smooth="yes"/>
      <point x="87" y="559"/>
      <point x="124" y="583"/>
      <point x="193" y="583" type="curve" smooth="yes"/>
      <point x="269" y="583" type="line"/>
      <point x="269" y="644" type="line"/>
      <point x="181" y="644" type="line" smooth="yes"/>
      <point x="69" y="644"/>
      <point x="4" y="594"/>
      <point x="4" y="513" type="curve" smooth="yes"/>
      <point x="4" y="438"/>
      <point x="56" y="388"/>
      <point x="137" y="388" type="curve" smooth="yes"/>
      <point x="192" y="388"/>
      <point x="232" y="414"/>
    </contour>
  </outline>
</glyph>
<glyph name="guillemotleft" format="1">
  <advance width="357"/>
  <unicode hex="00AB"/>
  <note>
    guillemotleft
  </note>
  <outline>
    <contour>
      <point x="250" y="72" type="line"/>
      <point x="169" y="181" type="line"/>
      <point x="169" y="183" type="line"/>
      <point x="250" y="292" type="line"/>
      <point x="210" y="311" type="line"/>
      <point x="113" y="182" type="line"/>
      <point x="210" y="53" type="line"/>
    </contour>
    <contour>
      <point x="234" y="75" type="line"/>
      <point x="155" y="181" type="line"/>
      <point x="155" y="183" type="line"/>
      <point x="234" y="289" type="line"/>
      <point x="194" y="307" type="line"/>
      <point x="99" y="182" type="line"/>
      <point x="194" y="57" type="line"/>
    </contour>
  </outline>
</glyph>
<glyph name="logicalnot" format="1">
  <advance width="562"/>
  <unicode hex="00AC"/>
  <outline>
    <contour>
      <point x="523" y="154" type="line"/>
      <point x="523" y="414" type="line"/>
      <point x="30" y="414" type="line"/>
      <point x="30" y="332" type="line"/>
      <point x="439" y="332" type="line"/>
      <point x="439" y="154" type="line"/>
    </contour>
  </outline>
</glyph>
<glyph name="softhyphen" format="1">
  <advance width="240"/>
  <unicode hex="00AD"/>
  <note>
    softhyphen
  </note>
  <outline>
    <contour>
      <point x="200" y="154" type="line"/>
      <point x="200" y="207" type="line"/>
      <point x="40" y="207" type="line"/>
      <point x="40" y="154" type="line"/>
    </contour>
  </outline>
</glyph>
<glyph name="registered" format="1">
  <advance width="460"/>
  <unicode hex="00AE"/>
  <outline>
    <contour>
      <point x="209" y="465" type="line"/>
      <point x="209" y="685" type="line"/>
      <point x="163" y="685" type="line"/>
      <point x="163" y="465" type="line"/>
    </contour>
    <contour>
      <point x="229" y="545" type="line" smooth="yes"/>
      <point x="282" y="545"/>
      <point x="310" y="572"/>
      <point x="310" y="615" type="curve" smooth="yes"/>
      <point x="310" y="658"/>
      <point x="285" y="685"/>
      <point x="226" y="685" type="curve" smooth="yes"/>
      <point x="163" y="685" type="line"/>
      <point x="163" y="646" type="line"/>
      <point x="230" y="646" type="line" smooth="yes"/>
      <point x="251" y="646"/>
      <point x="262" y="638"/>
      <point x="262" y="615" type="curve" smooth="yes"/>
      <point x="262" y="596"/>
      <point x="253" y="583"/>
      <point x="233" y="583" type="curve" smooth="yes"/>
      <point x="163" y="583" type="line"/>
      <point x="163" y="545" type="line"/>
    </contour>
    <contour>
      <point x="329" y="465" type="line"/>
      <point x="260" y="575" type="line"/>
      <point x="209" y="575" type="line"/>
      <point x="274" y="465" type="line"/>
    </contour>
    <contour>
      <point x="450" y="568" type="curve" smooth="yes"/>
      <point x="450" y="695"/>
      <point x="357" y="787"/>
      <point x="230" y="787" type="curve" smooth="yes"/>
      <point x="102" y="787"/>
      <point x="10" y="695"/>
      <point x="10" y="568" type="curve" smooth="yes"/>
      <point x="10" y="440"/>
      <point x="102" y="349"/>
      <point x="230" y="349" type="curve" smooth="yes"/>
      <point x="357" y="349"/>
      <point x="450" y="440"/>
    </contour>
    <contour>
      <point x="62" y="568" type="curve" smooth="yes"/>
      <point x="62" y="669"/>
      <point x="128" y="738"/>
      <point x="231" y="738" type="curve" smooth="yes"/>
      <point x="333" y="738"/>
      <point x="399" y="669"/>
      <point x="399" y="568" type="curve" smooth="yes"/>
      <point x="399" y="467"/>
      <point x="333" y="399"/>
      <point x="231" y="399" type="curve" smooth="yes"/>
      <point x="128" y="399"/>
      <point x="62" y="467"/>
    </contour>
  </outline>
</glyph>
<glyph name="degree" format="1">
  <advance width="375"/>
  <unicode hex="00B0"/>
  <outline>
    <contour>
      <point x="345" y="524" type="curve" smooth="yes"/>
      <point x="345" y="613"/>
      <point x="278" y="678"/>
      <point x="189" y="678" type="curve" smooth="yes"/>
      <point x="99" y="678"/>
      <point x="30" y="611"/>
      <point x="30" y="521" type="curve" smooth="yes"/>
      <point x="30" y="432"/>
      <point x="97" y="367"/>
      <point x="186" y="367" type="curve" smooth="yes"/>
      <point x="276" y="367"/>
      <point x="345" y="434"/>
    </contour>
    <contour>
      <point x="103" y="523" type="curve" smooth="yes"/>
      <point x="103" y="571"/>
      <point x="138" y="609"/>
      <point x="186" y="609" type="curve" smooth="yes"/>
      <point x="234" y="609"/>
      <point x="273" y="571"/>
      <point x="273" y="523" type="curve" smooth="yes"/>
      <point x="273" y="475"/>
      <point x="237" y="436"/>
      <point x="189" y="436" type="curve" smooth="yes"/>
      <point x="141" y="436"/>
      <point x="103" y="475"/>
    </contour>
  </outline>
</glyph>
<glyph name="acute" format="1">
  <advance width="440"/>
  <unicode hex="00B4"/>
  <outline>
    <contour>
      <point x="201" y="637" type="line"/>
      <point x="322" y="798" type="line"/>
      <point x="215" y="798" type="line"/>
      <point x="120" y="637" type="line"/>
    </contour>
  </outline>
</glyph>
<glyph name="mu.math" format="1">
  <advance width="555"/>
  <unicode hex="00B5"/>
  <outline>
    <contour>
      <point x="409" y="194" type="curve"/>
      <point x="390" y="231" type="line"/>
      <point x="390" y="131"/>
      <point x="349" y="76"/>
      <point x="278" y="76" type="curve" smooth="yes"/>
      <point x="220" y="76"/>
      <point x="165" y="112"/>
      <point x="165" y="184" type="curve" smooth="yes"/>
      <point x="165" y="453" type="line"/>
      <point x="102" y="453" type="line"/>
      <point x="102" y="160" type="line" smooth="yes"/>
      <point x="102" y="59"/>
      <point x="169" y="-6"/>
      <point x="264" y="-6" type="curve" smooth="yes"/>
      <point x="361" y="-6"/>
      <point x="415" y="67"/>
    </contour>
    <contour>
      <point x="165" y="-179" type="line"/>
      <point x="165" y="507" type="line"/>
      <point x="70" y="507" type="line"/>
      <point x="70" y="-179" type="line"/>
    </contour>
    <contour>
      <point x="485" y="0" type="line"/>
      <point x="485" y="507" type="line"/>
      <point x="390" y="507" type="line"/>
      <point x="390" y="0" type="line"/>
    </contour>
  </outline>
</glyph>
<glyph name="paragraph" format="1">
  <advance width="557"/>
  <unicode hex="00B6"/>
  <outline>
    <contour>
      <point x="295" y="-148" type="line"/>
      <point x="295" y="674" type="line"/>
      <point x="222" y="674" type="line"/>
      <point x="84" y="674"/>
      <point x="22" y="587"/>
      <point x="22" y="503" type="curve" smooth="yes"/>
      <point x="22" y="414"/>
      <point x="86" y="335"/>
      <point x="215" y="335" type="curve"/>
      <point x="215" y="-148" type="line"/>
    </contour>
    <contour>
      <point x="485" y="-148" type="line"/>
      <point x="485" y="674" type="line"/>
      <point x="405" y="674" type="line"/>
      <point x="405" y="-148" type="line"/>
    </contour>
  </outline>
</glyph>
<glyph name="periodcentered" format="1">
  <advance width="251"/>
  <unicode hex="00B7"/>
  <note>
    periodcentered
  </note>
  <outline>
    <contour>
      <point x="163" y="195" type="curve" smooth="yes"/>
      <point x="163" y="218"/>
      <point x="149" y="232"/>
      <point x="126" y="232" type="curve" smooth="yes"/>
      <point x="103" y="232"/>
      <point x="89" y="218"/>
      <point x="89" y="195" type="curve" smooth="yes"/>
      <point x="89" y="173"/>
      <point x="103" y="160"/>
      <point x="126" y="160" type="curve" smooth="yes"/>
      <point x="149" y="160"/>
      <point x="163" y="173"/>
    </contour>
  </outline>
</glyph>
<glyph name="cedilla" format="1">
  <advance width="440"/>
  <unicode hex="00B8"/>
  <outline>
    <contour>
      <point x="298" y="-123" type="curve" smooth="yes"/>
      <point x="298" y="-99"/>
      <point x="292" y="-68"/>
      <point x="281" y="-51" type="curve"/>
      <point x="199" y="-51" type="line"/>
      <point x="213" y="-73"/>
      <point x="223" y="-94"/>
      <point x="223" y="-121" type="curve" smooth="yes"/>
      <point x="223" y="-162"/>
      <point x="195" y="-187"/>
      <point x="141" y="-190" type="curve"/>
      <point x="141" y="-256" type="line"/>
      <point x="248" y="-254"/>
      <point x="298" y="-193"/>
    </contour>
  </outline>
</glyph>
<glyph name="ordmasculine" format="1">
  <advance width="392"/>
  <unicode hex="00BA"/>
  <outline>
    <contour>
      <point x="394" y="608" type="curve" smooth="yes"/>
      <point x="394" y="729"/>
      <point x="327" y="828"/>
      <point x="195" y="828" type="curve" smooth="yes"/>
      <point x="74" y="828"/>
      <point x="-2" y="729"/>
      <point x="-2" y="604" type="curve" smooth="yes"/>
      <point x="-2" y="483"/>
      <point x="67" y="386"/>
      <point x="195" y="386" type="curve" smooth="yes"/>
      <point x="324" y="386"/>
      <point x="394" y="483"/>
    </contour>
    <contour>
      <point x="81" y="606" type="curve" smooth="yes"/>
      <point x="81" y="688"/>
      <point x="119" y="761"/>
      <point x="194" y="761" type="curve" smooth="yes"/>
      <point x="281" y="761"/>
      <point x="310" y="687"/>
      <point x="310" y="606" type="curve" smooth="yes"/>
      <point x="310" y="523"/>
      <point x="274" y="453"/>
      <point x="195" y="453" type="curve" smooth="yes"/>
      <point x="122" y="453"/>
      <point x="81" y="524"/>
    </contour>
  </outline>
</glyph>
<glyph name="guillemotright" format="1">
  <advance width="346"/>
  <unicode hex="00BB"/>
  <note>
    guillemotright
  </note>
  <outline>
    <contour>
      <point x="303" y="182" type="line"/>
      <point x="206" y="311" type="line"/>
      <point x="166" y="292" type="line"/>
      <point x="246" y="183" type="line"/>
      <point x="246" y="181" type="line"/>
      <point x="166" y="72" type="line"/>
      <point x="206" y="53" type="line"/>
    </contour>
    <contour>
      <point x="177" y="182" type="line"/>
      <point x="83" y="307" type="line"/>
      <point x="42" y="289" type="line"/>
      <point x="121" y="183" type="line"/>
      <point x="121" y="181" type="line"/>
      <point x="42" y="75" type="line"/>
      <point x="83" y="57" type="line"/>
    </contour>
  </outline>
</glyph>
<glyph name="onequarter" format="1">
  <advance width="831"/>
  <unicode hex="00BC"/>
  <outline>
    <contour>
      <point x="219" y="0" type="line"/>
      <point x="665" y="712" type="line"/>
      <point x="584" y="712" type="line"/>
      <point x="139" y="0" type="line"/>
    </contour>
    <contour>
      <point x="233" y="280" type="line"/>
      <point x="233" y="711" type="line"/>
      <point x="173" y="711" type="line"/>
      <point x="52" y="642" type="line"/>
      <point x="52" y="569" type="line"/>
      <point x="161" y="628" type="line"/>
      <point x="161" y="280" type="line"/>
    </contour>
    <contour>
      <point x="795" y="96" type="line"/>
      <point x="795" y="155" type="line"/>
      <point x="468" y="155" type="line"/>
      <point x="468" y="96" type="line"/>
    </contour>
    <contour>
      <point x="542" y="155" type="line"/>
      <point x="695" y="429" type="line"/>
      <point x="625" y="429" type="line"/>
      <point x="468" y="155" type="line"/>
    </contour>
    <contour>
      <point x="735" y="0" type="line"/>
      <point x="735" y="429" type="line"/>
      <point x="665" y="429" type="line"/>
      <point x="665" y="0" type="line"/>
    </contour>
  </outline>
</glyph>
<glyph name="onehalf" format="1">
  <advance width="833"/>
  <unicode hex="00BD"/>
  <outline>
    <contour>
      <point x="219" y="0" type="line"/>
      <point x="665" y="712" type="line"/>
      <point x="584" y="712" type="line"/>
      <point x="139" y="0" type="line"/>
    </contour>
    <contour>
      <point x="233" y="280" type="line"/>
      <point x="233" y="711" type="line"/>
      <point x="173" y="711" type="line"/>
      <point x="52" y="642" type="line"/>
      <point x="52" y="569" type="line"/>
      <point x="161" y="628" type="line"/>
      <point x="161" y="280" type="line"/>
    </contour>
    <contour>
      <point x="799" y="0" type="line"/>
      <point x="799" y="64" type="line"/>
      <point x="616" y="64" type="line"/>
      <point x="711" y="133"/>
      <point x="784" y="219"/>
      <point x="784" y="302" type="curve" smooth="yes"/>
      <point x="784" y="389"/>
      <point x="717" y="435"/>
      <point x="640" y="435" type="curve" smooth="yes"/>
      <point x="597" y="435"/>
      <point x="558" y="419"/>
      <point x="529" y="402" type="curve"/>
      <point x="529" y="324" type="line"/>
      <point x="560" y="348"/>
      <point x="599" y="365"/>
      <point x="634" y="365" type="curve" smooth="yes"/>
      <point x="677" y="365"/>
      <point x="707" y="343"/>
      <point x="707" y="295" type="curve" smooth="yes"/>
      <point x="707" y="219"/>
      <point x="610" y="126"/>
      <point x="516" y="55" type="curve"/>
      <point x="516" y="0" type="line"/>
    </contour>
  </outline>
</glyph>
<glyph name="threequarters" format="1">
  <advance width="874"/>
  <unicode hex="00BE"/>
  <outline>
    <contour>
      <point x="275" y="0" type="line"/>
      <point x="720" y="712" type="line"/>
      <point x="640" y="712" type="line"/>
      <point x="195" y="0" type="line"/>
    </contour>
    <contour>
      <point x="322" y="396" type="curve" smooth="yes"/>
      <point x="322" y="455"/>
      <point x="279" y="494"/>
      <point x="232" y="499" type="curve"/>
      <point x="280" y="510"/>
      <point x="311" y="544"/>
      <point x="311" y="598" type="curve" smooth="yes"/>
      <point x="311" y="662"/>
      <point x="264" y="715"/>
      <point x="170" y="715" type="curve" smooth="yes"/>
      <point x="134" y="715"/>
      <point x="97" y="703"/>
      <point x="73" y="688" type="curve"/>
      <point x="73" y="616" type="line"/>
      <point x="102" y="636"/>
      <point x="138" y="649"/>
      <point x="167" y="649" type="curve" smooth="yes"/>
      <point x="207" y="649"/>
      <point x="234" y="631"/>
      <point x="234" y="591" type="curve" smooth="yes"/>
      <point x="234" y="550"/>
      <point x="197" y="529"/>
      <point x="151" y="529" type="curve" smooth="yes"/>
      <point x="129" y="529" type="line"/>
      <point x="129" y="466" type="line"/>
      <point x="152" y="466" type="line" smooth="yes"/>
      <point x="216" y="466"/>
      <point x="246" y="441"/>
      <point x="246" y="402" type="curve" smooth="yes"/>
      <point x="246" y="365"/>
      <point x="218" y="341"/>
      <point x="171" y="341" type="curve" smooth="yes"/>
      <point x="133" y="341"/>
      <point x="96" y="350"/>
      <point x="60" y="369" type="curve"/>
      <point x="60" y="301" type="line"/>
      <point x="92" y="285"/>
      <point x="142" y="276"/>
      <point x="178" y="276" type="curve" smooth="yes"/>
      <point x="271" y="276"/>
      <point x="322" y="327"/>
    </contour>
    <contour>
      <point x="851" y="96" type="line"/>
      <point x="851" y="155" type="line"/>
      <point x="524" y="155" type="line"/>
      <point x="524" y="96" type="line"/>
    </contour>
    <contour>
      <point x="597" y="155" type="line"/>
      <point x="751" y="429" type="line"/>
      <point x="681" y="429" type="line"/>
      <point x="524" y="155" type="line"/>
    </contour>
    <contour>
      <point x="791" y="0" type="line"/>
      <point x="791" y="429" type="line"/>
      <point x="720" y="429" type="line"/>
      <point x="720" y="0" type="line"/>
    </contour>
  </outline>
</glyph>
<glyph name="questiondown" format="1">
  <advance width="438"/>
  <unicode hex="00BF"/>
  <note>
    questiondown
  </note>
  <outline>
    <contour>
      <point x="362" y="-46" type="curve"/>
      <point x="362" y="-30" type="line" smooth="yes"/>
      <point x="362" y="-8"/>
      <point x="359" y="17"/>
      <point x="353" y="37" type="curve"/>
      <point x="308" y="37" type="line"/>
      <point x="308" y="-11" type="line"/>
      <point x="278" y="-19"/>
      <point x="250" y="-23"/>
      <point x="216" y="-23" type="curve" smooth="yes"/>
      <point x="158" y="-23"/>
      <point x="134" y="-7"/>
      <point x="134" y="42" type="curve" smooth="yes"/>
      <point x="134" y="82" type="line"/>
      <point x="245" y="163" type="line" smooth="yes"/>
      <point x="262" y="176"/>
      <point x="268" y="186"/>
      <point x="268" y="207" type="curve" smooth="yes"/>
      <point x="268" y="262" type="line"/>
      <point x="211" y="262" type="line"/>
      <point x="211" y="221" type="line" smooth="yes"/>
      <point x="211" y="203"/>
      <point x="210" y="197"/>
      <point x="197" y="188" type="curve" smooth="yes"/>
      <point x="118" y="132" type="line" smooth="yes"/>
      <point x="83" y="107"/>
      <point x="76" y="80"/>
      <point x="76" y="39" type="curve" smooth="yes"/>
      <point x="76" y="-39"/>
      <point x="120" y="-77"/>
      <point x="215" y="-77" type="curve" smooth="yes"/>
      <point x="276" y="-77"/>
      <point x="329" y="-62"/>
    </contour>
    <contour>
      <point x="269" y="309" type="line"/>
      <point x="269" y="376" type="line"/>
      <point x="209" y="376" type="line"/>
      <point x="209" y="309" type="line"/>
    </contour>
  </outline>
</glyph>
<glyph name="AE" format="1">
  <advance width="894"/>
  <unicode hex="00C6"/>
  <outline>
    <contour>
      <point x="124" y="0" type="line"/>
      <point x="283" y="285" type="line" smooth="yes"/>
      <point x="413" y="515"/>
      <point x="481" y="648"/>
      <point x="487" y="674" type="curve"/>
      <point x="388" y="674" type="line"/>
      <point x="19" y="0" type="line"/>
    </contour>
    <contour>
      <point x="501" y="167" type="line"/>
      <point x="501" y="250" type="line"/>
      <point x="197" y="250" type="line"/>
      <point x="197" y="167" type="line"/>
    </contour>
    <contour>
      <point x="843" y="0" type="line"/>
      <point x="843" y="83" type="line"/>
      <point x="484" y="83" type="line"/>
      <point x="484" y="0" type="line"/>
    </contour>
    <contour>
      <point x="555" y="0" type="line"/>
      <point x="555" y="674" type="line"/>
      <point x="459" y="674" type="line"/>
      <point x="459" y="0" type="line"/>
    </contour>
    <contour>
      <point x="805" y="295" type="line"/>
      <point x="805" y="378" type="line"/>
      <point x="484" y="378" type="line"/>
      <point x="484" y="295" type="line"/>
    </contour>
    <contour>
      <point x="838" y="591" type="line"/>
      <point x="838" y="674" type="line"/>
      <point x="484" y="674" type="line"/>
      <point x="484" y="591" type="line"/>
    </contour>
  </outline>
</glyph>
<glyph name="multiply" format="1">
  <advance width="501"/>
  <unicode hex="00D7"/>
  <outline>
    <contour>
      <point x="442" y="210" type="line"/>
      <point x="115" y="534" type="line"/>
      <point x="55" y="473" type="line"/>
      <point x="381" y="149" type="line"/>
    </contour>
    <contour>
      <point x="444" y="473" type="line"/>
      <point x="382" y="534" type="line"/>
      <point x="58" y="211" type="line"/>
      <point x="120" y="150" type="line"/>
    </contour>
  </outline>
</glyph>
<glyph name="Oslash" format="1">
  <advance width="684"/>
  <unicode hex="00D8"/>
  <outline>
    <contour>
      <point x="657" y="340" type="curve" smooth="yes"/>
      <point x="657" y="550"/>
      <point x="542" y="687"/>
      <point x="349" y="687" type="curve" smooth="yes"/>
      <point x="160" y="687"/>
      <point x="40" y="549"/>
      <point x="40" y="340" type="curve" smooth="yes"/>
      <point x="40" y="130"/>
      <point x="163" y="-8"/>
      <point x="350" y="-8" type="curve" smooth="yes"/>
      <point x="539" y="-8"/>
      <point x="657" y="130"/>
    </contour>
    <contour>
      <point x="142" y="340" type="curve" smooth="yes"/>
      <point x="142" y="499"/>
      <point x="220" y="598"/>
      <point x="349" y="598" type="curve" smooth="yes"/>
      <point x="480" y="598"/>
      <point x="556" y="501"/>
      <point x="556" y="340" type="curve" smooth="yes"/>
      <point x="556" y="180"/>
      <point x="480" y="81"/>
      <point x="350" y="81" type="curve" smooth="yes"/>
      <point x="224" y="81"/>
      <point x="142" y="177"/>
    </contour>
    <contour>
      <point x="141" y="-8" type="line"/>
      <point x="658" y="686" type="line"/>
      <point x="557" y="686" type="line"/>
      <point x="40" y="-8" type="line"/>
    </contour>
  </outline>
</glyph>
<glyph name="germandbls" format="1">
  <advance width="555"/>
  <unicode hex="00DF"/>
  <outline>
    <contour>
      <point x="528" y="142" type="curve" smooth="yes"/>
      <point x="528" y="276"/>
      <point x="387" y="300"/>
      <point x="387" y="360" type="curve" smooth="yes"/>
      <point x="387" y="408"/>
      <point x="459" y="433"/>
      <point x="459" y="532" type="curve" smooth="yes"/>
      <point x="459" y="616"/>
      <point x="387" y="690"/>
      <point x="272" y="690" type="curve" smooth="yes"/>
      <point x="152" y="690"/>
      <point x="72" y="623"/>
      <point x="72" y="487" type="curve"/>
      <point x="72" y="0" type="line"/>
      <point x="166" y="0" type="line"/>
      <point x="166" y="491" type="line"/>
      <point x="166" y="570"/>
      <point x="204" y="604"/>
      <point x="273" y="604" type="curve" smooth="yes"/>
      <point x="328" y="604"/>
      <point x="362" y="574"/>
      <point x="362" y="527" type="curve" smooth="yes"/>
      <point x="362" y="456"/>
      <point x="287" y="431"/>
      <point x="287" y="352" type="curve" smooth="yes"/>
      <point x="287" y="245"/>
      <point x="436" y="226"/>
      <point x="436" y="138" type="curve" smooth="yes"/>
      <point x="436" y="99"/>
      <point x="403" y="72"/>
      <point x="352" y="72" type="curve" smooth="yes"/>
      <point x="318" y="72"/>
      <point x="295" y="78"/>
      <point x="263" y="95" type="curve"/>
      <point x="263" y="8" type="line"/>
      <point x="290" y="-4"/>
      <point x="324" y="-8"/>
      <point x="357" y="-8" type="curve" smooth="yes"/>
      <point x="466" y="-8"/>
      <point x="528" y="56"/>
    </contour>
  </outline>
</glyph>
<glyph name="ae" format="1">
  <advance width="816"/>
  <unicode hex="00E6"/>
  <outline>
    <contour>
      <point x="395" y="96" type="curve"/>
      <point x="435" y="32"/>
      <point x="516" y="-5"/>
      <point x="599" y="-5" type="curve" smooth="yes"/>
      <point x="645" y="-5"/>
      <point x="705" y="6"/>
      <point x="742" y="27" type="curve"/>
      <point x="742" y="113" type="line"/>
      <point x="707" y="89"/>
      <point x="656" y="75"/>
      <point x="608" y="75" type="curve" smooth="yes"/>
      <point x="521" y="75"/>
      <point x="452" y="122"/>
      <point x="438" y="214" type="curve"/>
      <point x="771" y="214" type="line"/>
      <point x="774" y="231"/>
      <point x="776" y="260"/>
      <point x="776" y="275" type="curve" smooth="yes"/>
      <point x="776" y="430"/>
      <point x="700" y="513"/>
      <point x="569" y="513" type="curve" smooth="yes"/>
      <point x="497" y="513"/>
      <point x="435" y="483"/>
      <point x="399" y="429" type="curve"/>
      <point x="376" y="483"/>
      <point x="322" y="515"/>
      <point x="238" y="515" type="curve" smooth="yes"/>
      <point x="176" y="515"/>
      <point x="120" y="500"/>
      <point x="87" y="480" type="curve"/>
      <point x="87" y="389" type="line"/>
      <point x="125" y="415"/>
      <point x="181" y="433"/>
      <point x="233" y="433" type="curve" smooth="yes"/>
      <point x="316" y="433"/>
      <point x="342" y="392"/>
      <point x="342" y="325" type="curve" smooth="yes"/>
      <point x="342" y="298" type="line"/>
      <point x="259" y="298" type="line" smooth="yes"/>
      <point x="127" y="298"/>
      <point x="49" y="240"/>
      <point x="49" y="143" type="curve" smooth="yes"/>
      <point x="49" y="52"/>
      <point x="114" y="-5"/>
      <point x="216" y="-5" type="curve" smooth="yes"/>
      <point x="312" y="-5"/>
      <point x="372" y="41"/>
    </contour>
    <contour>
      <point x="148" y="147" type="curve" smooth="yes"/>
      <point x="148" y="198"/>
      <point x="192" y="227"/>
      <point x="274" y="227" type="curve" smooth="yes"/>
      <point x="342" y="227" type="line"/>
      <point x="342" y="175" type="line"/>
      <point x="342" y="112"/>
      <point x="297" y="72"/>
      <point x="237" y="72" type="curve" smooth="yes"/>
      <point x="177" y="72"/>
      <point x="148" y="102"/>
    </contour>
    <contour>
      <point x="570" y="434" type="curve" smooth="yes"/>
      <point x="639" y="434"/>
      <point x="683" y="389"/>
      <point x="684" y="307" type="curve"/>
      <point x="684" y="289" type="line"/>
      <point x="436" y="289" type="line"/>
      <point x="447" y="389"/>
      <point x="506" y="434"/>
    </contour>
  </outline>
</glyph>
<glyph name="igrave" format="1">
  <advance width="243"/>
  <unicode hex="00EC"/>
  <outline>
    <contour>
      <point x="169" y="0" type="line"/>
      <point x="169" y="507" type="line"/>
      <point x="74" y="507" type="line"/>
      <point x="74" y="0" type="line"/>
    </contour>
    <component base="grave" xOffset="-166" yOffset="-79"/>
  </outline>
</glyph>
<glyph name="iacute" format="1">
  <advance width="243"/>
  <unicode hex="00ED"/>
  <outline>
    <contour>
      <point x="169" y="0" type="line"/>
      <point x="169" y="507" type="line"/>
      <point x="74" y="507" type="line"/>
      <point x="74" y="0" type="line"/>
    </contour>
    <component base="acute" xOffset="-32" yOffset="-78"/>
  </outline>
</glyph>
<glyph name="eth" format="1">
  <advance width="526"/>
  <unicode hex="00F0"/>
  <outline>
    <contour>
      <point x="481" y="274" type="curve" smooth="yes"/>
      <point x="481" y="450"/>
      <point x="378" y="602"/>
      <point x="269" y="674" type="curve"/>
      <point x="130" y="674" type="line"/>
      <point x="254" y="605"/>
      <point x="389" y="473"/>
      <point x="389" y="275" type="curve" smooth="yes"/>
      <point x="389" y="126"/>
      <point x="325" y="77"/>
      <point x="255" y="77" type="curve" smooth="yes"/>
      <point x="185" y="77"/>
      <point x="135" y="123"/>
      <point x="135" y="199" type="curve" smooth="yes"/>
      <point x="135" y="278"/>
      <point x="185" y="322"/>
      <point x="250" y="322" type="curve" smooth="yes"/>
      <point x="327" y="322"/>
      <point x="382" y="272"/>
      <point x="414" y="211" type="curve"/>
      <point x="417" y="292" type="line"/>
      <point x="385" y="361"/>
      <point x="319" y="407"/>
      <point x="236" y="407" type="curve" smooth="yes"/>
      <point x="130" y="407"/>
      <point x="37" y="333"/>
      <point x="37" y="203" type="curve" smooth="yes"/>
      <point x="37" y="90"/>
      <point x="119" y="-9"/>
      <point x="255" y="-9" type="curve" smooth="yes"/>
      <point x="396" y="-9"/>
      <point x="481" y="92"/>
    </contour>
    <contour>
      <point x="459" y="610" type="line"/>
      <point x="459" y="676" type="line"/>
      <point x="160" y="525" type="line"/>
      <point x="160" y="459" type="line"/>
    </contour>
  </outline>
</glyph>
<glyph name="divide" format="1">
  <advance width="562"/>
  <unicode hex="00F7"/>
  <outline>
    <contour>
      <point x="508" y="297" type="line"/>
      <point x="508" y="383" type="line"/>
      <point x="54" y="383" type="line"/>
      <point x="54" y="297" type="line"/>
    </contour>
    <contour>
      <point x="337" y="162" type="curve" smooth="yes"/>
      <point x="337" y="194"/>
      <point x="311" y="220"/>
      <point x="279" y="220" type="curve" smooth="yes"/>
      <point x="248" y="220"/>
      <point x="221" y="194"/>
      <point x="221" y="162" type="curve" smooth="yes"/>
      <point x="221" y="131"/>
      <point x="248" y="104"/>
      <point x="279" y="104" type="curve" smooth="yes"/>
      <point x="311" y="104"/>
      <point x="337" y="131"/>
    </contour>
    <contour>
      <point x="337" y="518" type="curve" smooth="yes"/>
      <point x="337" y="549"/>
      <point x="311" y="576"/>
      <point x="279" y="576" type="curve" smooth="yes"/>
      <point x="248" y="576"/>
      <point x="221" y="549"/>
      <point x="221" y="518" type="curve" smooth="yes"/>
      <point x="221" y="486"/>
      <point x="248" y="460"/>
      <point x="279" y="460" type="curve" smooth="yes"/>
      <point x="311" y="460"/>
      <point x="337" y="486"/>
    </contour>
  </outline>
</glyph>
<glyph name="oslash" format="1">
  <advance width="563"/>
  <unicode hex="00F8"/>
  <outline>
    <contour>
      <point x="533" y="253" type="curve" smooth="yes"/>
      <point x="533" y="398"/>
      <point x="450" y="514"/>
      <point x="291" y="514" type="curve" smooth="yes"/>
      <point x="145" y="514"/>
      <point x="51" y="398"/>
      <point x="51" y="249" type="curve" smooth="yes"/>
      <point x="51" y="106"/>
      <point x="137" y="-9"/>
      <point x="291" y="-9" type="curve" smooth="yes"/>
      <point x="446" y="-9"/>
      <point x="533" y="107"/>
    </contour>
    <contour>
      <point x="141" y="252" type="curve" smooth="yes"/>
      <point x="141" y="353"/>
      <point x="191" y="442"/>
      <point x="290" y="442" type="curve" smooth="yes"/>
      <point x="401" y="442"/>
      <point x="442" y="352"/>
      <point x="442" y="251" type="curve" smooth="yes"/>
      <point x="442" y="150"/>
      <point x="394" y="63"/>
      <point x="291" y="63" type="curve" smooth="yes"/>
      <point x="195" y="63"/>
      <point x="141" y="151"/>
    </contour>
    <contour>
      <point x="142" y="-9" type="line"/>
      <point x="533" y="514" type="line"/>
      <point x="441" y="514" type="line"/>
      <point x="51" y="-9" type="line"/>
    </contour>
  </outline>
</glyph>
<glyph name="thorn" format="1">
  <advance width="577"/>
  <unicode hex="00FE"/>
  <outline>
    <contour>
      <point x="165" y="-195" type="line"/>
      <point x="165" y="707" type="line"/>
      <point x="70" y="707" type="line"/>
      <point x="70" y="-195" type="line"/>
    </contour>
    <contour>
      <point x="536" y="257" type="curve" smooth="yes"/>
      <point x="536" y="402"/>
      <point x="457" y="514"/>
      <point x="320" y="514" type="curve" smooth="yes"/>
      <point x="182" y="514"/>
      <point x="121" y="393"/>
      <point x="121" y="254" type="curve" smooth="yes"/>
      <point x="121" y="92"/>
      <point x="197" y="-7"/>
      <point x="319" y="-7" type="curve" smooth="yes"/>
      <point x="452" y="-7"/>
      <point x="536" y="106"/>
    </contour>
    <contour>
      <point x="165" y="254" type="curve" smooth="yes"/>
      <point x="165" y="387"/>
      <point x="239" y="431"/>
      <point x="306" y="431" type="curve" smooth="yes"/>
      <point x="381" y="431"/>
      <point x="439" y="365"/>
      <point x="439" y="257" type="curve" smooth="yes"/>
      <point x="439" y="138"/>
      <point x="379" y="76"/>
      <point x="302" y="76" type="curve" smooth="yes"/>
      <point x="241" y="76"/>
      <point x="165" y="124"/>
    </contour>
  </outline>
</glyph>
<glyph name="Aogonek" format="1">
  <advance width="654"/>
  <unicode hex="0104"/>
  <outline>
    <contour>
      <point x="135" y="0" type="line"/>
      <point x="228" y="285" type="line" smooth="yes"/>
      <point x="317" y="553"/>
      <point x="328" y="598"/>
      <point x="328" y="598" type="curve"/>
      <point x="328" y="598"/>
      <point x="338" y="553"/>
      <point x="426" y="285" type="curve" smooth="yes"/>
      <point x="518" y="0" type="line"/>
      <point x="624" y="0" type="line"/>
      <point x="394" y="674" type="line"/>
      <point x="263" y="674" type="line"/>
      <point x="30" y="0" type="line"/>
    </contour>
    <contour>
      <point x="643" y="-225" type="curve"/>
      <point x="643" y="-155" type="line"/>
      <point x="625" y="-168"/>
      <point x="597" y="-179"/>
      <point x="570" y="-179" type="curve" smooth="yes"/>
      <point x="534" y="-179"/>
      <point x="510" y="-161"/>
      <point x="510" y="-126" type="curve" smooth="yes"/>
      <point x="510" y="-76"/>
      <point x="564" y="-31"/>
      <point x="624" y="0" type="curve"/>
      <point x="582" y="44" type="line"/>
      <point x="516" y="20"/>
      <point x="430" y="-45"/>
      <point x="430" y="-135" type="curve" smooth="yes"/>
      <point x="430" y="-196"/>
      <point x="471" y="-246"/>
      <point x="557" y="-246" type="curve" smooth="yes"/>
      <point x="589" y="-246"/>
      <point x="619" y="-239"/>
    </contour>
    <contour>
      <point x="501" y="167" type="line"/>
      <point x="501" y="250" type="line"/>
      <point x="159" y="250" type="line"/>
      <point x="159" y="167" type="line"/>
    </contour>
  </outline>
</glyph>
<glyph name="Gcommaaccent" format="1">
  <advance width="679"/>
  <unicode hex="0122"/>
  <outline>
    <contour>
      <point x="613" y="55" type="curve"/>
      <point x="595" y="156" type="line"/>
      <point x="561" y="128"/>
      <point x="495" y="85"/>
      <point x="400" y="85" type="curve" smooth="yes"/>
      <point x="245" y="85"/>
      <point x="151" y="181"/>
      <point x="151" y="338" type="curve" smooth="yes"/>
      <point x="151" y="492"/>
      <point x="249" y="592"/>
      <point x="394" y="592" type="curve" smooth="yes"/>
      <point x="452" y="592"/>
      <point x="522" y="579"/>
      <point x="585" y="538" type="curve"/>
      <point x="585" y="641" type="line"/>
      <point x="526" y="675"/>
      <point x="453" y="686"/>
      <point x="389" y="686" type="curve" smooth="yes"/>
      <point x="193" y="686"/>
      <point x="46" y="546"/>
      <point x="46" y="338" type="curve" smooth="yes"/>
      <point x="46" y="121"/>
      <point x="190" y="-8"/>
      <point x="396" y="-8" type="curve" smooth="yes"/>
      <point x="488" y="-8"/>
      <point x="566" y="20"/>
    </contour>
    <contour>
      <point x="316" y="-248" type="line"/>
      <point x="428" y="-51" type="line"/>
      <point x="322" y="-51" type="line"/>
      <point x="241" y="-248" type="line"/>
    </contour>
    <contour>
      <point x="613" y="61" type="line"/>
      <point x="613" y="383" type="line"/>
      <point x="516" y="383" type="line"/>
      <point x="516" y="36" type="line"/>
    </contour>
    <contour>
      <point x="613" y="298" type="line"/>
      <point x="613" y="383" type="line"/>
      <point x="377" y="383" type="line"/>
      <point x="377" y="298" type="line"/>
    </contour>
  </outline>
</glyph>
<glyph name="imacron" format="1">
  <advance width="243"/>
  <unicode hex="012B"/>
  <outline>
    <contour>
      <point x="169" y="0" type="line"/>
      <point x="169" y="507" type="line"/>
      <point x="74" y="507" type="line"/>
      <point x="74" y="0" type="line"/>
    </contour>
    <component base="macron" xOffset="-98" yOffset="-77"/>
  </outline>
</glyph>
<glyph name="kcommaaccent" format="1">
  <advance width="496"/>
  <unicode hex="0137"/>
  <outline>
    <contour>
      <point x="165" y="0" type="line"/>
      <point x="165" y="700" type="line"/>
      <point x="70" y="700" type="line"/>
      <point x="70" y="0" type="line"/>
    </contour>
    <contour>
      <point x="279" y="265" type="line"/>
      <point x="473" y="507" type="line"/>
      <point x="361" y="507" type="line"/>
      <point x="169" y="265" type="line"/>
    </contour>
    <contour>
      <point x="479" y="0" type="line"/>
      <point x="279" y="265" type="line"/>
      <point x="170" y="265" type="line"/>
      <point x="366" y="0" type="line"/>
    </contour>
    <contour>
      <point x="199" y="-248" type="line"/>
      <point x="312" y="-51" type="line"/>
      <point x="206" y="-51" type="line"/>
      <point x="125" y="-248" type="line"/>
    </contour>
  </outline>
</glyph>
<glyph name="Lcommaaccent" format="1">
  <advance width="480"/>
  <unicode hex="013B"/>
  <outline>
    <contour>
      <point x="173" y="0" type="line"/>
      <point x="173" y="674" type="line"/>
      <point x="74" y="674" type="line"/>
      <point x="74" y="0" type="line"/>
    </contour>
    <contour>
      <point x="214" y="-248" type="line"/>
      <point x="326" y="-51" type="line"/>
      <point x="220" y="-51" type="line"/>
      <point x="139" y="-248" type="line"/>
    </contour>
    <contour>
      <point x="451" y="0" type="line"/>
      <point x="451" y="88" type="line"/>
      <point x="102" y="88" type="line"/>
      <point x="102" y="0" type="line"/>
    </contour>
  </outline>
</glyph>
<glyph name="lcommaaccent" format="1">
  <advance width="243"/>
  <unicode hex="013C"/>
  <outline>
    <contour>
      <point x="169" y="0" type="line"/>
      <point x="169" y="707" type="line"/>
      <point x="74" y="707" type="line"/>
      <point x="74" y="0" type="line"/>
    </contour>
    <contour>
      <point x="62" y="-248" type="line"/>
      <point x="174" y="-51" type="line"/>
      <point x="68" y="-51" type="line"/>
      <point x="-13" y="-248" type="line"/>
    </contour>
  </outline>
</glyph>
<glyph name="lcaron" format="1">
  <advance width="263"/>
  <unicode hex="013E"/>
  <outline>
    <contour>
      <point x="169" y="0" type="line"/>
      <point x="169" y="707" type="line"/>
      <point x="74" y="707" type="line"/>
      <point x="74" y="0" type="line"/>
    </contour>
    <contour>
      <point x="309" y="511" type="line"/>
      <point x="421" y="708" type="line"/>
      <point x="315" y="708" type="line"/>
      <point x="234" y="511" type="line"/>
    </contour>
  </outline>
</glyph>
<glyph name="Lslash" format="1">
  <advance width="515"/>
  <unicode hex="0141"/>
  <outline>
    <contour>
      <point x="355" y="399" type="line"/>
      <point x="355" y="487" type="line"/>
      <point x="33" y="277" type="line"/>
      <point x="33" y="189" type="line"/>
    </contour>
    <contour>
      <point x="480" y="0" type="line"/>
      <point x="480" y="88" type="line"/>
      <point x="131" y="88" type="line"/>
      <point x="131" y="0" type="line"/>
    </contour>
    <contour>
      <point x="202" y="0" type="line"/>
      <point x="202" y="674" type="line"/>
      <point x="103" y="674" type="line"/>
      <point x="103" y="0" type="line"/>
    </contour>
  </outline>
</glyph>
<glyph name="lslash" format="1">
  <advance width="303"/>
  <unicode hex="0142"/>
  <outline>
    <contour>
      <point x="196" y="0" type="line"/>
      <point x="196" y="707" type="line"/>
      <point x="101" y="707" type="line"/>
      <point x="101" y="0" type="line"/>
    </contour>
    <contour>
      <point x="278" y="418" type="line"/>
      <point x="278" y="506" type="line"/>
      <point x="31" y="333" type="line"/>
      <point x="31" y="245" type="line"/>
    </contour>
  </outline>
</glyph>
<glyph name="OE" format="1">
  <advance width="987"/>
  <unicode hex="0152"/>
  <outline>
    <contour>
      <point x="641" y="340" type="curve" smooth="yes"/>
      <point x="641" y="546"/>
      <point x="530" y="687"/>
      <point x="349" y="687" type="curve" smooth="yes"/>
      <point x="161" y="687"/>
      <point x="46" y="549"/>
      <point x="46" y="340" type="curve" smooth="yes"/>
      <point x="46" y="130"/>
      <point x="163" y="-8"/>
      <point x="350" y="-8" type="curve" smooth="yes"/>
      <point x="528" y="-8"/>
      <point x="641" y="134"/>
    </contour>
    <contour>
      <point x="150" y="340" type="curve" smooth="yes"/>
      <point x="150" y="497"/>
      <point x="222" y="595"/>
      <point x="349" y="595" type="curve" smooth="yes"/>
      <point x="479" y="595"/>
      <point x="550" y="497"/>
      <point x="550" y="340" type="curve" smooth="yes"/>
      <point x="550" y="182"/>
      <point x="479" y="84"/>
      <point x="350" y="84" type="curve" smooth="yes"/>
      <point x="226" y="84"/>
      <point x="150" y="182"/>
    </contour>
    <contour>
      <point x="936" y="0" type="line"/>
      <point x="936" y="83" type="line"/>
      <point x="578" y="83" type="line"/>
      <point x="578" y="0" type="line"/>
    </contour>
    <contour>
      <point x="645" y="0" type="line"/>
      <point x="645" y="674" type="line"/>
      <point x="550" y="674" type="line"/>
      <point x="550" y="0" type="line"/>
    </contour>
    <contour>
      <point x="899" y="295" type="line"/>
      <point x="899" y="378" type="line"/>
      <point x="578" y="378" type="line"/>
      <point x="578" y="295" type="line"/>
    </contour>
    <contour>
      <point x="931" y="591" type="line"/>
      <point x="931" y="674" type="line"/>
      <point x="578" y="674" type="line"/>
      <point x="578" y="591" type="line"/>
    </contour>
  </outline>
</glyph>
<glyph name="oe" format="1">
  <advance width="889"/>
  <unicode hex="0153"/>
  <outline>
    <contour>
      <point x="505" y="253" type="curve" smooth="yes"/>
      <point x="505" y="398"/>
      <point x="427" y="514"/>
      <point x="274" y="514" type="curve" smooth="yes"/>
      <point x="129" y="514"/>
      <point x="41" y="398"/>
      <point x="41" y="249" type="curve" smooth="yes"/>
      <point x="41" y="106"/>
      <point x="121" y="-9"/>
      <point x="274" y="-9" type="curve" smooth="yes"/>
      <point x="423" y="-9"/>
      <point x="505" y="107"/>
    </contour>
    <contour>
      <point x="140" y="252" type="curve" smooth="yes"/>
      <point x="140" y="348"/>
      <point x="181" y="434"/>
      <point x="274" y="434" type="curve" smooth="yes"/>
      <point x="378" y="434"/>
      <point x="411" y="348"/>
      <point x="411" y="251" type="curve" smooth="yes"/>
      <point x="411" y="154"/>
      <point x="372" y="71"/>
      <point x="275" y="71" type="curve" smooth="yes"/>
      <point x="185" y="71"/>
      <point x="140" y="155"/>
    </contour>
    <contour>
      <point x="813" y="27" type="curve"/>
      <point x="813" y="113" type="line"/>
      <point x="779" y="89"/>
      <point x="728" y="75"/>
      <point x="679" y="75" type="curve" smooth="yes"/>
      <point x="580" y="75"/>
      <point x="505" y="136"/>
      <point x="505" y="252" type="curve" smooth="yes"/>
      <point x="505" y="379"/>
      <point x="571" y="434"/>
      <point x="641" y="434" type="curve" smooth="yes"/>
      <point x="708" y="434"/>
      <point x="753" y="391"/>
      <point x="755" y="311" type="curve" smooth="yes"/>
      <point x="755" y="289" type="line"/>
      <point x="472" y="289" type="line"/>
      <point x="472" y="214" type="line"/>
      <point x="842" y="214" type="line"/>
      <point x="845" y="231"/>
      <point x="848" y="260"/>
      <point x="848" y="275" type="curve" smooth="yes"/>
      <point x="848" y="430"/>
      <point x="771" y="513"/>
      <point x="640" y="513" type="curve" smooth="yes"/>
      <point x="518" y="513"/>
      <point x="411" y="421"/>
      <point x="411" y="252" type="curve" smooth="yes"/>
      <point x="411" y="97"/>
      <point x="518" y="-5"/>
      <point x="667" y="-5" type="curve" smooth="yes"/>
      <point x="713" y="-5"/>
      <point x="775" y="6"/>
    </contour>
  </outline>
</glyph>
<glyph name="Rcommaaccent" format="1">
  <advance width="564"/>
  <unicode hex="0156"/>
  <outline>
    <contour>
      <point x="266" y="258" type="line" smooth="yes"/>
      <point x="407" y="258"/>
      <point x="497" y="335"/>
      <point x="499" y="465" type="curve"/>
      <point x="499" y="592"/>
      <point x="416" y="674"/>
      <point x="258" y="674" type="curve" smooth="yes"/>
      <point x="74" y="674" type="line"/>
      <point x="74" y="591" type="line"/>
      <point x="261" y="591" type="line" smooth="yes"/>
      <point x="353" y="591"/>
      <point x="400" y="547"/>
      <point x="400" y="466" type="curve" smooth="yes"/>
      <point x="400" y="394"/>
      <point x="357" y="341"/>
      <point x="267" y="341" type="curve" smooth="yes"/>
      <point x="74" y="341" type="line"/>
      <point x="74" y="258" type="line"/>
    </contour>
    <contour>
      <point x="234" y="-248" type="line"/>
      <point x="346" y="-51" type="line"/>
      <point x="240" y="-51" type="line"/>
      <point x="159" y="-248" type="line"/>
    </contour>
    <contour>
      <point x="173" y="0" type="line"/>
      <point x="173" y="674" type="line"/>
      <point x="74" y="674" type="line"/>
      <point x="74" y="0" type="line"/>
    </contour>
    <contour>
      <point x="542" y="0" type="line"/>
      <point x="341" y="314" type="line"/>
      <point x="230" y="314" type="line"/>
      <point x="424" y="0" type="line"/>
    </contour>
  </outline>
</glyph>
<glyph name="rcommaaccent" format="1">
  <advance width="336"/>
  <unicode hex="0157"/>
  <outline>
    <contour>
      <point x="55" y="-248" type="line"/>
      <point x="167" y="-51" type="line"/>
      <point x="61" y="-51" type="line"/>
      <point x="-20" y="-248" type="line"/>
    </contour>
    <component base="r"/>
  </outline>
</glyph>
<glyph name="tcedilla" format="1">
  <advance width="373"/>
  <unicode hex="0163"/>
  <outline>
    <contour>
      <point x="334" y="13" type="curve"/>
      <point x="334" y="98" type="line"/>
      <point x="315" y="85"/>
      <point x="289" y="77"/>
      <point x="265" y="77" type="curve" smooth="yes"/>
      <point x="218" y="77"/>
      <point x="194" y="102"/>
      <point x="194" y="151" type="curve" smooth="yes"/>
      <point x="194" y="631" type="line"/>
      <point x="98" y="631" type="line"/>
      <point x="98" y="153" type="line"/>
      <point x="98" y="52"/>
      <point x="145" y="-5"/>
      <point x="254" y="-5" type="curve" smooth="yes"/>
      <point x="276" y="-5"/>
      <point x="312" y="1"/>
    </contour>
    <contour>
      <point x="328" y="433" type="line"/>
      <point x="328" y="507" type="line"/>
      <point x="19" y="507" type="line"/>
      <point x="19" y="433" type="line"/>
    </contour>
    <component base="cedilla" xOffset="-38"/>
  </outline>
</glyph>
<glyph name="florin" format="1">
  <advance width="423"/>
  <unicode hex="0192"/>
  <outline>
    <contour>
      <point x="189" y="-71" type="curve" smooth="yes"/>
      <point x="283" y="486" type="line" smooth="yes"/>
      <point x="296" y="559"/>
      <point x="323" y="599"/>
      <point x="375" y="599" type="curve" smooth="yes"/>
      <point x="395" y="599"/>
      <point x="415" y="595"/>
      <point x="432" y="588" type="curve"/>
      <point x="432" y="671" type="line"/>
      <point x="413" y="678"/>
      <point x="382" y="680"/>
      <point x="361" y="680" type="curve" smooth="yes"/>
      <point x="259" y="680"/>
      <point x="208" y="609"/>
      <point x="189" y="494" type="curve" smooth="yes"/>
      <point x="95" y="-63" type="line" smooth="yes"/>
      <point x="83" y="-136"/>
      <point x="58" y="-175"/>
      <point x="5" y="-175" type="curve" smooth="yes"/>
      <point x="-19" y="-175"/>
      <point x="-39" y="-171"/>
      <point x="-58" y="-163" type="curve"/>
      <point x="-58" y="-246" type="line"/>
      <point x="-40" y="-252"/>
      <point x="-8" y="-257"/>
      <point x="17" y="-257" type="curve" smooth="yes"/>
      <point x="119" y="-257"/>
      <point x="170" y="-185"/>
    </contour>
    <contour>
      <point x="362" y="301" type="line"/>
      <point x="362" y="375" type="line"/>
      <point x="62" y="375" type="line"/>
      <point x="62" y="301" type="line"/>
    </contour>
  </outline>
</glyph>
<glyph name="Tcommaaccent" format="1">
  <advance width="497"/>
  <unicode hex="021A"/>
  <outline>
    <contour>
      <point x="298" y="0" type="line"/>
      <point x="298" y="666" type="line"/>
      <point x="199" y="666" type="line"/>
      <point x="199" y="0" type="line"/>
    </contour>
    <contour>
      <point x="187" y="-248" type="line"/>
      <point x="299" y="-51" type="line"/>
      <point x="193" y="-51" type="line"/>
      <point x="112" y="-248" type="line"/>
    </contour>
    <contour>
      <point x="476" y="590" type="line"/>
      <point x="476" y="674" type="line"/>
      <point x="21" y="674" type="line"/>
      <point x="21" y="590" type="line"/>
    </contour>
  </outline>
</glyph>
<glyph name="circumflex" format="1">
  <advance width="440"/>
  <unicode hex="02C6"/>
  <outline>
    <contour>
      <point x="136" y="637" type="line"/>
      <point x="219" y="740" type="line"/>
      <point x="303" y="637" type="line"/>
      <point x="397" y="637" type="line"/>
      <point x="263" y="798" type="line"/>
      <point x="176" y="798" type="line"/>
      <point x="42" y="637" type="line"/>
    </contour>
  </outline>
</glyph>
<glyph name="caron" format="1">
  <advance width="440"/>
  <unicode hex="02C7"/>
  <outline>
    <contour>
      <point x="263" y="637" type="line"/>
      <point x="397" y="798" type="line"/>
      <point x="303" y="798" type="line"/>
      <point x="220" y="695" type="line"/>
      <point x="136" y="798" type="line"/>
      <point x="42" y="798" type="line"/>
      <point x="176" y="637" type="line"/>
    </contour>
  </outline>
</glyph>
<glyph name="macronmod" format="1">
  <advance width="440"/>
  <unicode hex="02C9"/>
  <outline>
    <contour>
      <point x="370" y="683" type="line"/>
      <point x="370" y="749" type="line"/>
      <point x="70" y="749" type="line"/>
      <point x="70" y="683" type="line"/>
    </contour>
  </outline>
</glyph>
<glyph name="breve" format="1">
  <advance width="440"/>
  <unicode hex="02D8"/>
  <outline>
    <contour>
      <point x="392" y="798" type="curve"/>
      <point x="316" y="798" type="line"/>
      <point x="316" y="742"/>
      <point x="287" y="699"/>
      <point x="220" y="699" type="curve" smooth="yes"/>
      <point x="153" y="699"/>
      <point x="124" y="742"/>
      <point x="124" y="798" type="curve"/>
      <point x="48" y="798" type="line"/>
      <point x="48" y="696"/>
      <point x="107" y="634"/>
      <point x="220" y="634" type="curve"/>
      <point x="333" y="634"/>
      <point x="392" y="696"/>
    </contour>
  </outline>
</glyph>
<glyph name="dotaccent" format="1">
  <advance width="440"/>
  <unicode hex="02D9"/>
  <outline>
    <contour>
      <point x="279" y="721" type="curve" smooth="yes"/>
      <point x="279" y="754"/>
      <point x="254" y="779"/>
      <point x="220" y="779" type="curve" smooth="yes"/>
      <point x="186" y="779"/>
      <point x="161" y="754"/>
      <point x="161" y="721" type="curve" smooth="yes"/>
      <point x="161" y="688"/>
      <point x="186" y="662"/>
      <point x="220" y="662" type="curve" smooth="yes"/>
      <point x="254" y="662"/>
      <point x="279" y="688"/>
    </contour>
  </outline>
</glyph>
<glyph name="ring" format="1">
  <advance width="440"/>
  <unicode hex="02DA"/>
  <outline>
    <contour>
      <point x="333" y="718" type="curve" smooth="yes"/>
      <point x="333" y="781"/>
      <point x="282" y="832"/>
      <point x="219" y="832" type="curve" smooth="yes"/>
      <point x="157" y="832"/>
      <point x="106" y="781"/>
      <point x="106" y="718" type="curve" smooth="yes"/>
      <point x="106" y="655"/>
      <point x="157" y="605"/>
      <point x="219" y="605" type="curve" smooth="yes"/>
      <point x="282" y="605"/>
      <point x="333" y="655"/>
    </contour>
    <contour>
      <point x="166" y="719" type="curve" smooth="yes"/>
      <point x="166" y="749"/>
      <point x="189" y="774"/>
      <point x="219" y="774" type="curve" smooth="yes"/>
      <point x="250" y="774"/>
      <point x="273" y="749"/>
      <point x="273" y="719" type="curve" smooth="yes"/>
      <point x="273" y="690"/>
      <point x="250" y="665"/>
      <point x="219" y="665" type="curve" smooth="yes"/>
      <point x="189" y="665"/>
      <point x="166" y="690"/>
    </contour>
  </outline>
</glyph>
<glyph name="ogonek" format="1">
  <advance width="440"/>
  <unicode hex="02DB"/>
  <outline>
    <contour>
      <point x="326" y="-214" type="curve"/>
      <point x="326" y="-143" type="line"/>
      <point x="308" y="-156"/>
      <point x="281" y="-167"/>
      <point x="253" y="-167" type="curve" smooth="yes"/>
      <point x="217" y="-167"/>
      <point x="194" y="-149"/>
      <point x="194" y="-115" type="curve" smooth="yes"/>
      <point x="194" y="-65"/>
      <point x="247" y="-20"/>
      <point x="308" y="12" type="curve"/>
      <point x="272" y="56" type="line"/>
      <point x="206" y="31"/>
      <point x="114" y="-33"/>
      <point x="114" y="-123" type="curve" smooth="yes"/>
      <point x="114" y="-185"/>
      <point x="155" y="-235"/>
      <point x="240" y="-235" type="curve" smooth="yes"/>
      <point x="273" y="-235"/>
      <point x="303" y="-228"/>
    </contour>
  </outline>
</glyph>
<glyph name="tilde" format="1">
  <advance width="440"/>
  <unicode hex="02DC"/>
  <outline>
    <contour>
      <point x="169" y="691" type="curve" smooth="yes"/>
      <point x="204" y="691"/>
      <point x="242" y="649"/>
      <point x="295" y="649" type="curve" smooth="yes"/>
      <point x="341" y="649"/>
      <point x="380" y="675"/>
      <point x="402" y="722" type="curve"/>
      <point x="348" y="763" type="line"/>
      <point x="336" y="740"/>
      <point x="320" y="720"/>
      <point x="290" y="720" type="curve" smooth="yes"/>
      <point x="249" y="720"/>
      <point x="214" y="761"/>
      <point x="155" y="761" type="curve" smooth="yes"/>
      <point x="109" y="761"/>
      <point x="69" y="727"/>
      <point x="51" y="688" type="curve"/>
      <point x="98" y="644" type="line"/>
      <point x="118" y="674"/>
      <point x="135" y="691"/>
    </contour>
  </outline>
</glyph>
<glyph name="hungarumlaut" format="1">
  <advance width="440"/>
  <unicode hex="02DD"/>
  <outline>
    <contour>
      <point x="271" y="637" type="line"/>
      <point x="405" y="798" type="line"/>
      <point x="298" y="798" type="line"/>
      <point x="199" y="637" type="line"/>
    </contour>
    <contour>
      <point x="108" y="637" type="line"/>
      <point x="231" y="798" type="line"/>
      <point x="129" y="798" type="line"/>
      <point x="35" y="637" type="line"/>
    </contour>
  </outline>
</glyph>
<glyph name="pi" format="1">
  <advance width="588"/>
  <unicode hex="03C0"/>
  <outline>
    <contour>
      <point x="210" y="178" type="curve" smooth="yes"/>
      <point x="210" y="467" type="line"/>
      <point x="115" y="467" type="line"/>
      <point x="115" y="171" type="line"/>
      <point x="115" y="98"/>
      <point x="94" y="81"/>
      <point x="40" y="81" type="curve"/>
      <point x="40" y="0" type="line"/>
      <point x="147" y="0"/>
      <point x="210" y="40"/>
    </contour>
    <contour>
      <point x="480" y="0" type="line"/>
      <point x="480" y="467" type="line"/>
      <point x="385" y="467" type="line"/>
      <point x="385" y="0" type="line"/>
    </contour>
    <contour>
      <point x="572" y="433" type="line"/>
      <point x="572" y="507" type="line"/>
      <point x="23" y="507" type="line"/>
      <point x="23" y="433" type="line"/>
    </contour>
  </outline>
</glyph>
<glyph name="danda" format="1">
  <advance width="261"/>
  <unicode hex="0964"/>
  <outline>
    <contour>
      <point x="102" y="-10" type="line"/>
      <point x="159" y="-10" type="line"/>
      <point x="159" y="461" type="line"/>
      <point x="102" y="461" type="line"/>
    </contour>
  </outline>
</glyph>
<glyph name="grAdakbindi" format="1">
  <unicode hex="0A01"/>
  <outline>
    <contour>
      <point x="36" y="571" type="curve"/>
      <point x="13" y="584" type="line"/>
      <point x="-22" y="542"/>
      <point x="-53" y="527"/>
      <point x="-105" y="526" type="curve"/>
      <point x="-133" y="541"/>
      <point x="-151" y="557"/>
      <point x="-170" y="584" type="curve"/>
      <point x="-195" y="571" type="line"/>
      <point x="-179" y="519"/>
      <point x="-135" y="484"/>
      <point x="-79" y="484" type="curve" smooth="yes"/>
      <point x="-23" y="484"/>
      <point x="21" y="519"/>
    </contour>
    <contour>
      <point x="-45" y="618" type="curve" smooth="yes"/>
      <point x="-45" y="637"/>
      <point x="-61" y="652"/>
      <point x="-80" y="652" type="curve" smooth="yes"/>
      <point x="-99" y="652"/>
      <point x="-115" y="637"/>
      <point x="-115" y="618" type="curve" smooth="yes"/>
      <point x="-115" y="598"/>
      <point x="-99" y="583"/>
      <point x="-80" y="583" type="curve" smooth="yes"/>
      <point x="-61" y="583"/>
      <point x="-45" y="598"/>
    </contour>
    <contour>
      <point x="-79" y="442" type="move" name="_top"/>
    </contour>
  </outline>
</glyph>
<glyph name="grBindi" format="1">
  <unicode hex="0A02"/>
  <outline>
    <contour>
      <point x="-44" y="526" type="curve" smooth="yes"/>
      <point x="-44" y="546"/>
      <point x="-60" y="561"/>
      <point x="-78" y="561" type="curve" smooth="yes"/>
      <point x="-96" y="561"/>
      <point x="-113" y="546"/>
      <point x="-113" y="526" type="curve" smooth="yes"/>
      <point x="-113" y="507"/>
      <point x="-97" y="491"/>
      <point x="-78" y="491" type="curve" smooth="yes"/>
      <point x="-60" y="491"/>
      <point x="-44" y="507"/>
    </contour>
    <contour>
      <point x="-78" y="442" type="move" name="_top"/>
    </contour>
  </outline>
</glyph>
<glyph name="grVisarga" format="1">
  <advance width="327"/>
  <unicode hex="0A03"/>
  <outline>
    <contour>
      <point x="247" y="345" type="curve" smooth="yes"/>
      <point x="247" y="395"/>
      <point x="215" y="434"/>
      <point x="158" y="434" type="curve" smooth="yes"/>
      <point x="107" y="434"/>
      <point x="80" y="405"/>
      <point x="80" y="349" type="curve" smooth="yes"/>
      <point x="80" y="299"/>
      <point x="110" y="260"/>
      <point x="169" y="260" type="curve" smooth="yes"/>
      <point x="223" y="260"/>
      <point x="247" y="292"/>
    </contour>
    <contour>
      <point x="247" y="127" type="curve" smooth="yes"/>
      <point x="247" y="177"/>
      <point x="215" y="216"/>
      <point x="158" y="216" type="curve" smooth="yes"/>
      <point x="107" y="216"/>
      <point x="80" y="185"/>
      <point x="80" y="131" type="curve" smooth="yes"/>
      <point x="80" y="81"/>
      <point x="110" y="42"/>
      <point x="169" y="42" type="curve" smooth="yes"/>
      <point x="223" y="42"/>
      <point x="247" y="72"/>
    </contour>
    <contour>
      <point x="134" y="79" type="curve"/>
      <point x="128" y="91"/>
      <point x="123" y="111"/>
      <point x="123" y="129" type="curve" smooth="yes"/>
      <point x="123" y="167"/>
      <point x="135" y="184"/>
      <point x="163" y="184" type="curve" smooth="yes"/>
      <point x="175" y="184"/>
      <point x="185" y="182"/>
      <point x="193" y="178" type="curve"/>
      <point x="199" y="167"/>
      <point x="204" y="147"/>
      <point x="204" y="128" type="curve" smooth="yes"/>
      <point x="204" y="89"/>
      <point x="192" y="74"/>
      <point x="164" y="74" type="curve" smooth="yes"/>
      <point x="153" y="74"/>
      <point x="142" y="75"/>
    </contour>
    <contour>
      <point x="134" y="298" type="curve"/>
      <point x="128" y="310"/>
      <point x="123" y="329"/>
      <point x="123" y="348" type="curve" smooth="yes"/>
      <point x="123" y="386"/>
      <point x="135" y="403"/>
      <point x="163" y="403" type="curve" smooth="yes"/>
      <point x="175" y="403"/>
      <point x="185" y="400"/>
      <point x="193" y="397" type="curve"/>
      <point x="199" y="386"/>
      <point x="204" y="367"/>
      <point x="204" y="347" type="curve" smooth="yes"/>
      <point x="204" y="308"/>
      <point x="192" y="293"/>
      <point x="164" y="293" type="curve" smooth="yes"/>
      <point x="153" y="293"/>
      <point x="142" y="294"/>
    </contour>
  </outline>
</glyph>
<glyph name="grA" format="1">
  <advance width="507"/>
  <unicode hex="0A05"/>
  <outline>
    <contour>
      <point x="313" y="265" type="curve" smooth="yes"/>
      <point x="313" y="319"/>
      <point x="299" y="369"/>
      <point x="276" y="374" type="curve" smooth="yes"/>
      <point x="255" y="378"/>
      <point x="191" y="357"/>
      <point x="126" y="294" type="curve"/>
      <point x="137" y="265" type="line"/>
      <point x="175" y="295"/>
      <point x="211" y="313"/>
      <point x="253" y="320" type="curve"/>
      <point x="262" y="295"/>
      <point x="266" y="261"/>
      <point x="267" y="228" type="curve"/>
      <point x="222" y="163"/>
      <point x="197" y="109"/>
      <point x="196" y="88" type="curve" smooth="yes"/>
      <point x="195" y="72"/>
      <point x="223" y="58"/>
      <point x="245" y="57" type="curve"/>
      <point x="281" y="114"/>
      <point x="313" y="193"/>
    </contour>
    <contour>
      <point x="153" y="310" type="curve" smooth="yes"/>
      <point x="154" y="379"/>
      <point x="110" y="442"/>
      <point x="38" y="442" type="curve" smooth="yes"/>
      <point x="-29" y="442" type="line"/>
      <point x="-29" y="398" type="line"/>
      <point x="71" y="398" type="line"/>
      <point x="89" y="368"/>
      <point x="97" y="331"/>
      <point x="97" y="282" type="curve"/>
      <point x="58" y="233"/>
      <point x="42" y="202"/>
      <point x="41" y="186" type="curve" smooth="yes"/>
      <point x="40" y="172"/>
      <point x="62" y="154"/>
      <point x="86" y="150" type="curve"/>
      <point x="124" y="193"/>
      <point x="153" y="253"/>
    </contour>
    <contour>
      <point x="419" y="285" type="curve"/>
      <point x="418" y="345" type="line"/>
      <point x="374" y="318"/>
      <point x="335" y="288"/>
      <point x="296" y="241" type="curve"/>
      <point x="302" y="215" type="line"/>
      <point x="347" y="253"/>
      <point x="378" y="270"/>
    </contour>
    <contour>
      <point x="454" y="0" type="line"/>
      <point x="454" y="398" type="line"/>
      <point x="536" y="398" type="line"/>
      <point x="536" y="442" type="line"/>
      <point x="397" y="442" type="line"/>
      <point x="397" y="0" type="line"/>
    </contour>
    <contour>
      <point x="428" y="442" type="move" name="top"/>
    </contour>
  </outline>
</glyph>
<glyph name="grAI" format="1">
  <advance width="509"/>
  <unicode hex="0A10"/>
  <outline>
    <component base="grA"/>
    <component base="grmAI" xOffset="508" yOffset="-3"/>
    <contour>
      <point x="543" y="442" type="move" name="top"/>
    </contour>
  </outline>
</glyph>
<glyph name="grOO" format="1">
  <advance width="470"/>
  <unicode hex="0A13"/>
  <outline>
    <contour>
      <point x="409" y="139" type="curve" smooth="yes"/>
      <point x="409" y="193"/>
      <point x="381" y="242"/>
      <point x="336" y="277" type="curve"/>
      <point x="307" y="256" type="line"/>
      <point x="335" y="230"/>
      <point x="351" y="193"/>
      <point x="351" y="154" type="curve" smooth="yes"/>
      <point x="351" y="84"/>
      <point x="295" y="39"/>
      <point x="201" y="39" type="curve"/>
      <point x="134" y="88"/>
      <point x="98" y="194"/>
      <point x="98" y="310" type="curve" smooth="yes"/>
      <point x="98" y="468"/>
      <point x="153" y="575"/>
      <point x="291" y="575" type="curve" smooth="yes"/>
      <point x="338" y="575"/>
      <point x="382" y="561"/>
      <point x="440" y="536" type="curve"/>
      <point x="459" y="568" type="line"/>
      <point x="398" y="598"/>
      <point x="347" y="616"/>
      <point x="285" y="616" type="curve" smooth="yes"/>
      <point x="125" y="616"/>
      <point x="39" y="496"/>
      <point x="39" y="317" type="curve" smooth="yes"/>
      <point x="39" y="140"/>
      <point x="133" y="-4"/>
      <point x="248" y="-4" type="curve" smooth="yes"/>
      <point x="339" y="-4"/>
      <point x="409" y="56"/>
    </contour>
    <contour>
      <point x="237" y="230" type="line" smooth="yes"/>
      <point x="379" y="230"/>
      <point x="438" y="309"/>
      <point x="442" y="404" type="curve"/>
      <point x="386" y="404" type="line"/>
      <point x="382" y="331"/>
      <point x="344" y="273"/>
      <point x="237" y="273" type="curve" smooth="yes"/>
      <point x="83" y="273" type="line"/>
      <point x="83" y="229" type="line"/>
    </contour>
    <contour>
      <point x="499" y="398" type="line"/>
      <point x="499" y="442" type="line"/>
      <point x="-29" y="442" type="line"/>
      <point x="-29" y="398" type="line"/>
    </contour>
  </outline>
</glyph>
<glyph name="grKA" format="1">
  <advance width="466"/>
  <unicode hex="0A15"/>
  <outline>
    <contour>
      <point x="436" y="4" type="line"/>
      <point x="377" y="202"/>
      <point x="304" y="301"/>
      <point x="176" y="301" type="curve" smooth="yes"/>
      <point x="92" y="301"/>
      <point x="34" y="251"/>
      <point x="34" y="173" type="curve" smooth="yes"/>
      <point x="34" y="95"/>
      <point x="101" y="43"/>
      <point x="183" y="43" type="curve" smooth="yes"/>
      <point x="289" y="43"/>
      <point x="375" y="123"/>
      <point x="375" y="297" type="curve" smooth="yes"/>
      <point x="375" y="334"/>
      <point x="371" y="369"/>
      <point x="366" y="410" type="curve"/>
      <point x="307" y="410" type="line"/>
      <point x="313" y="368"/>
      <point x="317" y="330"/>
      <point x="317" y="294" type="curve" smooth="yes"/>
      <point x="317" y="150"/>
      <point x="252" y="84"/>
      <point x="171" y="84" type="curve" smooth="yes"/>
      <point x="141" y="84"/>
      <point x="111" y="94"/>
      <point x="91" y="116" type="curve"/>
      <point x="90" y="125"/>
      <point x="88" y="136"/>
      <point x="88" y="148" type="curve" smooth="yes"/>
      <point x="88" y="218"/>
      <point x="127" y="255"/>
      <point x="188" y="255" type="curve" smooth="yes"/>
      <point x="232" y="255"/>
      <point x="270" y="235"/>
      <point x="306" y="191" type="curve"/>
      <point x="408" y="-6" type="line"/>
    </contour>
    <contour>
      <point x="495" y="398" type="line"/>
      <point x="495" y="442" type="line"/>
      <point x="-29" y="442" type="line"/>
      <point x="-29" y="398" type="line"/>
    </contour>
    <contour>
      <point x="336" y="442" type="move" name="top"/>
    </contour>
    <contour>
      <point x="228" y="0" type="move" name="bottom"/>
    </contour>
  </outline>
</glyph>
<glyph name="grGA" format="1">
  <advance width="520"/>
  <unicode hex="0A17"/>
  <outline>
    <contour>
      <point x="299" y="116" type="curve" smooth="yes"/>
      <point x="299" y="398" type="line"/>
      <point x="411" y="398" type="line"/>
      <point x="411" y="0" type="line"/>
      <point x="468" y="0" type="line"/>
      <point x="468" y="398" type="line"/>
      <point x="549" y="398" type="line"/>
      <point x="549" y="442" type="line"/>
      <point x="-29" y="442" type="line"/>
      <point x="-29" y="398" type="line"/>
      <point x="242" y="398" type="line"/>
      <point x="242" y="275" type="line"/>
      <point x="142" y="275" type="line" smooth="yes"/>
      <point x="71" y="275"/>
      <point x="29" y="243"/>
      <point x="29" y="177" type="curve" smooth="yes"/>
      <point x="29" y="81"/>
      <point x="125" y="-4"/>
      <point x="207" y="-4" type="curve" smooth="yes"/>
      <point x="261" y="-4"/>
      <point x="299" y="32"/>
    </contour>
    <contour>
      <point x="88" y="108" type="curve"/>
      <point x="86" y="127"/>
      <point x="86" y="143"/>
      <point x="86" y="159" type="curve" smooth="yes"/>
      <point x="86" y="202"/>
      <point x="98" y="231"/>
      <point x="168" y="231" type="curve" smooth="yes"/>
      <point x="242" y="231" type="line"/>
      <point x="242" y="115" type="line" smooth="yes"/>
      <point x="242" y="66"/>
      <point x="226" y="39"/>
      <point x="191" y="39" type="curve" smooth="yes"/>
      <point x="146" y="39"/>
      <point x="109" y="76"/>
    </contour>
  </outline>
</glyph>
<glyph name="grGHA" format="1">
  <advance width="542"/>
  <unicode hex="0A18"/>
  <outline>
    <contour>
      <point x="489" y="0" type="line"/>
      <point x="489" y="398" type="line"/>
      <point x="571" y="398" type="line"/>
      <point x="571" y="442" type="line"/>
      <point x="433" y="442" type="line"/>
      <point x="433" y="183" type="line"/>
      <point x="402" y="156"/>
      <point x="371" y="140"/>
      <point x="337" y="140" type="curve" smooth="yes"/>
      <point x="313" y="140"/>
      <point x="296" y="150"/>
      <point x="284" y="192" type="curve"/>
      <point x="265" y="170" type="line"/>
      <point x="284" y="111"/>
      <point x="315" y="89"/>
      <point x="352" y="89" type="curve" smooth="yes"/>
      <point x="377" y="89"/>
      <point x="408" y="102"/>
      <point x="433" y="120" type="curve"/>
      <point x="436" y="119" type="line"/>
      <point x="433" y="55" type="line"/>
      <point x="433" y="0" type="line"/>
    </contour>
    <contour>
      <point x="317" y="317" type="curve" smooth="yes"/>
      <point x="317" y="356"/>
      <point x="312" y="393"/>
      <point x="306" y="427" type="curve"/>
      <point x="291" y="435"/>
      <point x="274" y="435"/>
      <point x="259" y="427" type="curve"/>
      <point x="254" y="388"/>
      <point x="251" y="346"/>
      <point x="251" y="314" type="curve" smooth="yes"/>
      <point x="251" y="281"/>
      <point x="252" y="238"/>
      <point x="256" y="205" type="curve"/>
      <point x="227" y="155"/>
      <point x="192" y="132"/>
      <point x="148" y="132" type="curve" smooth="yes"/>
      <point x="121" y="132"/>
      <point x="95" y="145"/>
      <point x="86" y="167" type="curve"/>
      <point x="129" y="226"/>
      <point x="146" y="271"/>
      <point x="146" y="323" type="curve" smooth="yes"/>
      <point x="146" y="385"/>
      <point x="98" y="442"/>
      <point x="20" y="442" type="curve" smooth="yes"/>
      <point x="-29" y="442" type="line"/>
      <point x="-29" y="398" type="line" smooth="yes"/>
      <point x="26" y="398" type="line" smooth="yes"/>
      <point x="46" y="398"/>
      <point x="63" y="396"/>
      <point x="80" y="391" type="curve"/>
      <point x="90" y="372"/>
      <point x="94" y="351"/>
      <point x="94" y="328" type="curve" smooth="yes"/>
      <point x="94" y="289"/>
      <point x="80" y="257"/>
      <point x="43" y="205" type="curve" smooth="yes"/>
      <point x="31" y="187"/>
      <point x="29" y="182"/>
      <point x="29" y="174" type="curve" smooth="yes"/>
      <point x="29" y="137"/>
      <point x="86" y="89"/>
      <point x="155" y="89" type="curve" smooth="yes"/>
      <point x="241" y="89"/>
      <point x="317" y="161"/>
    </contour>
  </outline>
</glyph>
<glyph name="grNGA" format="1">
  <advance width="428"/>
  <unicode hex="0A19"/>
  <outline>
    <contour>
      <point x="386" y="179" type="curve" smooth="yes"/>
      <point x="386" y="241"/>
      <point x="345" y="284"/>
      <point x="280" y="284" type="curve" smooth="yes"/>
      <point x="146" y="284" type="line"/>
      <point x="146" y="406" type="line"/>
      <point x="90" y="406" type="line"/>
      <point x="90" y="242" type="line"/>
      <point x="308" y="242" type="line"/>
      <point x="322" y="228"/>
      <point x="329" y="204"/>
      <point x="329" y="179" type="curve" smooth="yes"/>
      <point x="329" y="105"/>
      <point x="267" y="37"/>
      <point x="171" y="37" type="curve" smooth="yes"/>
      <point x="147" y="37"/>
      <point x="127" y="41"/>
      <point x="106" y="51" type="curve"/>
      <point x="101" y="62"/>
      <point x="100" y="73"/>
      <point x="100" y="85" type="curve" smooth="yes"/>
      <point x="100" y="117"/>
      <point x="122" y="137"/>
      <point x="159" y="137" type="curve" smooth="yes"/>
      <point x="175" y="137"/>
      <point x="190" y="134"/>
      <point x="209" y="127" type="curve"/>
      <point x="375" y="-7" type="line"/>
      <point x="383" y="-5"/>
      <point x="390" y="1"/>
      <point x="395" y="12" type="curve"/>
      <point x="255" y="133" type="line" smooth="yes"/>
      <point x="217" y="166"/>
      <point x="180" y="178"/>
      <point x="141" y="178" type="curve" smooth="yes"/>
      <point x="82" y="178"/>
      <point x="42" y="143"/>
      <point x="42" y="90" type="curve" smooth="yes"/>
      <point x="42" y="38"/>
      <point x="85" y="-4"/>
      <point x="176" y="-4" type="curve" smooth="yes"/>
      <point x="286" y="-4"/>
      <point x="386" y="80"/>
    </contour>
    <contour>
      <point x="457" y="398" type="line"/>
      <point x="457" y="442" type="line"/>
      <point x="-29" y="442" type="line"/>
      <point x="-29" y="398" type="line"/>
    </contour>
    <contour>
      <point x="312" y="442" type="move" name="top"/>
    </contour>
    <contour>
      <point x="226" y="0" type="move" name="bottom"/>
    </contour>
  </outline>
</glyph>
<glyph name="grCA" format="1">
  <advance width="413"/>
  <unicode hex="0A1A"/>
  <outline>
    <contour>
      <point x="361" y="114" type="curve" smooth="yes"/>
      <point x="361" y="398" type="line"/>
      <point x="442" y="398" type="line"/>
      <point x="442" y="442" type="line"/>
      <point x="-29" y="442" type="line"/>
      <point x="-29" y="398" type="line"/>
      <point x="304" y="398" type="line"/>
      <point x="304" y="270" type="line"/>
      <point x="114" y="270" type="line"/>
      <point x="48" y="320" type="line"/>
      <point x="31" y="318"/>
      <point x="20" y="307"/>
      <point x="14" y="290" type="curve"/>
      <point x="16" y="266"/>
      <point x="36" y="239"/>
      <point x="76" y="222" type="curve"/>
      <point x="84" y="70"/>
      <point x="165" y="-4"/>
      <point x="259" y="-4" type="curve" smooth="yes"/>
      <point x="322" y="-4"/>
      <point x="361" y="36"/>
    </contour>
    <contour>
      <point x="128" y="185" type="curve" smooth="yes"/>
      <point x="123" y="225" type="line"/>
      <point x="304" y="225" type="line"/>
      <point x="304" y="112" type="line" smooth="yes"/>
      <point x="304" y="63"/>
      <point x="288" y="41"/>
      <point x="251" y="39" type="curve" smooth="yes"/>
      <point x="191" y="42"/>
      <point x="138" y="97"/>
    </contour>
    <contour>
      <point x="333" y="442" type="move" name="top"/>
    </contour>
    <contour>
      <point x="243" y="0" type="move" name="bottom"/>
    </contour>
  </outline>
</glyph>
<glyph name="grCHA" format="1">
  <advance width="444"/>
  <unicode hex="0A1B"/>
  <outline>
    <contour>
      <point x="414" y="99" type="curve" smooth="yes"/>
      <point x="414" y="159"/>
      <point x="370" y="197"/>
      <point x="249" y="197" type="curve" smooth="yes"/>
      <point x="152" y="197" type="line"/>
      <point x="140" y="208"/>
      <point x="135" y="221"/>
      <point x="135" y="238" type="curve" smooth="yes"/>
      <point x="135" y="263"/>
      <point x="151" y="281"/>
      <point x="187" y="281" type="curve" smooth="yes"/>
      <point x="365" y="281" type="line"/>
      <point x="365" y="417" type="line"/>
      <point x="308" y="417" type="line"/>
      <point x="308" y="321" type="line"/>
      <point x="170" y="321" type="line" smooth="yes"/>
      <point x="108" y="321"/>
      <point x="75" y="288"/>
      <point x="75" y="241" type="curve" smooth="yes"/>
      <point x="75" y="193"/>
      <point x="111" y="157"/>
      <point x="173" y="157" type="curve" smooth="yes"/>
      <point x="248" y="157" type="line" smooth="yes"/>
      <point x="295" y="157"/>
      <point x="322" y="152"/>
      <point x="345" y="144" type="curve"/>
      <point x="353" y="131"/>
      <point x="356" y="118"/>
      <point x="356" y="100" type="curve" smooth="yes"/>
      <point x="356" y="65"/>
      <point x="330" y="36"/>
      <point x="227" y="36" type="curve" smooth="yes"/>
      <point x="166" y="36"/>
      <point x="130" y="42"/>
      <point x="103" y="51" type="curve"/>
      <point x="94" y="64"/>
      <point x="91" y="79"/>
      <point x="91" y="98" type="curve" smooth="yes"/>
      <point x="91" y="130"/>
      <point x="108" y="153"/>
      <point x="141" y="168" type="curve"/>
      <point x="113" y="186" type="line"/>
      <point x="70" y="175"/>
      <point x="35" y="147"/>
      <point x="35" y="95" type="curve" smooth="yes"/>
      <point x="35" y="30"/>
      <point x="95" y="-4"/>
      <point x="227" y="-4" type="curve" smooth="yes"/>
      <point x="369" y="-4"/>
      <point x="414" y="45"/>
    </contour>
    <contour>
      <point x="248" y="21" type="line"/>
      <point x="248" y="172" type="line"/>
      <point x="202" y="172" type="line"/>
      <point x="202" y="21" type="line"/>
    </contour>
    <contour>
      <point x="473" y="398" type="line"/>
      <point x="473" y="442" type="line"/>
      <point x="-29" y="442" type="line"/>
      <point x="-29" y="398" type="line"/>
    </contour>
    <contour>
      <point x="336" y="442" type="move" name="top"/>
    </contour>
    <contour>
      <point x="226" y="0" type="move" name="bottom"/>
    </contour>
  </outline>
</glyph>
<glyph name="grJA" format="1">
  <advance width="400"/>
  <unicode hex="0A1C"/>
  <outline>
    <contour>
      <point x="135" y="0" type="line"/>
      <point x="135" y="225" type="line"/>
      <point x="292" y="225" type="line"/>
      <point x="292" y="0" type="line"/>
      <point x="348" y="0" type="line"/>
      <point x="348" y="398" type="line"/>
      <point x="429" y="398" type="line"/>
      <point x="429" y="442" type="line"/>
      <point x="-29" y="442" type="line"/>
      <point x="-29" y="398" type="line"/>
      <point x="292" y="398" type="line"/>
      <point x="292" y="270" type="line"/>
      <point x="125" y="270" type="line"/>
      <point x="60" y="320" type="line"/>
      <point x="43" y="318"/>
      <point x="31" y="307"/>
      <point x="25" y="290" type="curve"/>
      <point x="28" y="267"/>
      <point x="47" y="244"/>
      <point x="79" y="226" type="curve"/>
      <point x="79" y="0" type="line"/>
    </contour>
  </outline>
</glyph>
<glyph name="grJHA" format="1">
  <advance width="398"/>
  <unicode hex="0A1D"/>
  <outline>
    <contour>
      <point x="363" y="159" type="curve" smooth="yes"/>
      <point x="363" y="219"/>
      <point x="318" y="258"/>
      <point x="245" y="273" type="curve"/>
      <point x="192" y="254" type="line"/>
      <point x="160" y="276" type="line"/>
      <point x="120" y="273"/>
      <point x="85" y="262"/>
      <point x="43" y="242" type="curve"/>
      <point x="57" y="211" type="line"/>
      <point x="98" y="225"/>
      <point x="140" y="233"/>
      <point x="184" y="233" type="curve" smooth="yes"/>
      <point x="231" y="233"/>
      <point x="266" y="224"/>
      <point x="296" y="209" type="curve"/>
      <point x="303" y="193"/>
      <point x="307" y="178"/>
      <point x="307" y="162" type="curve" smooth="yes"/>
      <point x="306" y="109"/>
      <point x="265" y="86"/>
      <point x="184" y="78" type="curve"/>
      <point x="94" y="133" type="line"/>
      <point x="72" y="134"/>
      <point x="53" y="124"/>
      <point x="53" y="104" type="curve" smooth="yes"/>
      <point x="53" y="97"/>
      <point x="56" y="88"/>
      <point x="64" y="83" type="curve"/>
      <point x="95" y="66"/>
      <point x="151" y="48"/>
      <point x="195" y="48" type="curve" smooth="yes"/>
      <point x="282" y="48"/>
      <point x="363" y="83"/>
    </contour>
    <contour>
      <point x="288" y="12" type="curve"/>
      <point x="205" y="61" type="line"/>
      <point x="142" y="60" type="line"/>
      <point x="262" y="-5" type="line"/>
      <point x="275" y="-3"/>
      <point x="284" y="3"/>
    </contour>
    <contour>
      <point x="381" y="427" type="curve"/>
      <point x="322" y="427" type="line"/>
      <point x="307" y="336"/>
      <point x="245" y="284"/>
      <point x="190" y="267" type="curve"/>
      <point x="141" y="289"/>
      <point x="89" y="342"/>
      <point x="75" y="427" type="curve"/>
      <point x="25" y="427" type="line"/>
      <point x="47" y="312"/>
      <point x="137" y="241"/>
      <point x="200" y="241" type="curve" smooth="yes"/>
      <point x="274" y="241"/>
      <point x="360" y="303"/>
    </contour>
    <contour>
      <point x="427" y="398" type="line"/>
      <point x="427" y="442" type="line"/>
      <point x="-29" y="442" type="line"/>
      <point x="-29" y="398" type="line"/>
    </contour>
    <contour>
      <point x="352" y="442" type="move" name="top"/>
    </contour>
    <contour>
      <point x="207" y="0" type="move" name="bottom"/>
    </contour>
  </outline>
</glyph>
<glyph name="grNYA" format="1">
  <advance width="407"/>
  <unicode hex="0A1E"/>
  <outline>
    <contour>
      <point x="384" y="16" type="curve"/>
      <point x="370" y="57" type="line"/>
      <point x="337" y="47"/>
      <point x="314" y="43"/>
      <point x="290" y="43" type="curve" smooth="yes"/>
      <point x="240" y="43"/>
      <point x="212" y="62"/>
      <point x="212" y="96" type="curve" smooth="yes"/>
      <point x="212" y="102"/>
      <point x="214" y="110"/>
      <point x="215" y="118" type="curve"/>
      <point x="261" y="118"/>
      <point x="313" y="129"/>
      <point x="350" y="143" type="curve"/>
      <point x="356" y="167"/>
      <point x="345" y="189"/>
      <point x="323" y="194" type="curve"/>
      <point x="197" y="148" type="line"/>
      <point x="136" y="151"/>
      <point x="106" y="180"/>
      <point x="106" y="216" type="curve" smooth="yes"/>
      <point x="106" y="248"/>
      <point x="127" y="264"/>
      <point x="164" y="264" type="curve" smooth="yes"/>
      <point x="340" y="264" type="line"/>
      <point x="340" y="398" type="line"/>
      <point x="436" y="398" type="line"/>
      <point x="436" y="442" type="line"/>
      <point x="-29" y="442" type="line"/>
      <point x="-29" y="398" type="line"/>
      <point x="43" y="398" type="line"/>
      <point x="50" y="345"/>
      <point x="77" y="308"/>
      <point x="125" y="291" type="curve"/>
      <point x="125" y="287" type="line"/>
      <point x="78" y="281"/>
      <point x="50" y="255"/>
      <point x="50" y="213" type="curve" smooth="yes"/>
      <point x="50" y="158"/>
      <point x="98" y="124"/>
      <point x="181" y="119" type="curve"/>
      <point x="177" y="105"/>
      <point x="174" y="90"/>
      <point x="174" y="78" type="curve" smooth="yes"/>
      <point x="174" y="31"/>
      <point x="207" y="-4"/>
      <point x="289" y="-4" type="curve" smooth="yes"/>
      <point x="325" y="-4"/>
      <point x="355" y="4"/>
    </contour>
    <contour>
      <point x="102" y="398" type="curve"/>
      <point x="284" y="398" type="line"/>
      <point x="284" y="297" type="line"/>
      <point x="189" y="297" type="line" smooth="yes"/>
      <point x="147" y="301"/>
      <point x="106" y="335"/>
    </contour>
    <contour>
      <point x="313" y="442" type="move" name="top"/>
    </contour>
    <contour>
      <point x="216" y="0" type="move" name="bottom"/>
    </contour>
  </outline>
</glyph>
<glyph name="grTTA" format="1">
  <advance width="392"/>
  <unicode hex="0A1F"/>
  <outline>
    <contour>
      <point x="367" y="69" type="curve"/>
      <point x="318" y="95" type="line"/>
      <point x="293" y="72"/>
      <point x="265" y="51"/>
      <point x="234" y="39" type="curve"/>
      <point x="161" y="45"/>
      <point x="83" y="107"/>
      <point x="83" y="178" type="curve" smooth="yes"/>
      <point x="83" y="223"/>
      <point x="109" y="244"/>
      <point x="164" y="244" type="curve" smooth="yes"/>
      <point x="329" y="244" type="line"/>
      <point x="329" y="398" type="line"/>
      <point x="421" y="398" type="line"/>
      <point x="421" y="442" type="line"/>
      <point x="-29" y="442" type="line"/>
      <point x="-29" y="398" type="line"/>
      <point x="273" y="398" type="line"/>
      <point x="273" y="288" type="line"/>
      <point x="144" y="288" type="line" smooth="yes"/>
      <point x="71" y="288"/>
      <point x="25" y="250"/>
      <point x="25" y="189" type="curve" smooth="yes"/>
      <point x="25" y="85"/>
      <point x="152" y="-4"/>
      <point x="245" y="-4" type="curve" smooth="yes"/>
      <point x="280" y="-4"/>
      <point x="333" y="26"/>
    </contour>
    <contour>
      <point x="301" y="442" type="move" name="top"/>
    </contour>
    <contour>
      <point x="221" y="0" type="move" name="bottom"/>
    </contour>
  </outline>
</glyph>
<glyph name="grTTHA" format="1">
  <advance width="473"/>
  <unicode hex="0A20"/>
  <outline>
    <contour>
      <point x="431" y="146" type="curve" smooth="yes"/>
      <point x="431" y="238"/>
      <point x="357" y="296"/>
      <point x="237" y="296" type="curve" smooth="yes"/>
      <point x="117" y="296"/>
      <point x="42" y="238"/>
      <point x="42" y="146" type="curve" smooth="yes"/>
      <point x="42" y="53"/>
      <point x="117" y="-4"/>
      <point x="237" y="-4" type="curve" smooth="yes"/>
      <point x="357" y="-4"/>
      <point x="431" y="53"/>
    </contour>
    <contour>
      <point x="130" y="59" type="curve"/>
      <point x="111" y="83"/>
      <point x="100" y="110"/>
      <point x="100" y="146" type="curve" smooth="yes"/>
      <point x="100" y="215"/>
      <point x="141" y="254"/>
      <point x="236" y="254" type="curve" smooth="yes"/>
      <point x="275" y="254"/>
      <point x="307" y="250"/>
      <point x="343" y="236" type="curve"/>
      <point x="362" y="212"/>
      <point x="373" y="184"/>
      <point x="373" y="146" type="curve" smooth="yes"/>
      <point x="373" y="79"/>
      <point x="332" y="41"/>
      <point x="237" y="41" type="curve" smooth="yes"/>
      <point x="198" y="41"/>
      <point x="166" y="46"/>
    </contour>
    <contour>
      <point x="502" y="398" type="line"/>
      <point x="502" y="442" type="line"/>
      <point x="-29" y="442" type="line"/>
      <point x="-29" y="398" type="line"/>
    </contour>
    <contour>
      <point x="208" y="406" type="line"/>
      <point x="208" y="283" type="line"/>
      <point x="267" y="283" type="line"/>
      <point x="267" y="406" type="line"/>
    </contour>
    <contour>
      <point x="353" y="442" type="move" name="top"/>
    </contour>
    <contour>
      <point x="237" y="0" type="move" name="bottom"/>
    </contour>
  </outline>
</glyph>
<glyph name="grDDHA" format="1">
  <advance width="449"/>
  <unicode hex="0A22"/>
  <outline>
    <contour>
      <point x="426" y="88" type="curve" smooth="yes"/>
      <point x="426" y="141"/>
      <point x="384" y="182"/>
      <point x="305" y="182" type="curve" smooth="yes"/>
      <point x="244" y="182"/>
      <point x="195" y="157"/>
      <point x="141" y="118" type="curve"/>
      <point x="160" y="83" type="line"/>
      <point x="209" y="120"/>
      <point x="252" y="142"/>
      <point x="299" y="142" type="curve" smooth="yes"/>
      <point x="321" y="142"/>
      <point x="337" y="141"/>
      <point x="357" y="133" type="curve"/>
      <point x="365" y="119"/>
      <point x="369" y="104"/>
      <point x="369" y="87" type="curve" smooth="yes"/>
      <point x="369" y="57"/>
      <point x="346" y="34"/>
      <point x="296" y="34" type="curve" smooth="yes"/>
      <point x="177" y="34"/>
      <point x="123" y="140"/>
      <point x="108" y="258" type="curve"/>
      <point x="368" y="258" type="line"/>
      <point x="367" y="406" type="line"/>
      <point x="311" y="406" type="line"/>
      <point x="311" y="299" type="line"/>
      <point x="99" y="299" type="line"/>
      <point x="40" y="346" type="line"/>
      <point x="24" y="345"/>
      <point x="12" y="334"/>
      <point x="6" y="318" type="curve"/>
      <point x="8" y="294"/>
      <point x="28" y="269"/>
      <point x="60" y="253" type="curve"/>
      <point x="75" y="112"/>
      <point x="158" y="-4"/>
      <point x="302" y="-4" type="curve" smooth="yes"/>
      <point x="385" y="-4"/>
      <point x="426" y="39"/>
    </contour>
    <contour>
      <point x="468" y="398" type="line"/>
      <point x="468" y="442" type="line"/>
      <point x="-31" y="442" type="line"/>
      <point x="-31" y="398" type="line"/>
    </contour>
    <contour>
      <point x="339" y="442" type="move" name="top"/>
    </contour>
    <contour>
      <point x="245" y="0" type="move" name="bottom"/>
    </contour>
  </outline>
</glyph>
<glyph name="grNNA" format="1">
  <advance width="443"/>
  <unicode hex="0A23"/>
  <outline>
    <contour>
      <point x="410" y="77" type="curve"/>
      <point x="361" y="106" type="line"/>
      <point x="328" y="76"/>
      <point x="291" y="53"/>
      <point x="249" y="39" type="curve"/>
      <point x="169" y="42"/>
      <point x="83" y="105"/>
      <point x="83" y="176" type="curve" smooth="yes"/>
      <point x="83" y="218"/>
      <point x="106" y="244"/>
      <point x="165" y="244" type="curve" smooth="yes"/>
      <point x="267" y="244" type="line"/>
      <point x="267" y="364" type="line"/>
      <point x="269" y="366" type="line"/>
      <point x="378" y="282" type="line"/>
      <point x="397" y="282"/>
      <point x="415" y="294"/>
      <point x="423" y="312" type="curve"/>
      <point x="299" y="396" type="line"/>
      <point x="300" y="398" type="line"/>
      <point x="472" y="398" type="line"/>
      <point x="472" y="442" type="line"/>
      <point x="-29" y="442" type="line"/>
      <point x="-29" y="398" type="line"/>
      <point x="214" y="398" type="line"/>
      <point x="214" y="288" type="line"/>
      <point x="145" y="288" type="line" smooth="yes"/>
      <point x="68" y="288"/>
      <point x="25" y="246"/>
      <point x="25" y="188" type="curve" smooth="yes"/>
      <point x="25" y="80"/>
      <point x="158" y="-4"/>
      <point x="259" y="-4" type="curve" smooth="yes"/>
      <point x="307" y="-4"/>
      <point x="368" y="30"/>
    </contour>
    <contour>
      <point x="272" y="442" type="move" name="top"/>
    </contour>
    <contour>
      <point x="234" y="0" type="move" name="bottom"/>
    </contour>
  </outline>
</glyph>
<glyph name="grTA" format="1">
  <advance width="441"/>
  <unicode hex="0A24"/>
  <outline>
    <contour>
      <point x="403" y="137" type="curve" smooth="yes"/>
      <point x="403" y="218"/>
      <point x="326" y="279"/>
      <point x="196" y="279" type="curve" smooth="yes"/>
      <point x="99" y="279"/>
      <point x="90" y="260"/>
      <point x="90" y="241" type="curve" smooth="yes"/>
      <point x="90" y="236"/>
      <point x="90" y="232"/>
      <point x="92" y="227" type="curve"/>
      <point x="114" y="219"/>
      <point x="157" y="213"/>
      <point x="194" y="213" type="curve" smooth="yes"/>
      <point x="231" y="213"/>
      <point x="259" y="219"/>
      <point x="294" y="229" type="curve"/>
      <point x="328" y="212"/>
      <point x="346" y="183"/>
      <point x="346" y="142" type="curve" smooth="yes"/>
      <point x="346" y="91"/>
      <point x="300" y="39"/>
      <point x="184" y="39" type="curve"/>
      <point x="139" y="53"/>
      <point x="92" y="75"/>
      <point x="49" y="99" type="curve"/>
      <point x="29" y="69" type="line"/>
      <point x="86" y="23"/>
      <point x="152" y="-4"/>
      <point x="216" y="-4" type="curve" smooth="yes"/>
      <point x="316" y="-4"/>
      <point x="403" y="53"/>
    </contour>
    <contour>
      <point x="367" y="411" type="curve"/>
      <point x="307" y="411" type="line"/>
      <point x="306" y="360"/>
      <point x="295" y="310"/>
      <point x="272" y="263" type="curve"/>
      <point x="312" y="250" type="line"/>
      <point x="346" y="291"/>
      <point x="363" y="355"/>
    </contour>
    <contour>
      <point x="470" y="398" type="line"/>
      <point x="470" y="442" type="line"/>
      <point x="-29" y="442" type="line"/>
      <point x="-29" y="398" type="line"/>
    </contour>
    <contour>
      <point x="337" y="442" type="move" name="top"/>
    </contour>
    <contour>
      <point x="225" y="0" type="move" name="bottom"/>
    </contour>
  </outline>
</glyph>
<glyph name="grTHA" format="1">
  <advance width="418"/>
  <unicode hex="0A25"/>
  <outline>
    <contour>
      <point x="318" y="250" type="line"/>
      <point x="318" y="295" type="line"/>
      <point x="121" y="295" type="line"/>
      <point x="121" y="250" type="line"/>
    </contour>
    <component base="grDHA"/>
  </outline>
</glyph>
<glyph name="grDA" format="1">
  <advance width="417"/>
  <unicode hex="0A26"/>
  <outline>
    <contour>
      <point x="396" y="72" type="curve"/>
      <point x="363" y="96" type="line"/>
      <point x="321" y="64"/>
      <point x="287" y="45"/>
      <point x="250" y="36" type="curve"/>
      <point x="195" y="51"/>
      <point x="149" y="94"/>
      <point x="133" y="175" type="curve" smooth="yes"/>
      <point x="124" y="225" type="line"/>
      <point x="350" y="225" type="line"/>
      <point x="350" y="406" type="line"/>
      <point x="293" y="406" type="line"/>
      <point x="293" y="270" type="line"/>
      <point x="112" y="270" type="line"/>
      <point x="46" y="320" type="line"/>
      <point x="30" y="318"/>
      <point x="18" y="307"/>
      <point x="13" y="290" type="curve"/>
      <point x="15" y="266"/>
      <point x="36" y="239"/>
      <point x="73" y="222" type="curve"/>
      <point x="93" y="56"/>
      <point x="190" y="-4"/>
      <point x="258" y="-4" type="curve" smooth="yes"/>
      <point x="304" y="-4"/>
      <point x="353" y="22"/>
    </contour>
    <contour>
      <point x="446" y="398" type="line"/>
      <point x="446" y="442" type="line"/>
      <point x="-29" y="442" type="line"/>
      <point x="-29" y="398" type="line"/>
    </contour>
    <contour>
      <point x="321" y="442" type="move" name="top"/>
    </contour>
    <contour>
      <point x="232" y="0" type="move" name="bottom"/>
    </contour>
  </outline>
</glyph>
<glyph name="grDHA" format="1">
  <advance width="409"/>
  <unicode hex="0A27"/>
  <outline>
    <contour>
      <point x="356" y="0" type="line"/>
      <point x="356" y="408" type="line"/>
      <point x="300" y="408" type="line"/>
      <point x="300" y="176" type="line"/>
      <point x="245" y="142"/>
      <point x="204" y="132"/>
      <point x="165" y="132" type="curve" smooth="yes"/>
      <point x="136" y="132"/>
      <point x="101" y="140"/>
      <point x="87" y="165" type="curve"/>
      <point x="124" y="215"/>
      <point x="146" y="258"/>
      <point x="146" y="309" type="curve" smooth="yes"/>
      <point x="146" y="350"/>
      <point x="132" y="383"/>
      <point x="107" y="417" type="curve"/>
      <point x="74" y="405" type="line"/>
      <point x="90" y="375"/>
      <point x="94" y="351"/>
      <point x="94" y="325" type="curve" smooth="yes"/>
      <point x="94" y="288"/>
      <point x="80" y="258"/>
      <point x="43" y="202" type="curve" smooth="yes"/>
      <point x="31" y="183"/>
      <point x="30" y="179"/>
      <point x="30" y="172" type="curve" smooth="yes"/>
      <point x="30" y="139"/>
      <point x="95" y="89"/>
      <point x="172" y="89" type="curve" smooth="yes"/>
      <point x="218" y="89"/>
      <point x="256" y="98"/>
      <point x="301" y="120" type="curve"/>
      <point x="303" y="119" type="line"/>
      <point x="300" y="56" type="line"/>
      <point x="300" y="0" type="line"/>
    </contour>
    <contour>
      <point x="438" y="398" type="line"/>
      <point x="438" y="442" type="line"/>
      <point x="-29" y="442" type="line"/>
      <point x="-29" y="398" type="line"/>
    </contour>
  </outline>
</glyph>
<glyph name="grNA" format="1">
  <advance width="468"/>
  <unicode hex="0A28"/>
  <outline>
    <contour>
      <point x="168" y="14" type="curve"/>
      <point x="102" y="64"/>
      <point x="88" y="100"/>
      <point x="88" y="142" type="curve" smooth="yes"/>
      <point x="88" y="209"/>
      <point x="138" y="252"/>
      <point x="234" y="252" type="curve" smooth="yes"/>
      <point x="280" y="252"/>
      <point x="317" y="243"/>
      <point x="354" y="220" type="curve"/>
      <point x="366" y="196"/>
      <point x="371" y="171"/>
      <point x="371" y="147" type="curve" smooth="yes"/>
      <point x="371" y="94"/>
      <point x="343" y="52"/>
      <point x="289" y="22" type="curve"/>
      <point x="296" y="9"/>
      <point x="311" y="-1"/>
      <point x="328" y="-7" type="curve"/>
      <point x="391" y="17"/>
      <point x="429" y="74"/>
      <point x="429" y="142" type="curve" smooth="yes"/>
      <point x="429" y="236"/>
      <point x="353" y="294"/>
      <point x="234" y="294" type="curve" smooth="yes"/>
      <point x="114" y="294"/>
      <point x="38" y="233"/>
      <point x="38" y="142" type="curve" smooth="yes"/>
      <point x="38" y="87"/>
      <point x="62" y="42"/>
      <point x="138" y="-7" type="curve"/>
      <point x="149" y="-4"/>
      <point x="159" y="3"/>
    </contour>
    <contour>
      <point x="265" y="278" type="line"/>
      <point x="265" y="413" type="line"/>
      <point x="207" y="413" type="line"/>
      <point x="207" y="278" type="line"/>
    </contour>
    <contour>
      <point x="497" y="398" type="line"/>
      <point x="497" y="442" type="line"/>
      <point x="-29" y="442" type="line"/>
      <point x="-29" y="398" type="line"/>
    </contour>
    <contour>
      <point x="334" y="442" type="move" name="top"/>
    </contour>
    <contour>
      <point x="233" y="0" type="move" name="bottom"/>
    </contour>
  </outline>
</glyph>
<glyph name="grPA" format="1">
  <advance width="409"/>
  <unicode hex="0A2A"/>
  <outline>
    <contour>
      <point x="356" y="0" type="line"/>
      <point x="356" y="398" type="line"/>
      <point x="438" y="398" type="line"/>
      <point x="438" y="442" type="line"/>
      <point x="300" y="442" type="line"/>
      <point x="300" y="176" type="line"/>
      <point x="245" y="142"/>
      <point x="204" y="132"/>
      <point x="165" y="132" type="curve" smooth="yes"/>
      <point x="136" y="132"/>
      <point x="104" y="139"/>
      <point x="86" y="165" type="curve"/>
      <point x="126" y="220"/>
      <point x="146" y="259"/>
      <point x="146" y="314" type="curve" smooth="yes"/>
      <point x="146" y="377"/>
      <point x="98" y="442"/>
      <point x="20" y="442" type="curve" smooth="yes"/>
      <point x="-29" y="442" type="line"/>
      <point x="-29" y="398" type="line" smooth="yes"/>
      <point x="32" y="398" type="line" smooth="yes"/>
      <point x="50" y="398"/>
      <point x="65" y="396"/>
      <point x="80" y="391" type="curve"/>
      <point x="90" y="372"/>
      <point x="94" y="351"/>
      <point x="94" y="328" type="curve" smooth="yes"/>
      <point x="94" y="288"/>
      <point x="77" y="255"/>
      <point x="43" y="202" type="curve" smooth="yes"/>
      <point x="31" y="183"/>
      <point x="30" y="179"/>
      <point x="30" y="172" type="curve" smooth="yes"/>
      <point x="30" y="137"/>
      <point x="95" y="89"/>
      <point x="172" y="89" type="curve" smooth="yes"/>
      <point x="218" y="89"/>
      <point x="256" y="98"/>
      <point x="301" y="120" type="curve"/>
      <point x="303" y="119" type="line"/>
      <point x="300" y="56" type="line"/>
      <point x="300" y="0" type="line"/>
    </contour>
  </outline>
</glyph>
